<svg xmlns="http://www.w3.org/2000/svg" xmlns:xlink="http://www.w3.org/1999/xlink" width="500" zoomAndPan="magnify" viewBox="0 0 375 374.999991" height="500" preserveAspectRatio="xMidYMid meet" version="1.0"><rect x="-37.5" width="450" fill="#ffffff" y="-37.499999" height="449.999989" fill-opacity="1"/><rect x="-37.5" width="450" fill="#ffffff" y="-37.499999" height="449.999989" fill-opacity="1"/><path fill="#caddff" d="M 40.378906 113.472656 C 33.269531 129.21875 22.746094 159.359375 26.976562 196.851562 C 32.402344 244.949219 59.269531 282.871094 85.398438 304.179688 C 172.113281 374.890625 330.851562 329.210938 351.871094 262.601562 C 355.6875 250.519531 354.613281 238.863281 353.292969 224.523438 C 349.097656 178.910156 326.996094 165.355469 312.128906 116.921875 C 298.601562 72.847656 311.941406 67.886719 299.289062 48.292969 C 271.847656 5.789062 192.636719 3.644531 138.128906 24.023438 C 117.195312 31.851562 66.390625 55.859375 40.378906 113.472656 " fill-opacity="1" fill-rule="nonzero"/><path fill="#5479f7" d="M 161.15625 201.605469 C 156.613281 201.023438 153.210938 197.164062 153.210938 192.589844 L 152.617188 67.683594 L 154.847656 62.867188 C 154.847656 62.867188 158.894531 60.171875 161.015625 58.964844 C 162.292969 58.238281 163.8125 57.898438 165.398438 58.101562 L 345.746094 81.082031 C 350.289062 81.660156 353.691406 85.523438 353.691406 90.097656 L 353.691406 213.921875 C 353.480469 221.515625 343.261719 226.09375 343.261719 226.09375 L 161.15625 201.605469 " fill-opacity="1" fill-rule="nonzero"/><path fill="#99b9ff" d="M 339.273438 226.863281 L 157.832031 203.742188 C 153.261719 203.160156 149.839844 199.273438 149.839844 194.671875 L 149.839844 70.097656 C 149.839844 65.820312 153.601562 62.507812 157.847656 63.050781 L 339.289062 86.171875 C 343.859375 86.753906 347.285156 90.640625 347.285156 95.242188 L 347.285156 219.8125 C 347.285156 224.09375 343.523438 227.40625 339.273438 226.863281 " fill-opacity="1" fill-rule="nonzero"/><path fill="#ffffff" d="M 332.777344 220.996094 L 164.332031 199.53125 C 160.089844 198.992188 156.910156 195.382812 156.910156 191.113281 L 156.910156 75.460938 C 156.910156 71.488281 160.402344 68.414062 164.347656 68.917969 L 332.796875 90.382812 C 337.035156 90.921875 340.214844 94.527344 340.214844 98.800781 L 340.214844 214.453125 C 340.214844 218.425781 336.722656 221.5 332.777344 220.996094 " fill-opacity="1" fill-rule="nonzero"/><path fill="#caddff" d="M 316.25 112.199219 C 316.183594 112.199219 316.117188 112.195312 316.046875 112.1875 L 255.816406 104.511719 C 254.945312 104.402344 254.328125 103.605469 254.441406 102.738281 C 254.550781 101.867188 255.347656 101.25 256.21875 101.359375 L 316.449219 109.035156 C 317.320312 109.148438 317.9375 109.941406 317.824219 110.8125 C 317.722656 111.613281 317.039062 112.199219 316.25 112.199219 " fill-opacity="1" fill-rule="nonzero"/><path fill="#caddff" d="M 316.25 123.046875 C 316.183594 123.046875 316.117188 123.042969 316.046875 123.035156 L 291 119.84375 C 290.128906 119.730469 289.511719 118.9375 289.625 118.066406 C 289.734375 117.195312 290.535156 116.582031 291.402344 116.691406 L 316.449219 119.882812 C 317.320312 119.992188 317.9375 120.789062 317.824219 121.660156 C 317.722656 122.460938 317.039062 123.046875 316.25 123.046875 " fill-opacity="1" fill-rule="nonzero"/><path fill="#caddff" d="M 316.25 133.894531 C 316.183594 133.894531 316.117188 133.890625 316.046875 133.882812 L 255.816406 126.207031 C 254.945312 126.09375 254.328125 125.300781 254.441406 124.429688 C 254.550781 123.558594 255.351562 122.945312 256.21875 123.054688 L 316.449219 130.726562 C 317.320312 130.839844 317.9375 131.636719 317.824219 132.507812 C 317.722656 133.308594 317.039062 133.894531 316.25 133.894531 " fill-opacity="1" fill-rule="nonzero"/><path fill="#caddff" d="M 316.25 144.742188 C 316.183594 144.742188 316.117188 144.734375 316.046875 144.726562 L 269.59375 138.808594 C 268.722656 138.699219 268.109375 137.902344 268.21875 137.03125 C 268.332031 136.160156 269.128906 135.546875 269.996094 135.65625 L 316.449219 141.574219 C 317.320312 141.6875 317.9375 142.484375 317.824219 143.351562 C 317.722656 144.15625 317.039062 144.742188 316.25 144.742188 " fill-opacity="1" fill-rule="nonzero"/><path fill="#caddff" d="M 316.25 166.433594 C 316.183594 166.433594 316.117188 166.429688 316.046875 166.421875 L 255.816406 158.746094 C 254.945312 158.636719 254.328125 157.839844 254.441406 156.96875 C 254.550781 156.101562 255.347656 155.480469 256.21875 155.59375 L 316.449219 163.269531 C 317.320312 163.378906 317.9375 164.175781 317.824219 165.046875 C 317.722656 165.851562 317.039062 166.433594 316.25 166.433594 " fill-opacity="1" fill-rule="nonzero"/><path fill="#caddff" d="M 299.035156 175.339844 C 298.96875 175.339844 298.898438 175.335938 298.832031 175.328125 L 255.816406 169.847656 C 254.945312 169.734375 254.328125 168.941406 254.441406 168.070312 C 254.550781 167.199219 255.347656 166.582031 256.21875 166.695312 L 299.234375 172.175781 C 300.101562 172.289062 300.722656 173.082031 300.609375 173.953125 C 300.507812 174.753906 299.820312 175.339844 299.035156 175.339844 " fill-opacity="1" fill-rule="nonzero"/><path fill="#caddff" d="M 316.25 188.382812 C 316.183594 188.382812 316.117188 188.378906 316.046875 188.371094 L 255.816406 180.695312 C 254.945312 180.585938 254.328125 179.789062 254.4375 178.917969 C 254.550781 178.046875 255.347656 177.429688 256.21875 177.542969 L 316.449219 185.214844 C 317.320312 185.328125 317.9375 186.121094 317.824219 186.992188 C 317.722656 187.796875 317.039062 188.382812 316.25 188.382812 " fill-opacity="1" fill-rule="nonzero"/><path fill="#caddff" d="M 316.25 199.230469 C 316.183594 199.230469 316.117188 199.222656 316.046875 199.214844 L 255.816406 191.539062 C 254.945312 191.429688 254.328125 190.632812 254.441406 189.761719 C 254.550781 188.894531 255.347656 188.28125 256.21875 188.390625 L 316.449219 196.0625 C 317.320312 196.175781 317.9375 196.96875 317.824219 197.839844 C 317.722656 198.644531 317.039062 199.230469 316.25 199.230469 " fill-opacity="1" fill-rule="nonzero"/><path fill="#caddff" d="M 242.355469 156.941406 C 242.285156 156.941406 242.21875 156.933594 242.152344 156.925781 L 201.464844 151.742188 C 200.589844 151.632812 199.976562 150.835938 200.085938 149.964844 C 200.199219 149.09375 200.996094 148.476562 201.863281 148.589844 L 242.554688 153.777344 C 243.425781 153.886719 244.039062 154.683594 243.929688 155.550781 C 243.828125 156.355469 243.144531 156.941406 242.355469 156.941406 " fill-opacity="1" fill-rule="nonzero"/><path fill="#caddff" d="M 231.84375 166.699219 C 231.777344 166.699219 231.707031 166.699219 231.640625 166.6875 L 182.863281 160.472656 C 181.992188 160.363281 181.375 159.566406 181.484375 158.695312 C 181.597656 157.824219 182.394531 157.210938 183.265625 157.320312 L 232.042969 163.535156 C 232.914062 163.648438 233.527344 164.441406 233.417969 165.3125 C 233.316406 166.117188 232.632812 166.699219 231.84375 166.699219 " fill-opacity="1" fill-rule="nonzero"/><path fill="#caddff" d="M 242.351562 178.886719 C 242.285156 178.886719 242.21875 178.882812 242.148438 178.875 L 207.347656 174.441406 C 206.472656 174.328125 205.859375 173.53125 205.96875 172.660156 C 206.082031 171.792969 206.878906 171.179688 207.746094 171.289062 L 242.550781 175.722656 C 243.421875 175.832031 244.039062 176.628906 243.929688 177.5 C 243.824219 178.300781 243.140625 178.886719 242.351562 178.886719 " fill-opacity="1" fill-rule="nonzero"/><path fill="#caddff" d="M 242.355469 189.734375 C 242.285156 189.734375 242.21875 189.730469 242.152344 189.722656 L 196.203125 183.867188 C 195.332031 183.753906 194.71875 182.960938 194.828125 182.089844 C 194.9375 181.21875 195.734375 180.605469 196.605469 180.714844 L 242.554688 186.570312 C 243.425781 186.679688 244.039062 187.476562 243.929688 188.347656 C 243.828125 189.148438 243.144531 189.734375 242.355469 189.734375 " fill-opacity="1" fill-rule="nonzero"/><path fill="#99b9ff" d="M 233.511719 296.921875 L 48.027344 273.019531 C 46.578125 272.832031 45.757812 271.621094 45.777344 270.40625 C 45.789062 269.566406 45.855469 263.667969 45.855469 263.667969 L 143.933594 207.644531 C 148.847656 204.84375 155.203125 203.757812 160.816406 204.476562 L 343.957031 228.082031 C 345.0625 228.226562 346.007812 228.941406 346.441406 229.960938 L 346.738281 230.652344 C 346.738281 230.652344 346.582031 235.570312 346.644531 236.71875 C 346.695312 237.617188 346.289062 238.546875 345.347656 239.085938 L 249.734375 293.707031 C 244.820312 296.511719 239.125 297.640625 233.511719 296.921875 " fill-opacity="1" fill-rule="nonzero"/><path fill="#ffffff" d="M 233.511719 290.355469 L 48.691406 266.5 C 46.238281 266.1875 45.59375 262.9375 47.738281 261.710938 L 142.839844 207.4375 C 147.753906 204.632812 153.449219 203.503906 159.0625 204.222656 L 343.882812 228.078125 C 346.335938 228.394531 346.980469 231.644531 344.832031 232.871094 L 249.734375 287.140625 C 244.820312 289.945312 239.125 291.074219 233.511719 290.355469 " fill-opacity="1" fill-rule="nonzero"/><path fill="#000000" d="M 236.78125 291.15625 C 235.664062 291.15625 234.546875 291.089844 233.4375 290.945312 L 109.773438 274.984375 C 109.445312 274.941406 109.214844 274.644531 109.257812 274.316406 C 109.300781 273.992188 109.601562 273.761719 109.925781 273.800781 L 233.589844 289.765625 C 239.039062 290.460938 244.667969 289.347656 249.441406 286.625 L 344.542969 232.351562 C 345.453125 231.832031 345.632812 230.925781 345.5 230.25 C 345.367188 229.574219 344.851562 228.804688 343.808594 228.671875 L 158.988281 204.8125 C 153.539062 204.117188 147.90625 205.230469 143.136719 207.953125 L 103.703125 230.457031 C 103.417969 230.621094 103.054688 230.523438 102.890625 230.238281 C 102.726562 229.953125 102.824219 229.589844 103.109375 229.425781 L 142.546875 206.921875 C 147.539062 204.070312 153.429688 202.902344 159.136719 203.632812 L 343.960938 227.488281 C 345.335938 227.664062 346.402344 228.65625 346.671875 230.015625 C 346.941406 231.378906 346.335938 232.699219 345.128906 233.386719 L 250.03125 287.660156 C 246.007812 289.953125 241.402344 291.15625 236.78125 291.15625 " fill-opacity="1" fill-rule="nonzero"/><path fill="#99b9ff" d="M 269.699219 260.230469 L 109.433594 239.394531 C 107.21875 239.109375 106.636719 236.175781 108.574219 235.066406 L 146.257812 213.78125 C 150.695312 211.246094 155.839844 210.230469 160.910156 210.875 L 321.171875 231.714844 C 323.390625 231.996094 323.972656 234.933594 322.03125 236.042969 L 284.351562 257.328125 C 279.910156 259.859375 274.769531 260.878906 269.699219 260.230469 " fill-opacity="1" fill-rule="nonzero"/><path fill="#99b9ff" d="M 175.648438 272.460938 L 131.046875 266.703125 C 130.453125 266.628906 130.296875 265.84375 130.816406 265.546875 L 152.367188 253.769531 C 153.554688 253.09375 154.929688 252.820312 156.28125 252.996094 L 200.890625 258.75 C 201.480469 258.828125 201.636719 259.613281 201.117188 259.910156 L 179.566406 271.6875 C 178.378906 272.363281 177.003906 272.636719 175.648438 272.460938 " fill-opacity="1" fill-rule="nonzero"/><path fill="#000000" d="M 280.324219 233.386719 C 280.300781 233.386719 280.277344 233.382812 280.25 233.378906 L 213.210938 225.238281 C 212.882812 225.199219 212.652344 224.898438 212.691406 224.574219 C 212.726562 224.246094 213.027344 224.015625 213.351562 224.054688 L 280.394531 232.199219 C 280.722656 232.238281 280.957031 232.535156 280.917969 232.863281 C 280.878906 233.164062 280.621094 233.386719 280.324219 233.386719 " fill-opacity="1" fill-rule="nonzero"/><path fill="#000000" d="M 251.015625 239.953125 C 250.992188 239.953125 250.964844 239.949219 250.941406 239.949219 L 231.480469 237.585938 C 231.152344 237.542969 230.917969 237.246094 230.957031 236.921875 C 230.996094 236.59375 231.296875 236.363281 231.621094 236.398438 L 251.085938 238.765625 C 251.410156 238.804688 251.644531 239.101562 251.605469 239.429688 C 251.570312 239.730469 251.3125 239.953125 251.015625 239.953125 " fill-opacity="1" fill-rule="nonzero"/><path fill="#000000" d="M 181.605469 241.132812 C 181.582031 241.132812 181.554688 241.132812 181.535156 241.128906 L 162.070312 238.765625 C 161.742188 238.726562 161.507812 238.429688 161.546875 238.101562 C 161.585938 237.777344 161.886719 237.542969 162.210938 237.582031 L 181.675781 239.949219 C 182.003906 239.988281 182.234375 240.285156 182.195312 240.609375 C 182.160156 240.914062 181.902344 241.132812 181.605469 241.132812 " fill-opacity="1" fill-rule="nonzero"/><path fill="#5479f7" d="M 277.457031 99.398438 C 277.457031 80.730469 263.789062 65.511719 245.660156 63.203125 L 235.285156 61.683594 L 235.285156 51.375 C 235.285156 31.324219 220.28125 14.394531 200.375 11.859375 C 176.550781 8.828125 155.386719 27.378906 155.386719 51.375 L 155.386719 51.535156 L 154.402344 51.390625 C 132.707031 48.632812 113.648438 65.523438 113.648438 87.375 L 113.648438 87.378906 C 113.648438 105.636719 127.1875 121.050781 145.316406 123.355469 L 161.746094 125.453125 L 161.746094 149.699219 L 144.128906 147.511719 L 138.519531 151.277344 L 177.019531 188.394531 L 211.601562 156.007812 L 195.136719 153.914062 L 195.136719 105.917969 L 177.496094 103.792969 L 213.085938 70.824219 L 246.503906 112.320312 L 228.464844 110.128906 L 223.09375 113.894531 L 228.855469 133.96875 L 236.578125 135.164062 C 258.269531 137.925781 277.46875 121.242188 277.46875 99.398438 L 277.457031 99.398438 " fill-opacity="1" fill-rule="nonzero"/><path fill="#ffffff" d="M 272.191406 103.367188 C 272.191406 84.78125 258.527344 69.558594 240.398438 67.253906 L 230.03125 65.816406 L 230.03125 56.292969 C 230.03125 36.453125 215.746094 19.277344 196.136719 16.171875 C 171.816406 12.316406 149.683594 31.09375 149.683594 55.507812 L 149.683594 55.664062 L 148.785156 55.523438 C 127.09375 52.765625 108.125 69.65625 108.125 91.503906 L 108.125 91.507812 C 108.125 109.769531 121.757812 125.179688 139.886719 127.488281 L 156.410156 129.585938 L 156.410156 153.832031 L 138.828125 151.640625 L 171.765625 192.53125 L 206.230469 160.136719 L 189.660156 158.046875 L 189.660156 110.050781 L 173.929688 108.011719 L 208.652344 75.964844 L 241.066406 116.453125 L 223.300781 114.261719 L 223.300781 138.101562 L 231.167969 139.214844 C 252.859375 141.972656 272.203125 124.71875 272.203125 103.367188 L 272.191406 103.367188 " fill-opacity="1" fill-rule="nonzero"/><path fill="#000000" d="M 235.664062 140.203125 C 234.117188 140.203125 232.570312 140.101562 231.019531 139.90625 L 223.070312 138.691406 C 222.78125 138.644531 222.566406 138.398438 222.566406 138.101562 L 222.566406 114.261719 C 222.566406 114.09375 222.640625 113.929688 222.765625 113.816406 C 222.894531 113.703125 223.0625 113.652344 223.234375 113.671875 L 239.589844 115.6875 L 208.144531 76.441406 L 200.636719 83.425781 C 200.394531 83.648438 200.019531 83.636719 199.796875 83.394531 C 199.570312 83.152344 199.585938 82.777344 199.824219 82.550781 L 207.800781 75.132812 C 207.921875 75.019531 208.082031 74.960938 208.25 74.972656 C 208.414062 74.984375 208.570312 75.066406 208.671875 75.195312 L 241.4375 116.082031 C 241.589844 116.273438 241.613281 116.535156 241.496094 116.746094 C 241.375 116.957031 241.144531 117.078125 240.898438 117.046875 L 223.757812 114.9375 L 223.757812 137.589844 L 231.1875 138.726562 C 241.378906 140.023438 251.710938 136.832031 259.507812 129.96875 C 267.167969 123.230469 271.570312 113.648438 271.605469 103.675781 C 271.597656 103.640625 271.59375 103.605469 271.59375 103.566406 C 271.59375 85.234375 258.421875 70.257812 240.269531 67.945312 L 229.832031 66.40625 C 229.539062 66.363281 229.324219 66.109375 229.324219 65.816406 L 229.324219 55.507812 C 229.324219 35.828125 214.453125 19.097656 194.730469 16.585938 C 183.46875 15.152344 172.101562 18.648438 163.546875 26.175781 C 155.078125 33.628906 150.21875 44.320312 150.21875 55.507812 L 150.21875 55.667969 C 150.21875 55.839844 150.144531 56.007812 150.011719 56.117188 C 149.882812 56.230469 149.707031 56.28125 149.535156 56.257812 L 148.550781 56.113281 C 138.425781 54.828125 128.230469 57.949219 120.578125 64.683594 C 112.890625 71.449219 108.480469 81.226562 108.480469 91.503906 C 108.480469 97.753906 110.148438 103.925781 113.300781 109.355469 C 113.464844 109.640625 113.371094 110.003906 113.085938 110.171875 C 112.800781 110.335938 112.433594 110.238281 112.269531 109.957031 C 109.011719 104.339844 107.289062 97.960938 107.289062 91.511719 C 107.289062 80.882812 111.847656 70.78125 119.792969 63.789062 C 127.699219 56.832031 138.238281 53.601562 148.710938 54.933594 L 149.03125 54.980469 C 149.179688 43.640625 154.164062 32.84375 162.757812 25.28125 C 171.570312 17.527344 183.28125 13.925781 194.882812 15.402344 C 215.195312 17.988281 230.515625 35.230469 230.515625 55.507812 L 230.515625 65.300781 L 240.429688 66.765625 C 249.371094 67.90625 257.574219 72.226562 263.511719 78.933594 C 269.46875 85.660156 272.761719 94.367188 272.785156 103.457031 C 272.792969 103.496094 272.796875 103.53125 272.796875 103.566406 C 272.796875 113.921875 268.242188 123.871094 260.296875 130.863281 C 253.421875 136.910156 244.644531 140.199219 235.664062 140.203125 " fill-opacity="1" fill-rule="nonzero"/><path fill="#000000" d="M 186.710938 96.164062 C 186.550781 96.164062 186.390625 96.097656 186.273438 95.976562 C 186.050781 95.734375 186.066406 95.355469 186.304688 95.132812 L 193.832031 88.128906 C 194.074219 87.902344 194.453125 87.917969 194.675781 88.15625 C 194.902344 88.398438 194.886719 88.777344 194.648438 89 L 187.117188 96.003906 C 187.003906 96.109375 186.859375 96.164062 186.710938 96.164062 " fill-opacity="1" fill-rule="nonzero"/><path fill="#000000" d="M 171.753906 193.125 C 171.742188 193.125 171.726562 193.125 171.714844 193.125 C 171.546875 193.113281 171.394531 193.03125 171.289062 192.902344 L 138.347656 152.015625 C 138.195312 151.828125 138.175781 151.5625 138.292969 151.351562 C 138.410156 151.140625 138.644531 151.019531 138.886719 151.054688 L 155.78125 153.160156 L 155.78125 130.113281 L 142.71875 128.464844 C 142.394531 128.421875 142.160156 128.125 142.203125 127.800781 C 142.242188 127.472656 142.542969 127.242188 142.867188 127.28125 L 156.453125 128.996094 C 156.753906 129.035156 156.976562 129.285156 156.976562 129.585938 L 156.976562 153.835938 C 156.976562 154.007812 156.902344 154.167969 156.773438 154.28125 C 156.648438 154.394531 156.476562 154.449219 156.308594 154.425781 L 140.203125 152.414062 L 171.8125 191.652344 L 204.753906 160.574219 L 189.300781 158.640625 C 189.003906 158.601562 188.777344 158.347656 188.777344 158.046875 L 188.777344 110.574219 L 173.277344 108.546875 C 173.046875 108.519531 172.855469 108.359375 172.785156 108.136719 C 172.714844 107.917969 172.78125 107.675781 172.949219 107.519531 L 179.628906 101.367188 C 179.871094 101.140625 180.246094 101.15625 180.46875 101.398438 C 180.695312 101.640625 180.679688 102.015625 180.4375 102.242188 L 174.695312 107.53125 L 189.453125 109.460938 C 189.746094 109.5 189.96875 109.75 189.96875 110.050781 L 189.96875 157.523438 L 206.15625 159.550781 C 206.386719 159.578125 206.578125 159.734375 206.652344 159.953125 C 206.722656 160.171875 206.660156 160.414062 206.492188 160.574219 L 172.164062 192.964844 C 172.054688 193.070312 171.90625 193.125 171.753906 193.125 " fill-opacity="1" fill-rule="nonzero"/><path fill="#000000" d="M 135.671875 127.34375 C 135.628906 127.34375 135.578125 127.339844 135.53125 127.328125 C 127.800781 125.453125 121.007812 121.21875 115.890625 115.09375 C 115.679688 114.84375 115.714844 114.46875 115.96875 114.257812 C 116.21875 114.046875 116.597656 114.078125 116.808594 114.332031 C 121.757812 120.261719 128.332031 124.355469 135.8125 126.171875 C 136.132812 126.246094 136.332031 126.570312 136.253906 126.890625 C 136.1875 127.164062 135.941406 127.34375 135.671875 127.34375 " fill-opacity="1" fill-rule="nonzero"/><path fill="#99b9ff" d="M 83.519531 54.910156 C 76.246094 58.925781 67.089844 56.285156 63.070312 49.011719 C 59.046875 41.738281 61.6875 32.585938 68.960938 28.566406 C 76.234375 24.550781 85.390625 27.191406 89.410156 34.464844 C 93.429688 41.738281 90.792969 50.890625 83.519531 54.910156 Z M 103.554688 28.648438 L 101.863281 25.59375 C 101.53125 24.992188 100.824219 24.699219 100.164062 24.890625 L 96.082031 26.078125 C 95.539062 26.234375 94.945312 26.070312 94.574219 25.644531 C 94.078125 25.078125 93.554688 24.535156 93.011719 24.015625 C 92.605469 23.628906 92.464844 23.035156 92.640625 22.503906 L 93.980469 18.472656 C 94.199219 17.820312 93.933594 17.101562 93.34375 16.746094 L 90.351562 14.945312 C 89.761719 14.589844 89.003906 14.691406 88.53125 15.183594 L 85.585938 18.257812 C 85.195312 18.664062 84.601562 18.820312 84.066406 18.636719 C 83.355469 18.394531 82.636719 18.1875 81.90625 18.015625 C 81.355469 17.882812 80.9375 17.4375 80.824219 16.886719 L 79.964844 12.714844 C 79.828125 12.042969 79.238281 11.554688 78.550781 11.539062 L 75.058594 11.476562 C 74.371094 11.460938 73.765625 11.925781 73.601562 12.59375 L 72.589844 16.71875 C 72.457031 17.265625 72.023438 17.695312 71.46875 17.804688 C 70.734375 17.953125 70.007812 18.136719 69.28125 18.351562 C 68.738281 18.515625 68.152344 18.339844 67.777344 17.917969 L 64.953125 14.738281 C 64.496094 14.222656 63.742188 14.09375 63.136719 14.425781 L 60.082031 16.113281 C 59.480469 16.449219 59.191406 17.152344 59.382812 17.8125 L 60.570312 21.898438 C 60.726562 22.4375 60.5625 23.027344 60.136719 23.398438 C 59.570312 23.898438 59.027344 24.417969 58.511719 24.960938 C 58.121094 25.371094 57.527344 25.511719 56.992188 25.332031 L 52.964844 23.992188 C 52.308594 23.777344 51.59375 24.039062 51.238281 24.632812 L 49.433594 27.621094 C 49.082031 28.210938 49.179688 28.964844 49.675781 29.441406 L 52.75 32.386719 C 53.160156 32.78125 53.3125 33.371094 53.132812 33.902344 C 52.890625 34.613281 52.683594 35.335938 52.507812 36.066406 C 52.375 36.613281 51.933594 37.03125 51.378906 37.148438 L 47.210938 38.003906 C 46.539062 38.140625 46.050781 38.730469 46.035156 39.417969 L 45.96875 42.910156 C 45.957031 43.597656 46.421875 44.203125 47.089844 44.367188 L 51.21875 45.378906 C 51.765625 45.515625 52.191406 45.945312 52.304688 46.5 C 52.449219 47.234375 52.632812 47.964844 52.851562 48.6875 C 53.011719 49.230469 52.839844 49.816406 52.414062 50.191406 L 49.238281 53.015625 C 48.722656 53.472656 48.59375 54.222656 48.925781 54.824219 L 50.617188 57.882812 C 50.949219 58.484375 51.65625 58.777344 52.316406 58.585938 L 56.398438 57.398438 C 56.941406 57.242188 57.53125 57.40625 57.90625 57.832031 C 58.402344 58.398438 58.921875 58.945312 59.464844 59.460938 C 59.875 59.847656 60.015625 60.441406 59.835938 60.972656 L 58.496094 65.007812 C 58.28125 65.660156 58.546875 66.375 59.136719 66.730469 L 62.125 68.53125 C 62.714844 68.890625 63.472656 68.785156 63.949219 68.292969 L 66.894531 65.21875 C 67.285156 64.8125 67.875 64.660156 68.410156 64.839844 C 69.121094 65.082031 69.84375 65.289062 70.574219 65.464844 C 71.121094 65.597656 71.542969 66.039062 71.65625 66.589844 L 72.515625 70.761719 C 72.652344 71.433594 73.242188 71.921875 73.929688 71.9375 L 77.417969 72.003906 C 78.109375 72.015625 78.714844 71.550781 78.875 70.882812 L 79.890625 66.757812 C 80.023438 66.210938 80.457031 65.78125 81.011719 65.671875 C 81.742188 65.523438 82.472656 65.34375 83.195312 65.125 C 83.738281 64.960938 84.328125 65.140625 84.703125 65.5625 L 87.527344 68.738281 C 87.984375 69.253906 88.738281 69.382812 89.339844 69.050781 L 92.394531 67.363281 C 93 67.03125 93.289062 66.324219 93.097656 65.664062 L 91.910156 61.582031 C 91.75 61.039062 91.914062 60.449219 92.339844 60.078125 C 92.910156 59.578125 93.453125 59.058594 93.96875 58.515625 C 94.355469 58.105469 94.949219 57.96875 95.488281 58.144531 L 99.515625 59.484375 C 100.167969 59.699219 100.886719 59.4375 101.242188 58.84375 L 103.042969 55.855469 C 103.398438 55.265625 103.296875 54.511719 102.800781 54.035156 L 99.726562 51.089844 C 99.320312 50.699219 99.167969 50.109375 99.347656 49.574219 C 99.589844 48.863281 99.796875 48.140625 99.972656 47.410156 C 100.101562 46.859375 100.546875 46.445312 101.101562 46.332031 L 105.269531 45.472656 C 105.941406 45.335938 106.429688 44.746094 106.445312 44.058594 L 106.507812 40.566406 C 106.523438 39.878906 106.054688 39.273438 105.386719 39.109375 L 101.261719 38.097656 C 100.714844 37.964844 100.285156 37.53125 100.175781 36.976562 C 100.027344 36.242188 99.84375 35.511719 99.628906 34.789062 C 99.464844 34.246094 99.640625 33.660156 100.0625 33.285156 L 103.242188 30.460938 C 103.757812 30.003906 103.886719 29.253906 103.554688 28.648438 " fill-opacity="1" fill-rule="nonzero"/><path fill="#99b9ff" d="M 132.121094 38.066406 C 128.070312 41.660156 121.871094 41.289062 118.273438 37.242188 C 114.679688 33.191406 115.046875 26.996094 119.09375 23.402344 C 123.144531 19.808594 129.34375 20.175781 132.941406 24.230469 C 136.539062 28.277344 136.171875 34.472656 132.121094 38.066406 Z M 141.097656 18.511719 L 139.585938 16.808594 C 139.289062 16.472656 138.800781 16.386719 138.40625 16.605469 L 135.980469 17.941406 C 135.65625 18.121094 135.257812 18.101562 134.960938 17.882812 C 134.5625 17.589844 134.152344 17.324219 133.734375 17.070312 C 133.417969 16.882812 133.246094 16.527344 133.28125 16.160156 L 133.554688 13.40625 C 133.601562 12.960938 133.328125 12.542969 132.90625 12.402344 L 130.746094 11.683594 C 130.320312 11.539062 129.851562 11.714844 129.621094 12.097656 L 128.1875 14.46875 C 127.996094 14.785156 127.644531 14.96875 127.277344 14.929688 C 126.792969 14.875 126.300781 14.847656 125.8125 14.839844 C 125.445312 14.835938 125.117188 14.613281 124.964844 14.277344 L 123.820312 11.75 C 123.636719 11.34375 123.195312 11.117188 122.753906 11.207031 L 120.527344 11.660156 C 120.085938 11.753906 119.769531 12.136719 119.757812 12.582031 L 119.707031 15.347656 C 119.699219 15.714844 119.484375 16.050781 119.148438 16.203125 C 118.703125 16.398438 118.265625 16.621094 117.835938 16.859375 C 117.515625 17.039062 117.117188 17.011719 116.816406 16.796875 L 114.566406 15.179688 C 114.203125 14.917969 113.703125 14.945312 113.371094 15.242188 L 111.667969 16.753906 C 111.332031 17.050781 111.25 17.539062 111.464844 17.933594 L 112.804688 20.359375 C 112.984375 20.683594 112.964844 21.078125 112.746094 21.378906 C 112.457031 21.773438 112.183594 22.183594 111.9375 22.601562 C 111.746094 22.917969 111.390625 23.089844 111.023438 23.054688 L 108.269531 22.78125 C 107.824219 22.734375 107.40625 23.007812 107.265625 23.429688 L 106.546875 25.589844 C 106.40625 26.011719 106.578125 26.480469 106.960938 26.710938 L 109.335938 28.144531 C 109.652344 28.335938 109.832031 28.691406 109.796875 29.054688 C 109.742188 29.539062 109.714844 30.027344 109.707031 30.519531 C 109.703125 30.886719 109.480469 31.214844 109.144531 31.367188 L 106.617188 32.507812 C 106.210938 32.695312 105.984375 33.136719 106.074219 33.574219 L 106.53125 35.804688 C 106.621094 36.242188 107.003906 36.5625 107.453125 36.570312 L 110.222656 36.625 C 110.589844 36.628906 110.921875 36.84375 111.070312 37.179688 C 111.269531 37.628906 111.492188 38.066406 111.734375 38.496094 C 111.914062 38.816406 111.886719 39.214844 111.671875 39.511719 L 110.054688 41.761719 C 109.792969 42.125 109.820312 42.621094 110.117188 42.957031 L 111.628906 44.660156 C 111.925781 44.996094 112.417969 45.078125 112.808594 44.863281 L 115.234375 43.527344 C 115.558594 43.347656 115.957031 43.367188 116.253906 43.585938 C 116.652344 43.875 117.0625 44.148438 117.480469 44.398438 C 117.796875 44.585938 117.96875 44.941406 117.933594 45.308594 L 117.660156 48.0625 C 117.617188 48.507812 117.886719 48.925781 118.3125 49.066406 L 120.472656 49.785156 C 120.898438 49.925781 121.363281 49.753906 121.597656 49.371094 L 123.027344 47 C 123.21875 46.683594 123.574219 46.5 123.9375 46.539062 C 124.425781 46.589844 124.914062 46.621094 125.402344 46.625 C 125.769531 46.632812 126.101562 46.855469 126.25 47.1875 L 127.394531 49.71875 C 127.578125 50.128906 128.023438 50.351562 128.460938 50.261719 L 130.691406 49.804688 C 131.128906 49.714844 131.449219 49.332031 131.457031 48.886719 L 131.507812 46.117188 C 131.515625 45.75 131.730469 45.417969 132.066406 45.269531 C 132.511719 45.070312 132.949219 44.847656 133.378906 44.609375 C 133.699219 44.425781 134.097656 44.457031 134.398438 44.667969 L 136.648438 46.289062 C 137.011719 46.546875 137.511719 46.523438 137.847656 46.226562 L 139.546875 44.714844 C 139.882812 44.417969 139.96875 43.929688 139.75 43.535156 L 138.410156 41.109375 C 138.230469 40.789062 138.25 40.390625 138.46875 40.089844 C 138.761719 39.691406 139.03125 39.285156 139.28125 38.867188 C 139.46875 38.550781 139.828125 38.378906 140.191406 38.414062 L 142.945312 38.6875 C 143.390625 38.734375 143.808594 38.464844 143.953125 38.035156 L 144.667969 35.878906 C 144.8125 35.453125 144.636719 34.984375 144.253906 34.753906 L 141.878906 33.320312 C 141.5625 33.132812 141.382812 32.78125 141.421875 32.414062 C 141.472656 31.925781 141.5 31.4375 141.507812 30.949219 C 141.511719 30.582031 141.734375 30.25 142.070312 30.101562 L 144.597656 28.960938 C 145.007812 28.777344 145.234375 28.332031 145.144531 27.894531 L 144.683594 25.664062 C 144.59375 25.226562 144.210938 24.90625 143.761719 24.898438 L 140.996094 24.84375 C 140.628906 24.835938 140.292969 24.621094 140.144531 24.285156 C 139.945312 23.839844 139.722656 23.402344 139.480469 22.972656 C 139.300781 22.652344 139.328125 22.253906 139.542969 21.953125 L 141.160156 19.707031 C 141.421875 19.339844 141.394531 18.84375 141.097656 18.511719 " fill-opacity="1" fill-rule="nonzero"/><path fill="#99b9ff" d="M 188.5625 98.769531 C 188.550781 98.769531 188.546875 98.769531 188.535156 98.769531 C 186.921875 98.691406 185.328125 98.644531 183.789062 98.632812 C 183.460938 98.628906 183.195312 98.363281 183.199219 98.035156 C 183.203125 97.707031 183.46875 97.441406 183.796875 97.441406 C 183.796875 97.441406 183.796875 97.441406 183.800781 97.441406 C 185.351562 97.453125 186.964844 97.5 188.589844 97.578125 C 188.921875 97.59375 189.175781 97.871094 189.160156 98.203125 C 189.144531 98.519531 188.882812 98.769531 188.5625 98.769531 Z M 174.269531 99.023438 C 173.96875 99.023438 173.707031 98.792969 173.679688 98.484375 C 173.648438 98.15625 173.886719 97.867188 174.214844 97.835938 C 175.757812 97.6875 177.367188 97.582031 179.003906 97.515625 C 179.339844 97.507812 179.609375 97.757812 179.621094 98.089844 C 179.636719 98.417969 179.382812 98.695312 179.050781 98.707031 C 177.4375 98.769531 175.847656 98.878906 174.328125 99.023438 C 174.308594 99.023438 174.289062 99.023438 174.269531 99.023438 Z M 198.066406 99.5625 C 198.046875 99.5625 198.019531 99.5625 198 99.558594 C 196.398438 99.371094 194.808594 99.210938 193.273438 99.082031 C 192.945312 99.054688 192.699219 98.769531 192.726562 98.441406 C 192.757812 98.113281 193.050781 97.867188 193.371094 97.894531 C 194.917969 98.027344 196.523438 98.1875 198.136719 98.375 C 198.464844 98.410156 198.695312 98.707031 198.660156 99.035156 C 198.625 99.339844 198.367188 99.5625 198.066406 99.5625 Z M 164.871094 100.550781 C 164.601562 100.550781 164.359375 100.371094 164.292969 100.097656 C 164.214844 99.777344 164.410156 99.457031 164.734375 99.378906 C 166.238281 99.015625 167.828125 98.699219 169.449219 98.441406 C 169.777344 98.386719 170.082031 98.609375 170.132812 98.933594 C 170.183594 99.257812 169.964844 99.5625 169.640625 99.613281 C 168.046875 99.871094 166.488281 100.179688 165.011719 100.535156 C 164.964844 100.546875 164.917969 100.550781 164.871094 100.550781 Z M 207.507812 100.921875 C 207.476562 100.921875 207.441406 100.917969 207.40625 100.914062 C 205.824219 100.644531 204.242188 100.394531 202.710938 100.171875 C 202.382812 100.125 202.160156 99.824219 202.207031 99.5 C 202.253906 99.171875 202.554688 98.945312 202.882812 98.992188 C 204.421875 99.214844 206.015625 99.46875 207.609375 99.738281 C 207.933594 99.792969 208.152344 100.101562 208.097656 100.425781 C 208.046875 100.71875 207.792969 100.921875 207.507812 100.921875 Z M 216.875 102.734375 C 216.832031 102.734375 216.789062 102.730469 216.746094 102.722656 C 215.179688 102.382812 213.613281 102.0625 212.085938 101.765625 C 211.765625 101.703125 211.550781 101.390625 211.613281 101.066406 C 211.675781 100.746094 211.992188 100.535156 212.316406 100.597656 C 213.847656 100.894531 215.425781 101.21875 217 101.558594 C 217.320312 101.625 217.523438 101.941406 217.457031 102.265625 C 217.394531 102.542969 217.148438 102.734375 216.875 102.734375 Z M 155.875 103.648438 C 155.652344 103.648438 155.433594 103.523438 155.335938 103.304688 C 155.195312 103.007812 155.320312 102.652344 155.621094 102.511719 C 157.027344 101.851562 158.535156 101.246094 160.101562 100.714844 C 160.410156 100.605469 160.75 100.773438 160.859375 101.085938 C 160.964844 101.394531 160.796875 101.734375 160.484375 101.839844 C 158.964844 102.359375 157.496094 102.949219 156.125 103.589844 C 156.046875 103.628906 155.960938 103.648438 155.875 103.648438 Z M 226.160156 104.917969 C 226.113281 104.917969 226.0625 104.910156 226.011719 104.898438 C 224.460938 104.503906 222.90625 104.125 221.390625 103.769531 C 221.066406 103.691406 220.871094 103.371094 220.945312 103.050781 C 221.019531 102.730469 221.339844 102.53125 221.664062 102.609375 C 223.1875 102.964844 224.75 103.347656 226.304688 103.742188 C 226.625 103.824219 226.820312 104.148438 226.738281 104.46875 C 226.667969 104.738281 226.425781 104.917969 226.160156 104.917969 Z M 147.910156 108.820312 C 147.746094 108.820312 147.582031 108.753906 147.464844 108.621094 C 147.246094 108.375 147.269531 108 147.515625 107.78125 C 148.691406 106.730469 149.992188 105.746094 151.382812 104.847656 C 151.65625 104.671875 152.027344 104.75 152.207031 105.027344 C 152.386719 105.304688 152.304688 105.671875 152.027344 105.851562 C 150.6875 106.710938 149.4375 107.660156 148.308594 108.667969 C 148.195312 108.769531 148.050781 108.820312 147.910156 108.820312 Z M 142.074219 116.28125 C 141.980469 116.28125 141.886719 116.261719 141.800781 116.214844 C 141.507812 116.0625 141.394531 115.703125 141.542969 115.414062 C 142.285156 113.980469 143.171875 112.601562 144.179688 111.316406 C 144.382812 111.058594 144.757812 111.015625 145.015625 111.21875 C 145.277344 111.421875 145.320312 111.792969 145.117188 112.054688 C 144.152344 113.28125 143.308594 114.59375 142.605469 115.960938 C 142.496094 116.164062 142.289062 116.28125 142.074219 116.28125 Z M 139.402344 125.371094 C 139.382812 125.371094 139.363281 125.367188 139.34375 125.367188 C 139.015625 125.335938 138.777344 125.046875 138.808594 124.714844 C 138.96875 123.09375 139.277344 121.484375 139.734375 119.9375 C 139.828125 119.617188 140.160156 119.4375 140.472656 119.53125 C 140.789062 119.621094 140.96875 119.953125 140.878906 120.269531 C 140.445312 121.75 140.148438 123.285156 139.996094 124.832031 C 139.964844 125.140625 139.707031 125.371094 139.402344 125.371094 Z M 140.25 134.808594 C 139.992188 134.808594 139.753906 134.640625 139.675781 134.382812 C 139.230469 132.855469 138.929688 131.242188 138.785156 129.585938 C 138.753906 129.261719 138.996094 128.96875 139.324219 128.941406 C 139.660156 128.910156 139.941406 129.15625 139.972656 129.480469 C 140.109375 131.058594 140.394531 132.597656 140.820312 134.046875 C 140.914062 134.359375 140.734375 134.691406 140.417969 134.785156 C 140.359375 134.800781 140.304688 134.808594 140.25 134.808594 Z M 145.101562 142.886719 C 144.953125 142.886719 144.800781 142.832031 144.6875 142.71875 C 143.5 141.566406 142.46875 140.28125 141.621094 138.890625 C 141.449219 138.609375 141.539062 138.242188 141.820312 138.070312 C 142.101562 137.898438 142.46875 137.988281 142.640625 138.269531 C 143.4375 139.574219 144.40625 140.785156 145.515625 141.863281 C 145.753906 142.09375 145.757812 142.46875 145.527344 142.707031 C 145.414062 142.824219 145.257812 142.886719 145.101562 142.886719 Z M 153.167969 147.847656 C 153.101562 147.847656 153.027344 147.832031 152.960938 147.808594 C 151.382812 147.214844 149.90625 146.503906 148.566406 145.695312 C 148.289062 145.523438 148.199219 145.15625 148.367188 144.875 C 148.539062 144.59375 148.90625 144.507812 149.1875 144.675781 C 150.460938 145.449219 151.875 146.125 153.378906 146.691406 C 153.6875 146.808594 153.84375 147.152344 153.726562 147.457031 C 153.636719 147.699219 153.410156 147.847656 153.167969 147.847656 " fill-opacity="1" fill-rule="nonzero"/><path fill="#99b9ff" d="M 210.734375 107.773438 C 210.453125 107.773438 210.199219 107.566406 210.148438 107.28125 C 209.875 105.730469 209.492188 104.207031 209.007812 102.746094 C 208.90625 102.429688 209.074219 102.09375 209.386719 101.992188 C 209.703125 101.886719 210.039062 102.058594 210.140625 102.371094 C 210.640625 103.886719 211.039062 105.46875 211.324219 107.070312 C 211.382812 107.394531 211.164062 107.703125 210.839844 107.765625 C 210.804688 107.769531 210.769531 107.773438 210.734375 107.773438 Z M 211.128906 117.269531 C 211.109375 117.269531 211.09375 117.269531 211.074219 117.265625 C 210.746094 117.238281 210.503906 116.949219 210.535156 116.621094 C 210.632812 115.542969 210.679688 114.453125 210.679688 113.375 C 210.679688 112.894531 210.671875 112.410156 210.652344 111.933594 C 210.636719 111.605469 210.894531 111.328125 211.222656 111.316406 C 211.550781 111.304688 211.828125 111.558594 211.839844 111.886719 C 211.863281 112.378906 211.871094 112.878906 211.871094 113.375 C 211.871094 114.488281 211.820312 115.613281 211.722656 116.726562 C 211.695312 117.035156 211.433594 117.269531 211.128906 117.269531 Z M 209.054688 126.550781 C 208.988281 126.550781 208.917969 126.539062 208.851562 126.511719 C 208.542969 126.398438 208.382812 126.058594 208.496094 125.75 C 209.027344 124.296875 209.472656 122.785156 209.8125 121.253906 C 209.882812 120.933594 210.203125 120.726562 210.527344 120.800781 C 210.847656 120.871094 211.046875 121.1875 210.976562 121.511719 C 210.625 123.09375 210.167969 124.660156 209.617188 126.160156 C 209.53125 126.402344 209.300781 126.550781 209.054688 126.550781 Z M 204.523438 134.898438 C 204.398438 134.898438 204.269531 134.859375 204.160156 134.777344 C 203.898438 134.578125 203.851562 134.199219 204.050781 133.941406 C 204.972656 132.734375 205.828125 131.417969 206.578125 130.015625 C 206.738281 129.726562 207.097656 129.621094 207.386719 129.773438 C 207.679688 129.933594 207.785156 130.292969 207.628906 130.582031 C 206.847656 132.035156 205.960938 133.410156 205 134.664062 C 204.882812 134.816406 204.703125 134.898438 204.523438 134.898438 Z M 197.496094 141.269531 C 197.300781 141.269531 197.109375 141.171875 196.996094 140.996094 C 196.816406 140.722656 196.894531 140.351562 197.167969 140.171875 C 197.933594 139.671875 198.679688 139.152344 199.378906 138.625 C 199.894531 138.234375 200.40625 137.8125 200.902344 137.367188 C 201.144531 137.144531 201.523438 137.164062 201.742188 137.410156 C 201.964844 137.652344 201.945312 138.03125 201.699219 138.25 C 201.179688 138.71875 200.640625 139.164062 200.097656 139.574219 C 199.375 140.117188 198.609375 140.65625 197.820312 141.171875 C 197.71875 141.238281 197.609375 141.269531 197.496094 141.269531 " fill-opacity="1" fill-rule="nonzero"/><path fill="#99b9ff" d="M 179.851562 81.296875 C 179.828125 81.296875 179.804688 81.296875 179.78125 81.292969 C 178.265625 81.117188 176.683594 81.007812 175.078125 80.957031 C 174.746094 80.945312 174.488281 80.667969 174.5 80.34375 C 174.511719 80.011719 174.789062 79.753906 175.113281 79.765625 C 176.753906 79.816406 178.371094 79.933594 179.917969 80.109375 C 180.246094 80.144531 180.480469 80.441406 180.441406 80.765625 C 180.40625 81.070312 180.148438 81.296875 179.851562 81.296875 Z M 165.566406 81.316406 C 165.265625 81.316406 165.007812 81.085938 164.976562 80.777344 C 164.941406 80.453125 165.183594 80.160156 165.507812 80.125 C 167.136719 79.960938 168.75 79.847656 170.304688 79.785156 C 170.632812 79.78125 170.910156 80.03125 170.921875 80.359375 C 170.9375 80.6875 170.679688 80.964844 170.351562 80.976562 C 168.820312 81.039062 167.234375 81.148438 165.628906 81.3125 C 165.609375 81.3125 165.585938 81.316406 165.566406 81.316406 Z M 156.152344 82.796875 C 155.878906 82.796875 155.632812 82.609375 155.570312 82.328125 C 155.5 82.007812 155.703125 81.691406 156.027344 81.617188 C 157.5625 81.28125 159.152344 80.984375 160.746094 80.738281 C 161.074219 80.6875 161.375 80.910156 161.425781 81.234375 C 161.480469 81.558594 161.257812 81.863281 160.929688 81.914062 C 159.359375 82.160156 157.796875 82.449219 156.28125 82.78125 C 156.238281 82.792969 156.195312 82.796875 156.152344 82.796875 Z M 189.15625 83.300781 C 189.09375 83.300781 189.03125 83.289062 188.96875 83.269531 C 187.523438 82.789062 186 82.378906 184.429688 82.046875 C 184.109375 81.976562 183.90625 81.660156 183.972656 81.339844 C 184.039062 81.015625 184.355469 80.8125 184.679688 80.878906 C 186.289062 81.222656 187.859375 81.644531 189.34375 82.140625 C 189.65625 82.246094 189.824219 82.582031 189.722656 82.894531 C 189.640625 83.144531 189.40625 83.300781 189.15625 83.300781 Z M 147.007812 85.4375 C 146.765625 85.4375 146.539062 85.289062 146.449219 85.046875 C 146.339844 84.738281 146.496094 84.394531 146.808594 84.28125 C 148.292969 83.742188 149.828125 83.242188 151.375 82.796875 C 151.6875 82.703125 152.019531 82.886719 152.109375 83.203125 C 152.203125 83.519531 152.019531 83.851562 151.703125 83.941406 C 150.183594 84.378906 148.675781 84.871094 147.214844 85.402344 C 147.144531 85.425781 147.078125 85.4375 147.007812 85.4375 Z M 197.710938 87.449219 C 197.59375 87.449219 197.480469 87.414062 197.375 87.347656 C 196.109375 86.492188 194.742188 85.710938 193.316406 85.027344 C 193.019531 84.882812 192.894531 84.523438 193.035156 84.230469 C 193.179688 83.933594 193.535156 83.808594 193.832031 83.953125 C 195.308594 84.664062 196.726562 85.472656 198.042969 86.359375 C 198.316406 86.542969 198.386719 86.910156 198.203125 87.183594 C 198.089844 87.355469 197.902344 87.449219 197.710938 87.449219 Z M 138.332031 89.335938 C 138.117188 89.335938 137.914062 89.222656 137.804688 89.023438 C 137.648438 88.734375 137.757812 88.375 138.046875 88.21875 C 139.441406 87.460938 140.890625 86.746094 142.355469 86.085938 C 142.652344 85.953125 143.007812 86.085938 143.140625 86.386719 C 143.277344 86.6875 143.144531 87.039062 142.84375 87.175781 C 141.40625 87.820312 139.984375 88.523438 138.613281 89.265625 C 138.523438 89.316406 138.425781 89.335938 138.332031 89.335938 Z M 204.667969 93.90625 C 204.492188 93.90625 204.316406 93.828125 204.199219 93.675781 C 203.242188 92.457031 202.183594 91.300781 201.039062 90.242188 C 200.800781 90.019531 200.785156 89.640625 201.007812 89.398438 C 201.234375 89.15625 201.609375 89.144531 201.851562 89.367188 C 203.039062 90.46875 204.144531 91.671875 205.136719 92.945312 C 205.339844 93.203125 205.296875 93.578125 205.035156 93.78125 C 204.925781 93.863281 204.796875 93.90625 204.667969 93.90625 Z M 130.335938 94.503906 C 130.160156 94.503906 129.980469 94.421875 129.863281 94.269531 C 129.664062 94.007812 129.714844 93.632812 129.976562 93.433594 C 131.246094 92.464844 132.566406 91.539062 133.910156 90.667969 C 134.1875 90.488281 134.554688 90.570312 134.734375 90.84375 C 134.914062 91.121094 134.835938 91.492188 134.558594 91.667969 C 133.242188 92.519531 131.941406 93.433594 130.699219 94.382812 C 130.589844 94.464844 130.464844 94.503906 130.335938 94.503906 Z M 207.597656 98.460938 C 207.382812 98.460938 207.175781 98.347656 207.070312 98.140625 C 206.96875 97.953125 206.871094 97.765625 206.765625 97.574219 C 206.605469 97.285156 206.710938 96.925781 207 96.765625 C 207.289062 96.605469 207.652344 96.710938 207.808594 97 C 207.917969 97.195312 208.023438 97.394531 208.125 97.589844 C 208.277344 97.882812 208.164062 98.242188 207.875 98.394531 C 207.785156 98.441406 207.691406 98.460938 207.597656 98.460938 Z M 123.230469 100.839844 C 123.082031 100.839844 122.933594 100.785156 122.816406 100.671875 C 122.582031 100.445312 122.574219 100.066406 122.800781 99.828125 C 123.914062 98.675781 125.078125 97.550781 126.265625 96.492188 C 126.511719 96.273438 126.886719 96.296875 127.109375 96.542969 C 127.328125 96.785156 127.304688 97.164062 127.0625 97.382812 C 125.894531 98.421875 124.753906 99.523438 123.660156 100.65625 C 123.542969 100.777344 123.386719 100.839844 123.230469 100.839844 Z M 117.136719 108.160156 C 117.015625 108.160156 116.894531 108.125 116.789062 108.050781 C 116.523438 107.859375 116.460938 107.484375 116.652344 107.21875 C 117.59375 105.914062 118.582031 104.632812 119.59375 103.414062 C 119.804688 103.160156 120.179688 103.125 120.433594 103.335938 C 120.6875 103.546875 120.722656 103.921875 120.511719 104.175781 C 119.515625 105.371094 118.542969 106.628906 117.621094 107.914062 C 117.503906 108.074219 117.324219 108.160156 117.136719 108.160156 Z M 112.101562 116.257812 C 112.007812 116.257812 111.910156 116.234375 111.820312 116.1875 C 111.53125 116.03125 111.421875 115.671875 111.578125 115.378906 C 112.335938 113.960938 113.144531 112.558594 113.980469 111.214844 C 114.15625 110.933594 114.523438 110.851562 114.800781 111.023438 C 115.082031 111.199219 115.167969 111.566406 114.992188 111.84375 C 114.171875 113.164062 113.375 114.542969 112.628906 115.941406 C 112.519531 116.144531 112.3125 116.257812 112.101562 116.257812 Z M 108.109375 124.921875 C 108.039062 124.921875 107.964844 124.910156 107.894531 124.878906 C 107.585938 124.761719 107.433594 124.414062 107.554688 124.105469 C 108.140625 122.613281 108.773438 121.125 109.433594 119.683594 C 109.574219 119.386719 109.929688 119.253906 110.226562 119.390625 C 110.527344 119.53125 110.65625 119.882812 110.519531 120.179688 C 109.867188 121.605469 109.242188 123.070312 108.664062 124.542969 C 108.574219 124.777344 108.347656 124.921875 108.109375 124.921875 Z M 105.140625 133.992188 C 105.089844 133.992188 105.039062 133.984375 104.984375 133.972656 C 104.667969 133.886719 104.476562 133.5625 104.5625 133.242188 C 104.972656 131.710938 105.429688 130.160156 105.929688 128.632812 C 106.03125 128.320312 106.367188 128.148438 106.683594 128.25 C 106.996094 128.355469 107.167969 128.691406 107.0625 129.003906 C 106.570312 130.507812 106.117188 132.035156 105.714844 133.550781 C 105.644531 133.816406 105.402344 133.992188 105.140625 133.992188 Z M 103.277344 143.378906 C 103.257812 143.378906 103.238281 143.378906 103.21875 143.375 C 102.890625 143.347656 102.652344 143.054688 102.683594 142.726562 C 102.691406 142.652344 102.863281 140.882812 103.464844 137.929688 C 103.527344 137.605469 103.84375 137.398438 104.164062 137.464844 C 104.488281 137.53125 104.699219 137.84375 104.632812 138.167969 C 104.046875 141.050781 103.871094 142.824219 103.871094 142.84375 C 103.839844 143.148438 103.582031 143.378906 103.277344 143.378906 " fill-opacity="1" fill-rule="nonzero"/><path fill="#000000" d="M 262.976562 51.117188 C 262.820312 51.117188 262.667969 51.058594 262.550781 50.945312 L 261.191406 49.582031 C 260.957031 49.351562 260.957031 48.972656 261.191406 48.742188 C 261.425781 48.507812 261.800781 48.507812 262.03125 48.742188 L 263.398438 50.101562 C 263.628906 50.335938 263.628906 50.710938 263.398438 50.945312 C 263.277344 51.058594 263.128906 51.117188 262.976562 51.117188 " fill-opacity="1" fill-rule="nonzero"/><path fill="#000000" d="M 268.113281 56.257812 C 267.960938 56.257812 267.8125 56.199219 267.695312 56.082031 L 266.335938 54.722656 C 266.101562 54.488281 266.101562 54.113281 266.335938 53.882812 C 266.566406 53.648438 266.941406 53.648438 267.175781 53.882812 L 268.539062 55.242188 C 268.769531 55.472656 268.769531 55.851562 268.539062 56.082031 C 268.421875 56.199219 268.269531 56.257812 268.113281 56.257812 " fill-opacity="1" fill-rule="nonzero"/><path fill="#000000" d="M 261.613281 56.257812 C 261.460938 56.257812 261.308594 56.199219 261.191406 56.082031 C 260.957031 55.851562 260.957031 55.472656 261.191406 55.242188 L 262.550781 53.882812 C 262.785156 53.648438 263.160156 53.648438 263.394531 53.882812 C 263.625 54.113281 263.625 54.488281 263.394531 54.722656 L 262.035156 56.082031 C 261.917969 56.199219 261.765625 56.257812 261.613281 56.257812 " fill-opacity="1" fill-rule="nonzero"/><path fill="#000000" d="M 266.753906 51.117188 C 266.601562 51.117188 266.449219 51.058594 266.332031 50.945312 C 266.101562 50.710938 266.101562 50.335938 266.332031 50.101562 L 267.695312 48.742188 C 267.925781 48.507812 268.304688 48.507812 268.539062 48.742188 C 268.769531 48.972656 268.769531 49.351562 268.539062 49.582031 L 267.175781 50.945312 C 267.058594 51.058594 266.90625 51.117188 266.753906 51.117188 " fill-opacity="1" fill-rule="nonzero"/><path fill="#000000" d="M 305.277344 278.78125 C 304.949219 278.78125 304.683594 278.515625 304.683594 278.1875 L 304.683594 276.265625 C 304.683594 275.933594 304.949219 275.667969 305.277344 275.667969 C 305.609375 275.667969 305.875 275.933594 305.875 276.265625 L 305.875 278.1875 C 305.875 278.515625 305.609375 278.78125 305.277344 278.78125 " fill-opacity="1" fill-rule="nonzero"/><path fill="#000000" d="M 305.277344 286.046875 C 304.949219 286.046875 304.683594 285.78125 304.683594 285.453125 L 304.683594 283.527344 C 304.683594 283.199219 304.949219 282.933594 305.277344 282.933594 C 305.609375 282.933594 305.875 283.199219 305.875 283.527344 L 305.875 285.453125 C 305.875 285.78125 305.609375 286.046875 305.277344 286.046875 " fill-opacity="1" fill-rule="nonzero"/><path fill="#000000" d="M 302.601562 281.453125 L 300.679688 281.453125 C 300.347656 281.453125 300.082031 281.1875 300.082031 280.859375 C 300.082031 280.527344 300.347656 280.261719 300.679688 280.261719 L 302.601562 280.261719 C 302.933594 280.261719 303.199219 280.527344 303.199219 280.859375 C 303.199219 281.1875 302.933594 281.453125 302.601562 281.453125 " fill-opacity="1" fill-rule="nonzero"/><path fill="#000000" d="M 309.878906 281.453125 L 307.953125 281.453125 C 307.621094 281.453125 307.355469 281.1875 307.355469 280.859375 C 307.355469 280.527344 307.621094 280.261719 307.953125 280.261719 L 309.878906 280.261719 C 310.207031 280.261719 310.472656 280.527344 310.472656 280.859375 C 310.472656 281.1875 310.207031 281.453125 309.878906 281.453125 " fill-opacity="1" fill-rule="nonzero"/><path fill="#000000" d="M 316.917969 265.324219 C 315.769531 265.324219 314.839844 266.253906 314.839844 267.398438 C 314.839844 268.542969 315.769531 269.472656 316.917969 269.472656 C 318.058594 269.472656 318.992188 268.542969 318.992188 267.398438 C 318.992188 266.253906 318.058594 265.324219 316.917969 265.324219 Z M 316.917969 270.664062 C 315.113281 270.664062 313.648438 269.199219 313.648438 267.398438 C 313.648438 265.597656 315.113281 264.132812 316.917969 264.132812 C 318.71875 264.132812 320.183594 265.597656 320.183594 267.398438 C 320.183594 269.199219 318.71875 270.664062 316.917969 270.664062 " fill-opacity="1" fill-rule="nonzero"/><path fill="#99b9ff" d="M 319.234375 67.292969 C 319.234375 69.304688 317.605469 70.933594 315.589844 70.933594 C 313.574219 70.933594 311.941406 69.304688 311.941406 67.292969 C 311.941406 65.28125 313.574219 63.648438 315.589844 63.648438 C 317.605469 63.648438 319.234375 65.28125 319.234375 67.292969 " fill-opacity="1" fill-rule="nonzero"/><path fill="#000000" d="M 118.386719 134.753906 C 118.242188 134.753906 118.097656 134.703125 117.984375 134.597656 C 117.742188 134.378906 117.722656 134 117.945312 133.757812 L 119.238281 132.332031 C 119.457031 132.089844 119.835938 132.070312 120.078125 132.292969 C 120.324219 132.511719 120.339844 132.890625 120.121094 133.132812 L 118.828125 134.558594 C 118.707031 134.6875 118.546875 134.753906 118.386719 134.753906 " fill-opacity="1" fill-rule="nonzero"/><path fill="#000000" d="M 113.496094 140.132812 C 113.351562 140.132812 113.210938 140.082031 113.097656 139.980469 C 112.851562 139.757812 112.835938 139.378906 113.054688 139.136719 L 114.347656 137.714844 C 114.570312 137.46875 114.945312 137.453125 115.191406 137.671875 C 115.433594 137.894531 115.453125 138.269531 115.230469 138.515625 L 113.9375 139.9375 C 113.820312 140.066406 113.660156 140.132812 113.496094 140.132812 " fill-opacity="1" fill-rule="nonzero"/><path fill="#000000" d="M 114.609375 134.9375 C 114.464844 134.9375 114.320312 134.882812 114.207031 134.78125 L 112.78125 133.488281 C 112.539062 133.265625 112.519531 132.890625 112.742188 132.644531 C 112.960938 132.402344 113.339844 132.382812 113.582031 132.605469 L 115.007812 133.898438 C 115.253906 134.121094 115.269531 134.496094 115.050781 134.738281 C 114.933594 134.871094 114.769531 134.9375 114.609375 134.9375 " fill-opacity="1" fill-rule="nonzero"/><path fill="#000000" d="M 119.992188 139.820312 C 119.847656 139.820312 119.707031 139.769531 119.59375 139.667969 L 118.167969 138.371094 C 117.921875 138.152344 117.90625 137.773438 118.125 137.53125 C 118.347656 137.285156 118.722656 137.269531 118.96875 137.488281 L 120.394531 138.78125 C 120.636719 139.003906 120.65625 139.378906 120.433594 139.625 C 120.316406 139.753906 120.15625 139.820312 119.992188 139.820312 " fill-opacity="1" fill-rule="nonzero"/><path fill="#000000" d="M 337.929688 272.191406 C 336.785156 272.191406 335.855469 273.121094 335.855469 274.265625 C 335.855469 275.410156 336.785156 276.339844 337.929688 276.339844 C 339.074219 276.339844 340.003906 275.410156 340.003906 274.265625 C 340.003906 273.121094 339.074219 272.191406 337.929688 272.191406 Z M 337.929688 277.53125 C 336.125 277.53125 334.660156 276.066406 334.660156 274.265625 C 334.660156 272.464844 336.125 271 337.929688 271 C 339.730469 271 341.195312 272.464844 341.195312 274.265625 C 341.195312 276.066406 339.730469 277.53125 337.929688 277.53125 " fill-opacity="1" fill-rule="nonzero"/><path fill="#ffffff" d="M 53.523438 308.832031 L 51.371094 323.925781 L 45.867188 323.945312 L 45.605469 309.101562 L 53.523438 308.832031 " fill-opacity="1" fill-rule="nonzero"/><path fill="#000000" d="M 46.214844 309.675781 L 46.453125 323.347656 L 50.855469 323.332031 L 52.832031 309.449219 Z M 45.867188 324.542969 C 45.539062 324.542969 45.273438 324.28125 45.269531 323.957031 L 45.011719 309.109375 C 45.003906 308.785156 45.261719 308.515625 45.585938 308.503906 L 53.503906 308.234375 C 53.675781 308.226562 53.851562 308.300781 53.96875 308.433594 C 54.085938 308.5625 54.140625 308.738281 54.113281 308.914062 L 51.960938 324.011719 C 51.921875 324.304688 51.671875 324.519531 51.375 324.523438 L 45.867188 324.542969 " fill-opacity="1" fill-rule="nonzero"/><path fill="#ffffff" d="M 51.558594 338.359375 C 49.398438 338.589844 46.179688 338.683594 41.878906 338.304688 C 40.34375 338.167969 39.257812 336.746094 39.507812 335.222656 C 40.175781 331.125 42.039062 323.898438 44.972656 320.582031 L 46.425781 322.648438 L 47.285156 320.515625 C 47.425781 320.285156 51.074219 320.128906 51.148438 320.5625 L 51.371094 322.648438 L 53.445312 320.328125 L 53.328125 327.945312 C 53.316406 328.785156 53.398438 329.625 53.566406 330.453125 L 54.113281 333.085938 C 54.4375 334.667969 54.035156 336.347656 52.925781 337.527344 C 52.492188 337.988281 52.011719 338.3125 51.558594 338.359375 " fill-opacity="1" fill-rule="nonzero"/><path fill="#000000" d="M 44.9375 321.570312 C 42.328125 325.058594 40.679688 331.742188 40.097656 335.320312 C 40.003906 335.890625 40.152344 336.476562 40.507812 336.933594 C 40.859375 337.386719 41.363281 337.660156 41.933594 337.710938 C 46.515625 338.113281 49.660156 337.964844 51.496094 337.769531 C 51.769531 337.738281 52.132812 337.503906 52.492188 337.121094 C 53.4375 336.113281 53.824219 334.648438 53.527344 333.203125 L 52.984375 330.570312 C 52.804688 329.707031 52.722656 328.820312 52.734375 327.9375 L 52.824219 321.917969 L 51.816406 323.046875 C 51.660156 323.222656 51.414062 323.289062 51.1875 323.21875 C 50.964844 323.144531 50.804688 322.945312 50.777344 322.710938 L 50.589844 320.945312 C 49.964844 320.84375 48.351562 320.878906 47.738281 320.984375 L 46.976562 322.871094 C 46.894531 323.074219 46.710938 323.214844 46.492188 323.238281 C 46.277344 323.265625 46.0625 323.167969 45.9375 322.992188 Z M 51.558594 338.359375 L 51.5625 338.359375 Z M 47.375 339.15625 C 45.828125 339.15625 43.980469 339.085938 41.828125 338.898438 C 40.925781 338.820312 40.121094 338.382812 39.566406 337.664062 C 39.007812 336.949219 38.773438 336.023438 38.917969 335.128906 C 39.09375 334.046875 40.746094 324.460938 44.527344 320.1875 C 44.648438 320.050781 44.828125 319.980469 45.007812 319.988281 C 45.191406 320 45.355469 320.089844 45.460938 320.242188 L 46.28125 321.40625 L 46.734375 320.292969 C 46.746094 320.261719 46.757812 320.234375 46.773438 320.207031 C 47.214844 319.476562 50.640625 319.746094 50.855469 319.785156 C 51.050781 319.824219 51.644531 319.933594 51.738281 320.460938 C 51.742188 320.476562 51.742188 320.488281 51.742188 320.5 L 51.824219 321.25 L 53 319.933594 C 53.164062 319.746094 53.429688 319.683594 53.660156 319.773438 C 53.890625 319.863281 54.042969 320.089844 54.039062 320.339844 L 53.925781 327.957031 C 53.914062 328.75 53.988281 329.550781 54.152344 330.328125 L 54.695312 332.964844 C 55.070312 334.785156 54.574219 336.644531 53.359375 337.9375 C 52.792969 338.539062 52.191406 338.890625 51.621094 338.953125 C 50.605469 339.0625 49.195312 339.15625 47.375 339.15625 " fill-opacity="1" fill-rule="nonzero"/><path fill="#000000" d="M 47.621094 336.460938 C 46.101562 336.460938 44.21875 336.347656 42.085938 335.972656 C 41.761719 335.914062 41.546875 335.605469 41.601562 335.28125 C 41.660156 334.957031 41.96875 334.742188 42.292969 334.796875 C 47.570312 335.726562 51.347656 334.988281 51.386719 334.980469 C 51.707031 334.917969 52.023438 335.125 52.089844 335.445312 C 52.152344 335.769531 51.945312 336.085938 51.625 336.148438 C 51.523438 336.167969 50.03125 336.460938 47.621094 336.460938 " fill-opacity="1" fill-rule="nonzero"/><path fill="#000000" d="M 49.382812 330.675781 L 44.386719 330.675781 C 44.058594 330.675781 43.789062 330.40625 43.789062 330.078125 C 43.789062 329.75 44.058594 329.484375 44.386719 329.484375 L 49.382812 329.484375 C 49.710938 329.484375 49.976562 329.75 49.976562 330.078125 C 49.976562 330.40625 49.710938 330.675781 49.382812 330.675781 " fill-opacity="1" fill-rule="nonzero"/><path fill="#ffffff" d="M 93.046875 310.179688 L 94.984375 327.773438 L 102.390625 329.324219 L 101.9375 308.691406 L 93.046875 310.179688 " fill-opacity="1" fill-rule="nonzero"/><path fill="#000000" d="M 95.527344 327.277344 L 101.777344 328.585938 L 101.359375 309.390625 L 93.699219 310.671875 Z M 102.390625 329.917969 C 102.347656 329.917969 102.308594 329.914062 102.269531 329.90625 L 94.859375 328.355469 C 94.609375 328.304688 94.417969 328.09375 94.390625 327.839844 L 92.453125 310.242188 C 92.417969 309.929688 92.636719 309.644531 92.949219 309.589844 L 101.839844 308.105469 C 102.011719 308.074219 102.1875 308.125 102.320312 308.234375 C 102.453125 308.34375 102.53125 308.507812 102.535156 308.675781 L 102.984375 329.308594 C 102.988281 329.492188 102.910156 329.664062 102.769531 329.78125 C 102.664062 329.871094 102.527344 329.917969 102.390625 329.917969 " fill-opacity="1" fill-rule="nonzero"/><path fill="#ffffff" d="M 91.851562 336.164062 C 91.6875 333.082031 91.683594 327.402344 93.5625 324.664062 L 99.488281 326.773438 L 99.488281 325.507812 C 99.488281 325.101562 99.777344 324.765625 100.148438 324.742188 L 103.453125 324.554688 C 104.6875 324.484375 105.917969 324.738281 107.042969 325.292969 C 110.367188 326.921875 120.472656 331.109375 121.875 335.816406 C 122.289062 337.207031 121.203125 338.59375 119.75 338.636719 C 116.425781 338.730469 108.429688 338.835938 94.074219 338.34375 C 92.878906 338.304688 91.914062 337.355469 91.851562 336.164062 " fill-opacity="1" fill-rule="nonzero"/><path fill="#000000" d="M 93.816406 325.386719 C 92.6875 327.410156 92.1875 331.273438 92.445312 336.132812 C 92.492188 337.023438 93.203125 337.71875 94.097656 337.75 C 108.289062 338.234375 116.253906 338.136719 119.734375 338.039062 C 120.257812 338.023438 120.753906 337.761719 121.0625 337.335938 C 121.351562 336.9375 121.4375 336.445312 121.304688 335.988281 C 120.144531 332.101562 112.113281 328.335938 108.25 326.523438 C 107.679688 326.257812 107.179688 326.023438 106.78125 325.828125 C 105.75 325.320312 104.609375 325.085938 103.488281 325.148438 L 100.183594 325.339844 C 100.144531 325.339844 100.085938 325.410156 100.085938 325.507812 L 100.085938 326.773438 C 100.085938 326.96875 99.988281 327.148438 99.832031 327.257812 C 99.671875 327.371094 99.46875 327.398438 99.289062 327.335938 Z M 113.125 339.3125 C 108.710938 339.3125 102.476562 339.226562 94.054688 338.9375 C 92.539062 338.890625 91.335938 337.707031 91.253906 336.195312 C 91.085938 332.996094 91.097656 327.203125 93.070312 324.328125 C 93.222656 324.105469 93.507812 324.011719 93.761719 324.105469 L 98.890625 325.929688 L 98.890625 325.507812 C 98.890625 324.785156 99.429688 324.1875 100.117188 324.148438 L 103.421875 323.960938 C 104.746094 323.882812 106.089844 324.160156 107.304688 324.757812 C 107.703125 324.953125 108.195312 325.183594 108.757812 325.445312 C 113.082031 327.472656 121.136719 331.25 122.445312 335.648438 C 122.6875 336.460938 122.535156 337.332031 122.027344 338.035156 C 121.503906 338.757812 120.660156 339.203125 119.769531 339.230469 C 118.34375 339.269531 116.167969 339.3125 113.125 339.3125 " fill-opacity="1" fill-rule="nonzero"/><path fill="#000000" d="M 110.828125 336.386719 C 106.621094 336.386719 100.933594 336.203125 94.722656 335.484375 C 94.398438 335.445312 94.164062 335.148438 94.199219 334.824219 C 94.238281 334.496094 94.535156 334.265625 94.859375 334.300781 C 107.476562 335.761719 117.886719 335 117.992188 334.992188 C 118.320312 334.96875 118.605469 335.214844 118.632812 335.539062 C 118.65625 335.867188 118.410156 336.15625 118.082031 336.179688 C 118.027344 336.183594 115.242188 336.386719 110.828125 336.386719 " fill-opacity="1" fill-rule="nonzero"/><path fill="#000000" d="M 108.992188 331.351562 C 108.871094 331.351562 108.75 331.316406 108.644531 331.238281 L 102.9375 327.140625 C 102.671875 326.949219 102.609375 326.574219 102.804688 326.308594 C 102.996094 326.039062 103.367188 325.980469 103.636719 326.171875 L 109.339844 330.273438 C 109.605469 330.464844 109.667969 330.835938 109.476562 331.105469 C 109.359375 331.265625 109.175781 331.351562 108.992188 331.351562 " fill-opacity="1" fill-rule="nonzero"/><path fill="#000000" d="M 94.070312 188.628906 C 94.070312 188.628906 105.972656 268.792969 103.710938 317.367188 L 100.398438 317.695312 C 98.617188 317.875 96.824219 317.917969 95.039062 317.828125 L 91.898438 317.671875 C 77.78125 235.414062 74.199219 231.527344 71.453125 222.464844 C 71.453125 222.464844 55.71875 297.25 55.054688 315.027344 C 55.054688 315.027344 47.414062 315.792969 44.367188 314.699219 C 42.730469 297.542969 42.257812 279.78125 42.175781 268.636719 C 41.941406 236.726562 44.992188 222.234375 46.667969 215.355469 C 48.203125 209.042969 49.851562 203.910156 51.054688 200.441406 L 55.074219 188.980469 L 94.070312 188.628906 " fill-opacity="1" fill-rule="nonzero"/><path fill="#caddff" d="M 71.472656 225.617188 C 71.433594 225.617188 71.394531 225.613281 71.355469 225.605469 C 71.03125 225.542969 70.820312 225.230469 70.882812 224.910156 L 72.632812 215.925781 C 72.636719 215.914062 72.640625 215.898438 72.644531 215.882812 C 73.183594 213.929688 74.75 212.460938 76.734375 212.050781 L 78.390625 211.710938 C 78.710938 211.640625 79.027344 211.851562 79.09375 212.171875 C 79.160156 212.496094 78.953125 212.808594 78.628906 212.875 L 76.976562 213.21875 C 75.4375 213.535156 74.222656 214.667969 73.800781 216.179688 L 72.054688 225.136719 C 72 225.421875 71.75 225.617188 71.472656 225.617188 " fill-opacity="1" fill-rule="nonzero"/><path fill="#caddff" d="M 50.488281 211.09375 C 50.203125 211.09375 49.949219 210.890625 49.902344 210.597656 C 49.847656 210.273438 50.066406 209.964844 50.390625 209.910156 C 57.605469 208.710938 60.257812 204.035156 61.0625 202.082031 C 61.1875 201.777344 61.535156 201.632812 61.839844 201.757812 C 62.144531 201.882812 62.289062 202.230469 62.164062 202.535156 C 61.28125 204.671875 58.394531 209.785156 50.585938 211.085938 C 50.554688 211.089844 50.519531 211.09375 50.488281 211.09375 " fill-opacity="1" fill-rule="nonzero"/><path fill="#caddff" d="M 93.949219 206.3125 C 93.871094 206.3125 93.789062 206.296875 93.710938 206.261719 C 87.941406 203.757812 87.273438 198.65625 87.246094 198.441406 C 87.207031 198.113281 87.441406 197.816406 87.765625 197.78125 C 88.09375 197.742188 88.390625 197.972656 88.429688 198.300781 C 88.453125 198.496094 89.070312 202.949219 94.1875 205.167969 C 94.488281 205.300781 94.628906 205.652344 94.496094 205.953125 C 94.398438 206.179688 94.179688 206.3125 93.949219 206.3125 " fill-opacity="1" fill-rule="nonzero"/><path fill="#5479f7" d="M 84.523438 123.132812 C 77.457031 123.296875 62.414062 123.914062 52.324219 126.242188 C 49.277344 126.941406 45.082031 129.433594 43.015625 131.773438 C 36.917969 138.671875 25.675781 153.570312 25.648438 169.609375 C 25.640625 171.949219 27.445312 173.898438 29.777344 174.09375 L 42.1875 175.117188 C 42.1875 175.117188 39.964844 194.679688 40.796875 197.890625 C 41.628906 201.105469 52.335938 205.300781 64.15625 199.050781 C 73.371094 194.171875 85.15625 188.746094 94.292969 190.621094 C 94.378906 190.640625 95.289062 197.722656 95.375 197.722656 C 98.230469 197.75 103.304688 196.503906 102.703125 192.582031 L 98.585938 172.347656 L 114.257812 168.066406 L 115.621094 167.398438 C 119.738281 165.375 121.316406 160.316406 119.078125 156.316406 C 114.027344 147.289062 106.261719 132.625 94.621094 125.527344 C 92.128906 124.007812 87.441406 123.0625 84.523438 123.132812 " fill-opacity="1" fill-rule="nonzero"/><path fill="#000000" d="M 100.183594 194.078125 C 100.054688 194.078125 99.925781 194.035156 99.816406 193.949219 C 98.175781 192.648438 94.890625 191.789062 93.078125 191.589844 C 92.75 191.554688 92.511719 191.261719 92.550781 190.933594 C 92.585938 190.609375 92.882812 190.371094 93.207031 190.40625 C 95.027344 190.605469 98.628906 191.488281 100.554688 193.015625 C 100.8125 193.21875 100.855469 193.59375 100.652344 193.851562 C 100.535156 194 100.359375 194.078125 100.183594 194.078125 " fill-opacity="1" fill-rule="nonzero"/><path fill="#ffffff" d="M 85.71875 187.429688 L 110.65625 184.035156 C 111.742188 183.882812 112.582031 183.019531 112.699219 181.933594 L 116.582031 145.992188 C 116.75 144.457031 115.429688 143.171875 113.898438 143.382812 L 88.957031 146.78125 C 87.875 146.929688 87.03125 147.792969 86.914062 148.882812 L 83.03125 184.820312 C 82.863281 186.355469 84.1875 187.640625 85.71875 187.429688 " fill-opacity="1" fill-rule="nonzero"/><path fill="#000000" d="M 114.222656 143.957031 C 114.140625 143.957031 114.058594 143.960938 113.976562 143.972656 L 89.039062 147.371094 C 88.222656 147.480469 87.59375 148.128906 87.507812 148.945312 L 83.625 184.886719 C 83.5625 185.433594 83.757812 185.96875 84.152344 186.355469 C 84.546875 186.738281 85.089844 186.917969 85.636719 186.839844 L 110.574219 183.441406 C 111.390625 183.332031 112.019531 182.683594 112.109375 181.867188 L 115.992188 145.929688 C 116.050781 145.378906 115.855469 144.84375 115.460938 144.460938 C 115.125 144.132812 114.683594 143.957031 114.222656 143.957031 Z M 85.386719 188.050781 C 84.621094 188.050781 83.882812 187.753906 83.320312 187.207031 C 82.660156 186.566406 82.339844 185.671875 82.4375 184.757812 L 86.320312 148.816406 C 86.46875 147.457031 87.519531 146.375 88.875 146.191406 L 113.816406 142.792969 C 114.730469 142.667969 115.632812 142.964844 116.292969 143.605469 C 116.953125 144.246094 117.273438 145.140625 117.175781 146.054688 L 113.292969 181.996094 C 113.144531 183.355469 112.09375 184.4375 110.738281 184.625 L 85.796875 188.023438 C 85.660156 188.039062 85.523438 188.050781 85.386719 188.050781 " fill-opacity="1" fill-rule="nonzero"/><path fill="#99b9ff" d="M 103.300781 166.027344 C 102.894531 168.328125 100.996094 169.917969 99.066406 169.578125 C 97.136719 169.238281 95.902344 167.09375 96.3125 164.789062 C 96.722656 162.484375 98.617188 160.894531 100.546875 161.234375 C 102.476562 161.578125 103.710938 163.722656 103.300781 166.027344 " fill-opacity="1" fill-rule="nonzero"/><path fill="#ffffff" d="M 114.683594 160.910156 L 114.324219 164.53125 L 111.171875 163.941406 C 109.4375 163.613281 107.742188 163.09375 106.121094 162.390625 L 104.246094 161.578125 C 102.847656 160.972656 101.253906 161.8125 100.945312 163.304688 C 100.292969 166.472656 101.195312 171.515625 112.492188 173.214844 C 118.722656 174.15625 119.394531 166.25 118.035156 162.089844 C 117.6875 161.027344 117.058594 160.40625 116.449219 160.042969 C 115.71875 159.605469 114.78125 160.066406 114.683594 160.910156 " fill-opacity="1" fill-rule="nonzero"/><path fill="#000000" d="M 103.296875 161.976562 C 103.011719 161.976562 102.730469 162.042969 102.472656 162.179688 C 101.984375 162.429688 101.640625 162.886719 101.53125 163.425781 C 101.175781 165.152344 101.460938 166.699219 102.378906 168.015625 C 103.96875 170.292969 107.402344 171.84375 112.578125 172.625 C 114.246094 172.878906 115.5625 172.449219 116.492188 171.351562 C 118.273438 169.25 118.386719 165.085938 117.46875 162.277344 C 117.21875 161.511719 116.769531 160.929688 116.140625 160.550781 C 115.972656 160.449219 115.769531 160.441406 115.59375 160.53125 C 115.414062 160.617188 115.300781 160.78125 115.277344 160.976562 L 114.917969 164.589844 C 114.902344 164.757812 114.816406 164.910156 114.683594 165.007812 C 114.546875 165.109375 114.378906 165.152344 114.214844 165.117188 L 111.0625 164.527344 C 109.285156 164.191406 107.542969 163.65625 105.882812 162.9375 L 104.007812 162.125 C 103.78125 162.027344 103.539062 161.976562 103.296875 161.976562 Z M 113.460938 173.886719 C 113.121094 173.886719 112.765625 173.859375 112.402344 173.804688 C 106.886719 172.972656 103.1875 171.253906 101.402344 168.695312 C 100.304688 167.121094 99.945312 165.21875 100.363281 163.183594 C 100.546875 162.292969 101.117188 161.539062 101.921875 161.121094 C 102.722656 160.707031 103.65625 160.671875 104.484375 161.03125 L 106.355469 161.84375 C 107.933594 162.527344 109.59375 163.035156 111.28125 163.355469 L 113.796875 163.828125 L 114.089844 160.851562 C 114.089844 160.847656 114.089844 160.84375 114.089844 160.839844 C 114.160156 160.246094 114.523438 159.726562 115.066406 159.460938 C 115.605469 159.195312 116.238281 159.21875 116.753906 159.53125 C 117.636719 160.058594 118.261719 160.859375 118.601562 161.90625 C 119.605469 164.984375 119.53125 169.613281 117.402344 172.121094 C 116.414062 173.285156 115.066406 173.886719 113.460938 173.886719 " fill-opacity="1" fill-rule="nonzero"/><path fill="#ffffff" d="M 54.257812 148.648438 C 53.1875 150.09375 51.917969 151.382812 50.484375 152.476562 C 45.65625 156.167969 34.132812 165.082031 31.382812 168.164062 C 27.882812 172.089844 26.15625 173.609375 30.53125 181.882812 C 37.664062 195.363281 56.902344 155.632812 56.902344 155.632812 C 56.902344 155.632812 64.191406 155.949219 64.9375 149.507812 C 64.9375 149.507812 68.738281 149.695312 70.195312 148.816406 C 71.308594 148.140625 70.984375 146.140625 69.371094 146.132812 L 58.882812 145.625 C 57.4375 145.5625 56.058594 146.21875 55.199219 147.382812 L 54.257812 148.648438 " fill-opacity="1" fill-rule="nonzero"/><path fill="#000000" d="M 54.738281 149.003906 C 53.632812 150.492188 52.324219 151.820312 50.847656 152.949219 C 46.035156 156.628906 34.542969 165.523438 31.828125 168.5625 L 31.519531 168.90625 C 28.328125 172.472656 27.007812 173.945312 31.058594 181.601562 C 31.953125 183.292969 33.042969 184.101562 34.359375 184.078125 C 41.066406 183.960938 52.519531 163.316406 56.367188 155.375 C 56.472656 155.160156 56.679688 155.03125 56.929688 155.039062 C 57.199219 155.050781 63.671875 155.246094 64.347656 149.4375 C 64.382812 149.125 64.675781 148.894531 64.96875 148.910156 C 65.976562 148.960938 68.824219 148.949219 69.886719 148.304688 C 70.238281 148.09375 70.308594 147.65625 70.21875 147.339844 C 70.167969 147.15625 69.984375 146.730469 69.371094 146.730469 L 58.851562 146.21875 C 57.613281 146.167969 56.421875 146.734375 55.675781 147.734375 Z M 34.300781 185.269531 C 32.542969 185.269531 31.097656 184.222656 30.003906 182.160156 C 25.566406 173.769531 27.257812 171.878906 30.628906 168.113281 L 30.9375 167.769531 C 33.71875 164.652344 45.28125 155.703125 50.121094 152.003906 C 51.507812 150.941406 52.742188 149.691406 53.78125 148.292969 L 54.71875 147.027344 C 55.699219 145.707031 57.261719 144.960938 58.90625 145.027344 L 69.402344 145.539062 C 70.335938 145.542969 71.117188 146.125 71.367188 147.019531 C 71.617188 147.917969 71.261719 148.867188 70.503906 149.324219 C 69.234375 150.09375 66.617188 150.140625 65.453125 150.117188 C 64.46875 155.613281 58.839844 156.179688 57.277344 156.226562 C 55.605469 159.625 42.78125 185.121094 34.382812 185.269531 C 34.355469 185.269531 34.328125 185.269531 34.300781 185.269531 " fill-opacity="1" fill-rule="nonzero"/><path fill="#ffffff" d="M 75.917969 123.113281 L 75.421875 118.347656 C 75.449219 117.761719 75.839844 117.261719 76.398438 117.105469 L 80.59375 115.960938 C 81.128906 115.808594 81.496094 115.316406 81.496094 114.757812 L 81.492188 109.675781 L 83.1875 108.363281 C 83.320312 108.257812 83.347656 108.066406 83.25 107.933594 L 80.898438 104.695312 C 80.136719 103.484375 79.476562 100.652344 78.78125 100.800781 C 78.78125 100.800781 63.445312 97.613281 62.289062 104.824219 C 62.125 105.867188 62.375 106.9375 62.9375 107.832031 L 64.109375 109.707031 C 65.285156 111.589844 65.550781 120.042969 65.027344 121.96875 C 64.726562 123.066406 64.046875 124.015625 63.101562 124.648438 C 61.917969 125.441406 60.472656 126.460938 60.691406 126.542969 C 60.691406 126.542969 62.222656 127.8125 64.691406 129.007812 C 69.078125 131.128906 74.980469 129.285156 79.148438 126.746094 C 79.148438 126.746094 75.804688 124.351562 75.917969 123.113281 " fill-opacity="1" fill-rule="nonzero"/><path fill="#000000" d="M 61.566406 126.460938 C 62.195312 126.917969 63.382812 127.714844 64.953125 128.472656 C 68.890625 130.375 74.167969 128.863281 78.074219 126.683594 C 76.960938 125.800781 75.285156 124.28125 75.320312 123.128906 L 74.828125 118.410156 C 74.824219 118.378906 74.824219 118.347656 74.824219 118.320312 C 74.863281 117.480469 75.429688 116.757812 76.238281 116.53125 L 80.4375 115.382812 C 80.707031 115.308594 80.902344 115.050781 80.902344 114.757812 L 80.894531 109.675781 C 80.894531 109.492188 80.980469 109.320312 81.125 109.207031 L 82.605469 108.058594 L 80.414062 105.046875 C 80.40625 105.035156 80.398438 105.023438 80.390625 105.015625 C 80.074219 104.507812 79.789062 103.785156 79.511719 103.089844 C 79.28125 102.503906 78.941406 101.640625 78.722656 101.394531 C 78.703125 101.390625 78.683594 101.386719 78.660156 101.382812 C 78.5625 101.363281 68.773438 99.378906 64.605469 102.25 C 63.625 102.925781 63.058594 103.796875 62.878906 104.917969 C 62.738281 105.789062 62.941406 106.714844 63.441406 107.519531 L 64.613281 109.390625 C 65.921875 111.484375 66.152344 120.101562 65.601562 122.125 C 65.265625 123.359375 64.496094 124.429688 63.4375 125.140625 C 62.4375 125.8125 61.878906 126.21875 61.566406 126.460938 Z M 69.035156 130.527344 C 67.425781 130.527344 65.855469 130.230469 64.433594 129.542969 C 61.929688 128.332031 60.375 127.058594 60.3125 127.003906 C 60.183594 126.898438 60.09375 126.742188 60.078125 126.585938 C 60.035156 126.199219 60.011719 126.003906 62.769531 124.152344 C 63.59375 123.597656 64.191406 122.769531 64.449219 121.816406 C 64.96875 119.90625 64.644531 111.6875 63.601562 110.023438 L 62.429688 108.148438 C 61.777344 107.101562 61.515625 105.886719 61.703125 104.730469 C 61.933594 103.289062 62.683594 102.125 63.929688 101.265625 C 68.332031 98.234375 77.683594 99.972656 78.804688 100.195312 C 79.640625 100.148438 80.074219 101.261719 80.621094 102.652344 C 80.875 103.289062 81.136719 103.953125 81.390625 104.367188 L 83.730469 107.582031 C 84.023438 107.980469 83.945312 108.527344 83.554688 108.832031 L 82.085938 109.96875 L 82.09375 114.753906 C 82.09375 115.578125 81.542969 116.308594 80.753906 116.53125 L 76.558594 117.679688 C 76.261719 117.761719 76.046875 118.023438 76.019531 118.335938 L 76.511719 123.054688 C 76.515625 123.089844 76.515625 123.128906 76.511719 123.167969 C 76.46875 123.636719 77.894531 125.113281 79.496094 126.261719 C 79.660156 126.378906 79.753906 126.570312 79.746094 126.769531 C 79.738281 126.96875 79.632812 127.152344 79.460938 127.253906 C 76.53125 129.039062 72.671875 130.527344 69.035156 130.527344 " fill-opacity="1" fill-rule="nonzero"/><path fill="#000000" d="M 79.949219 89.792969 C 76.65625 89.417969 80.621094 93.054688 68.605469 88.808594 C 63.820312 87.117188 65.972656 92.945312 64.730469 92.507812 C 60.140625 90.902344 60.300781 90.953125 57.992188 91.425781 C 56.464844 91.742188 55.332031 94.472656 55.5 96.570312 C 55.726562 99.335938 58.558594 103.882812 61.046875 108.664062 C 62.339844 111.136719 64.871094 111.507812 68.167969 108.148438 C 68.519531 107.792969 66.984375 105.464844 67.917969 104.558594 C 70.34375 102.207031 71.121094 106.035156 73.027344 104.984375 C 74.855469 103.980469 75.628906 103.300781 77.59375 101.730469 C 79.972656 99.824219 83.558594 103.238281 85.144531 98.722656 C 85.972656 96.367188 84.453125 90.300781 79.949219 89.792969 " fill-opacity="1" fill-rule="nonzero"/></svg>