<svg xmlns="http://www.w3.org/2000/svg" xmlns:xlink="http://www.w3.org/1999/xlink" width="500" zoomAndPan="magnify" viewBox="0 0 375 374.999991" height="500" preserveAspectRatio="xMidYMid meet" version="1.0"><defs><clipPath id="adf7f2f32c"><path d="M 0 211 L 366 211 L 366 362.03125 L 0 362.03125 Z M 0 211 " clip-rule="nonzero"/></clipPath><clipPath id="01be4481b6"><path d="M 256.089844 12.761719 L 375 12.761719 L 375 273.605469 L 256.089844 273.605469 Z M 256.089844 12.761719 " clip-rule="nonzero"/></clipPath><clipPath id="8cb26509b8"><path d="M 350.695312 63.300781 L 375 63.300781 L 375 87.757812 L 350.695312 87.757812 Z M 350.695312 63.300781 " clip-rule="nonzero"/></clipPath><clipPath id="ea0a45ccec"><path d="M 286 124.4375 L 291.160156 124.4375 L 291.160156 133 L 286 133 Z M 286 124.4375 " clip-rule="nonzero"/></clipPath><clipPath id="abf2c0f923"><path d="M 321.703125 127.992188 C 321.703125 139.667969 312.238281 143.664062 300.554688 136.925781 C 288.875 130.1875 279.40625 115.261719 279.40625 103.585938 C 279.40625 91.910156 288.875 87.910156 300.554688 94.652344 C 312.238281 101.390625 321.703125 116.316406 321.703125 127.992188 " clip-rule="nonzero"/></clipPath><clipPath id="3dedc1ea82"><path d="M 285.449219 119 L 296.867188 119 L 296.867188 132.589844 L 285.449219 132.589844 Z M 285.449219 119 " clip-rule="nonzero"/></clipPath><clipPath id="148af45705"><path d="M 321.703125 127.992188 C 321.703125 139.667969 312.238281 143.664062 300.554688 136.925781 C 288.875 130.1875 279.40625 115.261719 279.40625 103.585938 C 279.40625 91.910156 288.875 87.910156 300.554688 94.652344 C 312.238281 101.390625 321.703125 116.316406 321.703125 127.992188 " clip-rule="nonzero"/></clipPath><clipPath id="d2a807317f"><path d="M 310 137.480469 L 315.625 137.480469 L 315.625 140.738281 L 310 140.738281 Z M 310 137.480469 " clip-rule="nonzero"/></clipPath><clipPath id="40a0ff0591"><path d="M 321.703125 127.992188 C 321.703125 139.667969 312.238281 143.664062 300.554688 136.925781 C 288.875 130.1875 279.40625 115.261719 279.40625 103.585938 C 279.40625 91.910156 288.875 87.910156 300.554688 94.652344 C 312.238281 101.390625 321.703125 116.316406 321.703125 127.992188 " clip-rule="nonzero"/></clipPath><clipPath id="0532dd1076"><path d="M 304.207031 125.253906 L 315.625 125.253906 L 315.625 140.738281 L 304.207031 140.738281 Z M 304.207031 125.253906 " clip-rule="nonzero"/></clipPath><clipPath id="fc58d5ee0a"><path d="M 321.703125 127.992188 C 321.703125 139.667969 312.238281 143.664062 300.554688 136.925781 C 288.875 130.1875 279.40625 115.261719 279.40625 103.585938 C 279.40625 91.910156 288.875 87.910156 300.554688 94.652344 C 312.238281 101.390625 321.703125 116.316406 321.703125 127.992188 " clip-rule="nonzero"/></clipPath><clipPath id="341d385255"><path d="M 292 121.175781 L 309.101562 121.175781 L 309.101562 140.738281 L 292 140.738281 Z M 292 121.175781 " clip-rule="nonzero"/></clipPath><clipPath id="e539cca9ea"><path d="M 321.703125 127.992188 C 321.703125 139.667969 312.238281 143.664062 300.554688 136.925781 C 288.875 130.1875 279.40625 115.261719 279.40625 103.585938 C 279.40625 91.910156 288.875 87.910156 300.554688 94.652344 C 312.238281 101.390625 321.703125 116.316406 321.703125 127.992188 " clip-rule="nonzero"/></clipPath><clipPath id="5a1e08a9b1"><path d="M 293 105.6875 L 296.867188 105.6875 L 296.867188 111 L 293 111 Z M 293 105.6875 " clip-rule="nonzero"/></clipPath><clipPath id="68f9b9d297"><path d="M 321.703125 127.992188 C 321.703125 139.667969 312.238281 143.664062 300.554688 136.925781 C 288.875 130.1875 279.40625 115.261719 279.40625 103.585938 C 279.40625 91.910156 288.875 87.910156 300.554688 94.652344 C 312.238281 101.390625 321.703125 116.316406 321.703125 127.992188 " clip-rule="nonzero"/></clipPath><clipPath id="cc519c4f1c"><path d="M 293.605469 106.503906 L 296.050781 106.503906 L 296.050781 109.765625 L 293.605469 109.765625 Z M 293.605469 106.503906 " clip-rule="nonzero"/></clipPath><clipPath id="33781be091"><path d="M 321.703125 127.992188 C 321.703125 139.667969 312.238281 143.664062 300.554688 136.925781 C 288.875 130.1875 279.40625 115.261719 279.40625 103.585938 C 279.40625 91.910156 288.875 87.910156 300.554688 94.652344 C 312.238281 101.390625 321.703125 116.316406 321.703125 127.992188 " clip-rule="nonzero"/></clipPath><clipPath id="4aea9a818e"><path d="M 304.207031 112.210938 L 308.285156 112.210938 L 308.285156 117 L 304.207031 117 Z M 304.207031 112.210938 " clip-rule="nonzero"/></clipPath><clipPath id="165c8ec3d7"><path d="M 321.703125 127.992188 C 321.703125 139.667969 312.238281 143.664062 300.554688 136.925781 C 288.875 130.1875 279.40625 115.261719 279.40625 103.585938 C 279.40625 91.910156 288.875 87.910156 300.554688 94.652344 C 312.238281 101.390625 321.703125 116.316406 321.703125 127.992188 " clip-rule="nonzero"/></clipPath><clipPath id="b9728a5d8f"><path d="M 305.023438 113.023438 L 307.46875 113.023438 L 307.46875 116.285156 L 305.023438 116.285156 Z M 305.023438 113.023438 " clip-rule="nonzero"/></clipPath><clipPath id="93f38eeaa1"><path d="M 321.703125 127.992188 C 321.703125 139.667969 312.238281 143.664062 300.554688 136.925781 C 288.875 130.1875 279.40625 115.261719 279.40625 103.585938 C 279.40625 91.910156 288.875 87.910156 300.554688 94.652344 C 312.238281 101.390625 321.703125 116.316406 321.703125 127.992188 " clip-rule="nonzero"/></clipPath><clipPath id="7de6ec9b59"><path d="M 294 102.429688 L 296 102.429688 L 296 109.765625 L 294 109.765625 Z M 294 102.429688 " clip-rule="nonzero"/></clipPath><clipPath id="ac139e07b8"><path d="M 321.703125 127.992188 C 321.703125 139.667969 312.238281 143.664062 300.554688 136.925781 C 288.875 130.1875 279.40625 115.261719 279.40625 103.585938 C 279.40625 91.910156 288.875 87.910156 300.554688 94.652344 C 312.238281 101.390625 321.703125 116.316406 321.703125 127.992188 " clip-rule="nonzero"/></clipPath><clipPath id="c4c8f3a035"><path d="M 305.023438 109 L 307.46875 109 L 307.46875 115 L 305.023438 115 Z M 305.023438 109 " clip-rule="nonzero"/></clipPath><clipPath id="d5e1631429"><path d="M 321.703125 127.992188 C 321.703125 139.667969 312.238281 143.664062 300.554688 136.925781 C 288.875 130.1875 279.40625 115.261719 279.40625 103.585938 C 279.40625 91.910156 288.875 87.910156 300.554688 94.652344 C 312.238281 101.390625 321.703125 116.316406 321.703125 127.992188 " clip-rule="nonzero"/></clipPath><clipPath id="9645f17eb7"><path d="M 298 116 L 303.394531 116 L 303.394531 125 L 298 125 Z M 298 116 " clip-rule="nonzero"/></clipPath><clipPath id="9a2efc63e4"><path d="M 321.703125 127.992188 C 321.703125 139.667969 312.238281 143.664062 300.554688 136.925781 C 288.875 130.1875 279.40625 115.261719 279.40625 103.585938 C 279.40625 91.910156 288.875 87.910156 300.554688 94.652344 C 312.238281 101.390625 321.703125 116.316406 321.703125 127.992188 " clip-rule="nonzero"/></clipPath><clipPath id="80122f09bb"><path d="M 298 116 L 303.394531 116 L 303.394531 122 L 298 122 Z M 298 116 " clip-rule="nonzero"/></clipPath><clipPath id="afb22e939f"><path d="M 321.703125 127.992188 C 321.703125 139.667969 312.238281 143.664062 300.554688 136.925781 C 288.875 130.1875 279.40625 115.261719 279.40625 103.585938 C 279.40625 91.910156 288.875 87.910156 300.554688 94.652344 C 312.238281 101.390625 321.703125 116.316406 321.703125 127.992188 " clip-rule="nonzero"/></clipPath><clipPath id="c09afcc72f"><path d="M 294.421875 102 L 306.65625 102 L 306.65625 121.992188 L 294.421875 121.992188 Z M 294.421875 102 " clip-rule="nonzero"/></clipPath><clipPath id="38a881b874"><path d="M 321.703125 127.992188 C 321.703125 139.667969 312.238281 143.664062 300.554688 136.925781 C 288.875 130.1875 279.40625 115.261719 279.40625 103.585938 C 279.40625 91.910156 288.875 87.910156 300.554688 94.652344 C 312.238281 101.390625 321.703125 116.316406 321.703125 127.992188 " clip-rule="nonzero"/></clipPath><clipPath id="0455168e1d"><path d="M 296.050781 119 L 305 119 L 305 126 L 296.050781 126 Z M 296.050781 119 " clip-rule="nonzero"/></clipPath><clipPath id="dcd9ec9806"><path d="M 321.703125 127.992188 C 321.703125 139.667969 312.238281 143.664062 300.554688 136.925781 C 288.875 130.1875 279.40625 115.261719 279.40625 103.585938 C 279.40625 91.910156 288.875 87.910156 300.554688 94.652344 C 312.238281 101.390625 321.703125 116.316406 321.703125 127.992188 " clip-rule="nonzero"/></clipPath><clipPath id="3a4c53d8b1"><path d="M 294 98.351562 L 308.285156 98.351562 L 308.285156 113 L 294 113 Z M 294 98.351562 " clip-rule="nonzero"/></clipPath><clipPath id="51d1e416f8"><path d="M 321.703125 127.992188 C 321.703125 139.667969 312.238281 143.664062 300.554688 136.925781 C 288.875 130.1875 279.40625 115.261719 279.40625 103.585938 C 279.40625 91.910156 288.875 87.910156 300.554688 94.652344 C 312.238281 101.390625 321.703125 116.316406 321.703125 127.992188 " clip-rule="nonzero"/></clipPath><clipPath id="6d0fb9bc71"><path d="M 287.082031 280.128906 L 296 280.128906 L 296 286 L 287.082031 286 Z M 287.082031 280.128906 " clip-rule="nonzero"/></clipPath><clipPath id="9ca1696c83"><path d="M 320.027344 267.890625 L 285.175781 288.003906 L 249.828125 267.890625 L 284.652344 247.652344 L 320.027344 267.890625 " clip-rule="nonzero"/></clipPath><clipPath id="aa78f63f53"><path d="M 284 273 L 296 273 L 296 285 L 284 285 Z M 284 273 " clip-rule="nonzero"/></clipPath><clipPath id="29a48cbfbc"><path d="M 320.027344 267.890625 L 285.175781 288.003906 L 249.828125 267.890625 L 284.652344 247.652344 L 320.027344 267.890625 " clip-rule="nonzero"/></clipPath><clipPath id="76ec87ba80"><path d="M 306.65625 269 L 316.441406 269 L 316.441406 274 L 306.65625 274 Z M 306.65625 269 " clip-rule="nonzero"/></clipPath><clipPath id="19e5f426c1"><path d="M 320.027344 267.890625 L 285.175781 288.003906 L 249.828125 267.890625 L 284.652344 247.652344 L 320.027344 267.890625 " clip-rule="nonzero"/></clipPath><clipPath id="c948e1a68b"><path d="M 294.421875 267.085938 L 314.8125 267.085938 L 314.8125 274 L 294.421875 274 Z M 294.421875 267.085938 " clip-rule="nonzero"/></clipPath><clipPath id="eaa5f92480"><path d="M 320.027344 267.890625 L 285.175781 288.003906 L 249.828125 267.890625 L 284.652344 247.652344 L 320.027344 267.890625 " clip-rule="nonzero"/></clipPath><clipPath id="4d74e9f90d"><path d="M 287.082031 269 L 311.546875 269 L 311.546875 283.386719 L 287.082031 283.386719 Z M 287.082031 269 " clip-rule="nonzero"/></clipPath><clipPath id="6ebb42cc85"><path d="M 320.027344 267.890625 L 285.175781 288.003906 L 249.828125 267.890625 L 284.652344 247.652344 L 320.027344 267.890625 " clip-rule="nonzero"/></clipPath><clipPath id="fa5d2796c8"><path d="M 274.03125 267.085938 L 279.742188 267.085938 L 279.742188 270 L 274.03125 270 Z M 274.03125 267.085938 " clip-rule="nonzero"/></clipPath><clipPath id="16131028ae"><path d="M 320.027344 267.890625 L 285.175781 288.003906 L 249.828125 267.890625 L 284.652344 247.652344 L 320.027344 267.890625 " clip-rule="nonzero"/></clipPath><clipPath id="62b1eaf21c"><path d="M 274.847656 267.085938 L 278.925781 267.085938 L 278.925781 269.53125 L 274.847656 269.53125 Z M 274.847656 267.085938 " clip-rule="nonzero"/></clipPath><clipPath id="12ccb88f85"><path d="M 320.027344 267.890625 L 285.175781 288.003906 L 249.828125 267.890625 L 284.652344 247.652344 L 320.027344 267.890625 " clip-rule="nonzero"/></clipPath><clipPath id="08ccdebaff"><path d="M 283.003906 261.378906 L 288.710938 261.378906 L 288.710938 264.640625 L 283.003906 264.640625 Z M 283.003906 261.378906 " clip-rule="nonzero"/></clipPath><clipPath id="2598c82675"><path d="M 320.027344 267.890625 L 285.175781 288.003906 L 249.828125 267.890625 L 284.652344 247.652344 L 320.027344 267.890625 " clip-rule="nonzero"/></clipPath><clipPath id="9c9f570400"><path d="M 284.632812 262 L 287.898438 262 L 287.898438 264.640625 L 284.632812 264.640625 Z M 284.632812 262 " clip-rule="nonzero"/></clipPath><clipPath id="f34dc52c60"><path d="M 320.027344 267.890625 L 285.175781 288.003906 L 249.828125 267.890625 L 284.652344 247.652344 L 320.027344 267.890625 " clip-rule="nonzero"/></clipPath><clipPath id="772019ae17"><path d="M 271.585938 265.457031 L 278 265.457031 L 278 268.714844 L 271.585938 268.714844 Z M 271.585938 265.457031 " clip-rule="nonzero"/></clipPath><clipPath id="bdafbe11da"><path d="M 320.027344 267.890625 L 285.175781 288.003906 L 249.828125 267.890625 L 284.652344 247.652344 L 320.027344 267.890625 " clip-rule="nonzero"/></clipPath><clipPath id="79e39dbf0d"><path d="M 281 260 L 286.265625 260 L 286.265625 263.824219 L 281 263.824219 Z M 281 260 " clip-rule="nonzero"/></clipPath><clipPath id="517baf4245"><path d="M 320.027344 267.890625 L 285.175781 288.003906 L 249.828125 267.890625 L 284.652344 247.652344 L 320.027344 267.890625 " clip-rule="nonzero"/></clipPath><clipPath id="2879fd84d0"><path d="M 284 267.085938 L 293 267.085938 L 293 272.792969 L 284 272.792969 Z M 284 267.085938 " clip-rule="nonzero"/></clipPath><clipPath id="9a44d9d22b"><path d="M 320.027344 267.890625 L 285.175781 288.003906 L 249.828125 267.890625 L 284.652344 247.652344 L 320.027344 267.890625 " clip-rule="nonzero"/></clipPath><clipPath id="9c28026f60"><path d="M 284 267.085938 L 291 267.085938 L 291 271.976562 L 284 271.976562 Z M 284 267.085938 " clip-rule="nonzero"/></clipPath><clipPath id="ed7aa5d6de"><path d="M 320.027344 267.890625 L 285.175781 288.003906 L 249.828125 267.890625 L 284.652344 247.652344 L 320.027344 267.890625 " clip-rule="nonzero"/></clipPath><clipPath id="2da55ec77c"><path d="M 272 260.566406 L 291 260.566406 L 291 271.976562 L 272 271.976562 Z M 272 260.566406 " clip-rule="nonzero"/></clipPath><clipPath id="5b9aa5e992"><path d="M 320.027344 267.890625 L 285.175781 288.003906 L 249.828125 267.890625 L 284.652344 247.652344 L 320.027344 267.890625 " clip-rule="nonzero"/></clipPath><clipPath id="f1bce2a59c"><path d="M 286.265625 269 L 295 269 L 295 273.605469 L 286.265625 273.605469 Z M 286.265625 269 " clip-rule="nonzero"/></clipPath><clipPath id="94419cba45"><path d="M 320.027344 267.890625 L 285.175781 288.003906 L 249.828125 267.890625 L 284.652344 247.652344 L 320.027344 267.890625 " clip-rule="nonzero"/></clipPath><clipPath id="623604bd08"><path d="M 269.140625 257.304688 L 284.632812 257.304688 L 284.632812 267.902344 L 269.140625 267.902344 Z M 269.140625 257.304688 " clip-rule="nonzero"/></clipPath><clipPath id="327b9caaa4"><path d="M 320.027344 267.890625 L 285.175781 288.003906 L 249.828125 267.890625 L 284.652344 247.652344 L 320.027344 267.890625 " clip-rule="nonzero"/></clipPath></defs><rect x="-37.5" width="450" fill="#ffffff" y="-37.499999" height="449.999989" fill-opacity="1"/><rect x="-37.5" width="450" fill="#ffffff" y="-37.499999" height="449.999989" fill-opacity="1"/><g clip-path="url(#adf7f2f32c)"><path fill="#5b79cc" d="M 207.625 362.03125 L 365.96875 270.238281 L 261.210938 211.304688 L 0 362.03125 L 207.625 362.03125 " fill-opacity="1" fill-rule="nonzero"/></g><path fill="#ffffff" d="M 215.445312 304.328125 C 214.207031 302.824219 213.34375 301.199219 212.847656 299.457031 C 212.355469 297.71875 212.109375 295.71875 212.109375 293.472656 L 212.109375 273.171875 L 217.445312 276.253906 L 217.445312 297.183594 C 217.445312 298.910156 217.648438 300.363281 218.058594 301.539062 C 218.464844 302.710938 219.300781 303.660156 220.5625 304.386719 C 221.84375 305.128906 222.691406 305.152344 223.101562 304.445312 C 223.507812 303.746094 223.710938 302.527344 223.710938 300.800781 L 223.710938 279.867188 L 229.011719 282.921875 L 229.011719 303.226562 C 229.011719 305.449219 228.765625 307.15625 228.269531 308.339844 C 227.773438 309.523438 226.910156 310.152344 225.675781 310.230469 C 224.4375 310.308594 222.734375 309.71875 220.5625 308.464844 C 218.386719 307.207031 216.679688 305.828125 215.445312 304.328125 " fill-opacity="1" fill-rule="nonzero"/><path fill="#ffffff" d="M 233.460938 285.492188 L 238.871094 288.613281 L 238.871094 318.625 L 233.460938 315.5 L 233.460938 285.492188 " fill-opacity="1" fill-rule="nonzero"/><path fill="#d2d2d2" d="M 149.445312 146.902344 C 148.414062 146.839844 147.699219 146.320312 147.289062 145.347656 C 146.875 144.375 146.671875 142.953125 146.671875 141.085938 L 146.671875 124.21875 L 151.105469 121.65625 L 151.105469 139.050781 C 151.105469 140.488281 151.277344 141.496094 151.613281 142.082031 C 151.953125 142.667969 152.644531 142.65625 153.695312 142.050781 C 154.761719 141.4375 155.464844 140.640625 155.804688 139.664062 C 156.144531 138.6875 156.3125 137.480469 156.3125 136.046875 L 156.3125 118.65625 L 160.714844 116.113281 L 160.714844 132.980469 C 160.714844 134.828125 160.511719 136.484375 160.101562 137.941406 C 159.691406 139.398438 158.96875 140.753906 157.945312 142 C 156.917969 143.25 155.5 144.394531 153.695312 145.441406 C 151.886719 146.480469 150.46875 146.972656 149.445312 146.902344 " fill-opacity="1" fill-rule="nonzero"/><path fill="#d2d2d2" d="M 167.742188 123.757812 L 162.871094 114.867188 L 167.121094 112.417969 L 170.355469 118.308594 L 173.191406 108.914062 L 177.101562 106.65625 L 172.328125 121.972656 L 177.46875 131.378906 L 173.25 133.8125 L 169.710938 127.453125 L 166.628906 137.636719 L 162.71875 139.894531 L 167.742188 123.757812 " fill-opacity="1" fill-rule="nonzero"/><path fill="#000000" d="M 212.65625 305.933594 C 211.421875 304.433594 210.558594 302.808594 210.0625 301.066406 C 209.570312 299.324219 209.320312 297.328125 209.320312 295.082031 L 209.320312 274.777344 L 214.660156 277.859375 L 214.660156 298.789062 C 214.660156 300.519531 214.863281 301.972656 215.273438 303.144531 C 215.679688 304.320312 216.515625 305.269531 217.773438 305.996094 C 219.058594 306.738281 219.90625 306.757812 220.3125 306.054688 C 220.71875 305.351562 220.925781 304.136719 220.925781 302.40625 L 220.925781 281.476562 L 226.226562 284.53125 L 226.226562 304.835938 C 226.226562 307.058594 225.976562 308.761719 225.484375 309.945312 C 224.988281 311.132812 224.125 311.761719 222.890625 311.839844 C 221.652344 311.914062 219.949219 311.324219 217.773438 310.070312 C 215.597656 308.816406 213.894531 307.4375 212.65625 305.933594 " fill-opacity="1" fill-rule="nonzero"/><path fill="#000000" d="M 230.671875 287.097656 L 236.085938 290.222656 L 236.085938 320.230469 L 230.671875 317.109375 L 230.671875 287.097656 " fill-opacity="1" fill-rule="nonzero"/><g clip-path="url(#01be4481b6)"><path fill="#5b79cc" d="M 364.199219 63.855469 L 278.589844 14.453125 C 275.171875 12.484375 272.109375 12.289062 270.128906 13.585938 C 268.660156 14.539062 256.773438 21.339844 256.773438 21.339844 L 267.78125 199.371094 C 267.78125 205.1875 272.644531 212.75 278.589844 216.179688 L 360.316406 273.429688 C 360.316406 273.429688 370.167969 267.890625 371.832031 266.878906 C 373.632812 265.785156 375.007812 264.152344 375.007812 261.25 L 375.007812 80.660156 C 375.007812 74.847656 370.144531 67.285156 364.199219 63.855469 " fill-opacity="1" fill-rule="nonzero"/></g><g clip-path="url(#8cb26509b8)"><path fill="#8094ff" d="M 364.199219 63.855469 L 350.765625 71.117188 L 361.988281 87.730469 L 375.007812 80.660156 C 375.007812 74.847656 370.144531 67.285156 364.199219 63.855469 " fill-opacity="1" fill-rule="nonzero"/></g><path fill="#ffffff" d="M 351.191406 79.363281 L 265.582031 29.964844 C 260.726562 27.160156 256.773438 28.726562 256.773438 33.449219 L 256.773438 208.03125 C 256.773438 212.757812 260.726562 218.882812 265.582031 221.683594 L 351.191406 271.085938 C 356.046875 273.886719 359.996094 272.324219 359.996094 267.597656 L 359.996094 93.011719 C 359.996094 88.289062 356.046875 82.167969 351.191406 79.363281 " fill-opacity="1" fill-rule="nonzero"/><path fill="#1e2059" d="M 357.996094 259.34375 L 258.773438 202.089844 L 258.773438 35.164062 L 357.996094 92.421875 Z M 351.191406 71.363281 L 265.582031 21.960938 C 259.636719 18.53125 254.769531 20.480469 254.769531 26.292969 L 254.769531 206.878906 C 254.769531 212.691406 259.636719 220.253906 265.582031 223.683594 L 351.191406 273.085938 C 357.132812 276.515625 362 274.566406 362 268.753906 L 362 88.167969 C 362 82.355469 357.132812 74.792969 351.191406 71.363281 " fill-opacity="1" fill-rule="nonzero"/><path fill="#5b79cc" d="M 319.09375 62.144531 L 297.675781 49.785156 C 296.957031 49.371094 296.378906 48.453125 296.378906 47.734375 C 296.378906 47.015625 296.957031 46.769531 297.675781 47.183594 L 319.09375 59.542969 C 319.808594 59.957031 320.390625 60.875 320.390625 61.59375 C 320.390625 62.3125 319.808594 62.558594 319.09375 62.144531 " fill-opacity="1" fill-rule="nonzero"/><path fill="#1b295b" d="M 369 162.011719 C 368.171875 162.492188 367.496094 162.207031 367.496094 161.375 L 367.496094 136.042969 C 367.496094 135.214844 368.171875 134.15625 369 133.675781 C 369.828125 133.199219 370.5 133.484375 370.5 134.3125 L 370.5 159.644531 C 370.5 160.476562 369.828125 161.53125 369 162.011719 " fill-opacity="1" fill-rule="nonzero"/><path fill="#1b295b" d="M 369 130.042969 C 368.171875 130.523438 367.496094 130.238281 367.496094 129.410156 L 367.496094 104.078125 C 367.496094 103.25 368.171875 102.191406 369 101.710938 C 369.828125 101.234375 370.5 101.519531 370.5 102.34375 L 370.5 127.679688 C 370.5 128.507812 369.828125 129.566406 369 130.042969 " fill-opacity="1" fill-rule="nonzero"/><path fill="#d5d9e5" d="M 351.949219 242.292969 L 344.984375 246.3125 L 263.09375 191.019531 L 256.128906 47.054688 L 263.09375 43.03125 L 351.949219 94.304688 L 351.949219 242.292969 " fill-opacity="1" fill-rule="nonzero"/><path fill="#ffffff" d="M 344.984375 246.3125 L 256.128906 195.039062 L 256.128906 47.054688 L 344.984375 98.328125 L 344.984375 246.3125 " fill-opacity="1" fill-rule="nonzero"/><path fill="#dddddd" d="M 324.679688 126.476562 C 324.679688 134.417969 318.414062 140.332031 311.925781 140.203125 C 308.886719 140.136719 307.261719 137.5625 303.53125 135.410156 C 291.851562 128.667969 282.382812 113.742188 282.382812 102.070312 C 282.382812 99.371094 280.390625 97.746094 281.3125 95.910156 C 284.375 89.78125 294.546875 87.949219 303.53125 93.132812 C 315.210938 99.871094 324.679688 114.800781 324.679688 126.476562 " fill-opacity="1" fill-rule="nonzero"/><path fill="#cf433d" d="M 327.351562 205.164062 C 327.351562 208.667969 322.4375 211.847656 318.933594 209.824219 L 271.058594 174.875 C 271.058594 171.375 276.601562 169.535156 280.109375 171.5625 L 321.003906 195.160156 C 324.507812 197.179688 327.351562 201.660156 327.351562 205.164062 " fill-opacity="1" fill-rule="nonzero"/><path fill="#ee6a4a" d="M 324.5625 206.773438 C 324.5625 210.273438 321.722656 211.476562 318.214844 209.453125 L 277.324219 185.851562 C 273.816406 183.832031 270.976562 179.351562 270.976562 175.847656 C 270.976562 172.34375 273.816406 171.148438 277.324219 173.171875 L 318.214844 196.765625 C 321.722656 198.789062 324.5625 203.269531 324.5625 206.773438 " fill-opacity="1" fill-rule="nonzero"/><path fill="#ffffff" d="M 288.652344 188.09375 L 288.652344 182.433594 L 289.402344 182.867188 L 289.402344 187.863281 L 292.191406 189.46875 L 292.191406 190.136719 L 288.652344 188.09375 " fill-opacity="1" fill-rule="nonzero"/><path fill="#ffffff" d="M 293.449219 188.8125 C 293.449219 189.339844 293.566406 189.796875 293.792969 190.191406 C 294.023438 190.585938 294.308594 190.882812 294.660156 191.082031 C 295.003906 191.28125 295.292969 191.316406 295.519531 191.1875 C 295.75 191.054688 295.863281 190.722656 295.863281 190.183594 C 295.863281 189.675781 295.75 189.226562 295.519531 188.832031 C 295.289062 188.4375 295 188.140625 294.660156 187.945312 C 294.308594 187.742188 294.023438 187.707031 293.792969 187.832031 C 293.566406 187.964844 293.449219 188.289062 293.449219 188.8125 Z M 292.734375 188.402344 C 292.734375 187.640625 292.945312 187.203125 293.371094 187.082031 C 293.722656 186.980469 294.152344 187.074219 294.660156 187.367188 C 295.222656 187.691406 295.6875 188.144531 296.042969 188.722656 C 296.398438 189.296875 296.578125 189.910156 296.578125 190.5625 C 296.578125 191.089844 296.5 191.460938 296.34375 191.667969 C 296.183594 191.878906 295.953125 191.980469 295.652344 191.976562 C 295.347656 191.96875 295.015625 191.859375 294.660156 191.652344 C 294.085938 191.324219 293.621094 190.871094 293.269531 190.300781 C 292.910156 189.726562 292.734375 189.09375 292.734375 188.402344 " fill-opacity="1" fill-rule="nonzero"/><path fill="#ffffff" d="M 297.84375 191.273438 C 297.84375 191.8125 297.949219 192.269531 298.164062 192.636719 C 298.378906 193.007812 298.644531 193.289062 298.96875 193.472656 C 299.285156 193.65625 299.554688 193.6875 299.769531 193.566406 C 299.988281 193.445312 300.09375 193.125 300.09375 192.597656 C 300.09375 192.097656 299.984375 191.652344 299.761719 191.269531 C 299.539062 190.886719 299.269531 190.601562 298.953125 190.421875 C 298.644531 190.242188 298.382812 190.21875 298.167969 190.34375 C 297.953125 190.472656 297.84375 190.78125 297.84375 191.273438 Z M 297.265625 193.410156 L 297.941406 193.898438 C 297.96875 194.121094 298.050781 194.320312 298.175781 194.492188 C 298.351562 194.71875 298.589844 194.917969 298.886719 195.089844 C 299.207031 195.273438 299.457031 195.355469 299.632812 195.328125 C 299.804688 195.300781 299.925781 195.1875 299.988281 194.992188 C 300.023438 194.871094 300.042969 194.582031 300.039062 194.128906 C 299.734375 194.3125 299.355469 194.269531 298.902344 194.011719 C 298.335938 193.683594 297.902344 193.230469 297.589844 192.644531 C 297.28125 192.0625 297.128906 191.480469 297.128906 190.910156 C 297.128906 190.519531 297.199219 190.203125 297.339844 189.953125 C 297.484375 189.703125 297.6875 189.566406 297.957031 189.542969 C 298.226562 189.515625 298.542969 189.609375 298.902344 189.820312 C 299.390625 190.097656 299.789062 190.523438 300.105469 191.097656 L 300.105469 190.601562 L 300.746094 190.972656 L 300.746094 194.515625 C 300.746094 195.15625 300.683594 195.570312 300.550781 195.761719 C 300.421875 195.953125 300.214844 196.042969 299.933594 196.039062 C 299.648438 196.027344 299.300781 195.90625 298.890625 195.667969 C 298.402344 195.386719 298.003906 195.046875 297.703125 194.652344 C 297.402344 194.257812 297.257812 193.84375 297.265625 193.410156 " fill-opacity="1" fill-rule="nonzero"/><path fill="#ffffff" d="M 301.800781 195.683594 L 301.800781 191.582031 L 302.496094 191.980469 L 302.496094 196.082031 Z M 301.800781 190.820312 L 301.800781 190.019531 L 302.496094 190.421875 L 302.496094 191.222656 L 301.800781 190.820312 " fill-opacity="1" fill-rule="nonzero"/><path fill="#ffffff" d="M 303.550781 196.695312 L 303.550781 192.59375 L 304.179688 192.957031 L 304.179688 193.539062 C 304.480469 193.261719 304.914062 193.289062 305.484375 193.617188 C 305.730469 193.757812 305.960938 193.933594 306.167969 194.144531 C 306.375 194.351562 306.53125 194.558594 306.632812 194.761719 C 306.734375 194.964844 306.808594 195.175781 306.847656 195.398438 C 306.875 195.542969 306.886719 195.773438 306.886719 196.09375 L 306.886719 198.617188 L 306.191406 198.214844 L 306.191406 195.722656 C 306.191406 195.441406 306.164062 195.210938 306.109375 195.042969 C 306.058594 194.871094 305.960938 194.699219 305.824219 194.539062 C 305.6875 194.375 305.523438 194.238281 305.339844 194.132812 C 305.042969 193.960938 304.789062 193.90625 304.570312 193.972656 C 304.359375 194.035156 304.25 194.332031 304.25 194.855469 L 304.25 197.09375 L 303.550781 196.695312 " fill-opacity="1" fill-rule="nonzero"/><path fill="#e7e7e7" d="M 276.382812 128.222656 L 273.597656 129.832031 L 276.382812 139.960938 L 276.382812 141.261719 L 327.515625 173.984375 L 330.304688 172.378906 L 330.304688 159.339844 L 276.382812 128.222656 " fill-opacity="1" fill-rule="nonzero"/><path fill="#e7e7e7" d="M 276.382812 161.183594 L 327.515625 193.90625 L 330.304688 192.300781 L 330.304688 179.261719 L 276.382812 148.144531 L 273.597656 149.753906 L 276.382812 161.183594 " fill-opacity="1" fill-rule="nonzero"/><path fill="#ffffff" d="M 327.515625 173.984375 L 273.597656 142.871094 L 273.597656 129.832031 L 327.515625 160.945312 L 327.515625 173.984375 " fill-opacity="1" fill-rule="nonzero"/><path fill="#ffffff" d="M 327.515625 193.90625 L 273.597656 162.792969 L 273.597656 149.753906 L 327.515625 180.871094 L 327.515625 193.90625 " fill-opacity="1" fill-rule="nonzero"/><path fill="#d3d3d3" d="M 327.515625 193.90625 L 273.597656 162.792969 L 273.597656 161.492188 L 327.515625 192.605469 L 327.515625 193.90625 " fill-opacity="1" fill-rule="nonzero"/><path fill="#d3d3d3" d="M 327.515625 173.984375 L 273.597656 142.871094 L 273.597656 141.570312 L 327.515625 172.6875 L 327.515625 173.984375 " fill-opacity="1" fill-rule="nonzero"/><path fill="#d3d3d3" d="M 323.8125 166.851562 L 277.300781 140.015625 L 277.300781 136.964844 L 323.8125 163.800781 L 323.8125 166.851562 " fill-opacity="1" fill-rule="nonzero"/><path fill="#d3d3d3" d="M 279.507812 160.894531 C 279.277344 160.894531 279.007812 160.816406 278.722656 160.648438 C 277.847656 160.148438 277.144531 159.035156 277.144531 158.167969 C 277.144531 157.582031 277.460938 157.253906 277.933594 157.253906 C 278.164062 157.253906 278.433594 157.332031 278.722656 157.496094 C 279.589844 158 280.296875 159.117188 280.296875 159.984375 C 280.296875 160.566406 279.980469 160.894531 279.507812 160.894531 " fill-opacity="1" fill-rule="nonzero"/><path fill="#d3d3d3" d="M 285.71875 164.476562 C 285.484375 164.476562 285.21875 164.398438 284.929688 164.230469 C 284.058594 163.730469 283.355469 162.617188 283.355469 161.75 C 283.355469 161.164062 283.667969 160.839844 284.140625 160.839844 C 284.375 160.839844 284.644531 160.917969 284.929688 161.078125 C 285.800781 161.582031 286.507812 162.699219 286.507812 163.566406 C 286.507812 164.152344 286.1875 164.476562 285.71875 164.476562 " fill-opacity="1" fill-rule="nonzero"/><path fill="#d3d3d3" d="M 291.925781 168.058594 C 291.695312 168.058594 291.421875 167.984375 291.140625 167.816406 C 290.265625 167.3125 289.558594 166.199219 289.558594 165.332031 C 289.558594 164.746094 289.878906 164.421875 290.351562 164.421875 C 290.582031 164.421875 290.851562 164.5 291.140625 164.664062 C 292.011719 165.167969 292.714844 166.28125 292.714844 167.148438 C 292.714844 167.734375 292.398438 168.058594 291.925781 168.058594 " fill-opacity="1" fill-rule="nonzero"/><path fill="#d3d3d3" d="M 298.136719 171.640625 C 297.902344 171.640625 297.632812 171.566406 297.347656 171.398438 C 296.476562 170.898438 295.769531 169.78125 295.769531 168.914062 C 295.769531 168.332031 296.085938 168.003906 296.558594 168.003906 C 296.792969 168.003906 297.058594 168.082031 297.347656 168.246094 C 298.21875 168.75 298.921875 169.863281 298.921875 170.734375 C 298.921875 171.316406 298.609375 171.640625 298.136719 171.640625 " fill-opacity="1" fill-rule="nonzero"/><path fill="#d3d3d3" d="M 304.34375 175.226562 C 304.113281 175.226562 303.84375 175.148438 303.554688 174.980469 C 302.683594 174.480469 301.976562 173.367188 301.976562 172.496094 C 301.976562 171.914062 302.296875 171.585938 302.769531 171.585938 C 303 171.585938 303.269531 171.664062 303.554688 171.828125 C 304.429688 172.332031 305.132812 173.445312 305.132812 174.316406 C 305.132812 174.898438 304.8125 175.226562 304.34375 175.226562 " fill-opacity="1" fill-rule="nonzero"/><path fill="#d3d3d3" d="M 310.550781 178.808594 C 310.320312 178.808594 310.050781 178.730469 309.765625 178.5625 C 308.894531 178.0625 308.1875 176.949219 308.1875 176.078125 C 308.1875 175.496094 308.507812 175.167969 308.976562 175.167969 C 309.210938 175.167969 309.476562 175.246094 309.765625 175.410156 C 310.636719 175.914062 311.339844 177.027344 311.339844 177.898438 C 311.339844 178.480469 311.023438 178.808594 310.550781 178.808594 " fill-opacity="1" fill-rule="nonzero"/><path fill="#d3d3d3" d="M 316.761719 182.390625 C 316.527344 182.390625 316.261719 182.3125 315.972656 182.144531 C 315.101562 181.644531 314.398438 180.53125 314.398438 179.660156 C 314.398438 179.078125 314.714844 178.75 315.1875 178.75 C 315.417969 178.75 315.6875 178.828125 315.972656 178.992188 C 316.84375 179.496094 317.550781 180.609375 317.550781 181.480469 C 317.550781 182.0625 317.230469 182.390625 316.761719 182.390625 " fill-opacity="1" fill-rule="nonzero"/><path fill="#d3d3d3" d="M 322.96875 185.972656 C 322.738281 185.972656 322.46875 185.894531 322.183594 185.726562 C 321.308594 185.226562 320.605469 184.113281 320.605469 183.246094 C 320.605469 182.660156 320.921875 182.332031 321.394531 182.332031 C 321.625 182.332031 321.894531 182.410156 322.183594 182.574219 C 323.050781 183.078125 323.761719 184.195312 323.761719 185.0625 C 323.761719 185.648438 323.441406 185.972656 322.96875 185.972656 " fill-opacity="1" fill-rule="nonzero"/><path fill="#f0f0f0" d="M 321.703125 127.992188 C 321.703125 139.667969 312.238281 143.664062 300.554688 136.925781 C 288.875 130.1875 279.40625 115.261719 279.40625 103.585938 C 279.40625 91.910156 288.875 87.910156 300.554688 94.652344 C 312.238281 101.390625 321.703125 116.316406 321.703125 127.992188 " fill-opacity="1" fill-rule="nonzero"/><g clip-path="url(#ea0a45ccec)"><g clip-path="url(#abf2c0f923)"><path fill="#edab95" d="M 290.15625 132.839844 L 290.972656 128.59375 C 291.199219 127.414062 290.488281 125.789062 289.382812 124.960938 C 288.28125 124.132812 287.207031 124.421875 286.980469 125.597656 L 286.042969 130.464844 L 290.15625 132.839844 " fill-opacity="1" fill-rule="nonzero"/></g></g><g clip-path="url(#3dedc1ea82)"><g clip-path="url(#148af45705)"><path fill="#323232" d="M 296.730469 121.390625 C 287.78125 116.375 286.617188 122.773438 286.257812 124.632812 L 285.648438 127.777344 L 291.445312 132.128906 L 292.363281 127.394531 C 292.683594 125.714844 296.730469 121.390625 296.730469 121.390625 " fill-opacity="1" fill-rule="nonzero"/></g></g><g clip-path="url(#d2a807317f)"><g clip-path="url(#40a0ff0591)"><path fill="#edab95" d="M 310.957031 144.839844 L 315.070312 147.214844 L 314.132812 141.269531 C 313.90625 139.828125 312.828125 138.300781 311.726562 137.855469 C 310.625 137.40625 309.914062 138.210938 310.140625 139.652344 L 310.957031 144.839844 " fill-opacity="1" fill-rule="nonzero"/></g></g><g clip-path="url(#0532dd1076)"><g clip-path="url(#fc58d5ee0a)"><path fill="#323232" d="M 304.367188 125.792969 C 313.316406 131.105469 314.5 138.863281 314.855469 141.132812 L 315.464844 144.980469 L 309.664062 142.640625 L 308.75 136.851562 C 308.425781 134.796875 304.367188 125.792969 304.367188 125.792969 " fill-opacity="1" fill-rule="nonzero"/></g></g><g clip-path="url(#341d385255)"><g clip-path="url(#e539cca9ea)"><path fill="#323232" d="M 309.054688 143.742188 L 309.054688 136.089844 C 309.054688 131.398438 305.25 125.398438 300.554688 122.691406 C 295.863281 119.984375 292.058594 121.589844 292.058594 126.28125 L 292.058594 133.933594 L 309.054688 143.742188 " fill-opacity="1" fill-rule="nonzero"/></g></g><g clip-path="url(#5a1e08a9b1)"><g clip-path="url(#68f9b9d297)"><path fill="#f3b39d" d="M 296.847656 109.316406 C 296.847656 110.433594 296.207031 110.96875 295.089844 110.324219 C 293.976562 109.683594 293.070312 108.253906 293.070312 107.136719 C 293.070312 106.023438 293.546875 105.394531 294.664062 106.035156 C 295.777344 106.683594 296.847656 108.203125 296.847656 109.316406 " fill-opacity="1" fill-rule="nonzero"/></g></g><g clip-path="url(#cc519c4f1c)"><g clip-path="url(#33781be091)"><path fill="#e8a896" d="M 296.050781 108.859375 C 296.050781 109.597656 295.722656 110.003906 294.984375 109.578125 C 294.246094 109.152344 293.648438 108.210938 293.648438 107.472656 C 293.648438 106.734375 293.816406 106.234375 294.554688 106.660156 C 295.292969 107.085938 296.050781 108.121094 296.050781 108.859375 " fill-opacity="1" fill-rule="nonzero"/></g></g><g clip-path="url(#4aea9a818e)"><g clip-path="url(#165c8ec3d7)"><path fill="#f3b39d" d="M 308.03125 115.773438 C 308.03125 116.886719 307.125 117.269531 306.011719 116.625 C 304.898438 115.984375 304.257812 114.710938 304.257812 113.59375 C 304.257812 112.476562 305.324219 112.191406 306.4375 112.835938 C 307.558594 113.476562 308.03125 114.660156 308.03125 115.773438 " fill-opacity="1" fill-rule="nonzero"/></g></g><g clip-path="url(#b9728a5d8f)"><g clip-path="url(#93f38eeaa1)"><path fill="#e8a896" d="M 307.453125 115.4375 C 307.453125 116.175781 306.855469 116.429688 306.121094 116.003906 C 305.378906 115.578125 305.050781 114.789062 305.050781 114.054688 C 305.050781 113.316406 305.8125 113.15625 306.546875 113.578125 C 307.285156 114.007812 307.453125 114.703125 307.453125 115.4375 " fill-opacity="1" fill-rule="nonzero"/></g></g><g clip-path="url(#7de6ec9b59)"><g clip-path="url(#ac139e07b8)"><path fill="#181818" d="M 294.050781 102.757812 L 294.050781 105.125 C 294.050781 107.203125 294.773438 108.613281 295.664062 109.125 L 295.664062 103.6875 L 294.050781 102.757812 " fill-opacity="1" fill-rule="nonzero"/></g></g><g clip-path="url(#c4c8f3a035)"><g clip-path="url(#d5e1631429)"><path fill="#181818" d="M 305.4375 109.332031 L 305.4375 114.765625 C 306.332031 115.28125 307.050781 114.453125 307.050781 112.628906 L 307.050781 110.261719 L 305.4375 109.332031 " fill-opacity="1" fill-rule="nonzero"/></g></g><g clip-path="url(#9645f17eb7)"><g clip-path="url(#9a2efc63e4)"><path fill="#edab95" d="M 298.066406 116.152344 L 298.066406 120.351562 C 298.066406 121.722656 299.179688 123.480469 300.550781 124.273438 C 301.925781 125.0625 303.035156 124.597656 303.035156 123.222656 L 303.035156 119.019531 L 298.066406 116.152344 " fill-opacity="1" fill-rule="nonzero"/></g></g><g clip-path="url(#80122f09bb)"><g clip-path="url(#afb22e939f)"><path fill="#de897c" d="M 298.066406 116.152344 L 298.066406 119.125 C 298.816406 119.925781 299.664062 120.613281 300.550781 121.128906 C 301.441406 121.640625 302.289062 121.925781 303.035156 122 L 303.035156 119.019531 L 298.066406 116.152344 " fill-opacity="1" fill-rule="nonzero"/></g></g><g clip-path="url(#c09afcc72f)"><g clip-path="url(#38a881b874)"><path fill="#fbb89e" d="M 300.550781 102.992188 C 297.386719 101.164062 294.824219 102.25 294.824219 105.410156 L 294.824219 111.566406 C 294.824219 114.730469 297.386719 118.769531 300.550781 120.597656 C 303.714844 122.421875 306.277344 121.339844 306.277344 118.175781 L 306.277344 112.023438 C 306.277344 108.859375 303.714844 104.816406 300.550781 102.992188 " fill-opacity="1" fill-rule="nonzero"/></g></g><g clip-path="url(#0455168e1d)"><g clip-path="url(#dcd9ec9806)"><path fill="#282828" d="M 304.382812 125.847656 L 300.550781 125.4375 L 296.71875 121.425781 L 297.449219 119.488281 L 299.601562 121.53125 L 300.550781 123.175781 L 301.5 122.628906 L 303.652344 123.066406 L 304.382812 125.847656 " fill-opacity="1" fill-rule="nonzero"/></g></g><g clip-path="url(#3a4c53d8b1)"><g clip-path="url(#51d1e416f8)"><path fill="#323232" d="M 306.46875 103.6875 C 306.617188 106.289062 304.648438 104.609375 304.648438 104.609375 C 306.078125 104.65625 304.613281 101.816406 304.613281 101.816406 C 297.632812 97.105469 295.675781 98.777344 294.65625 100.328125 C 294.34375 100.808594 294.050781 101.71875 294.050781 102.757812 C 294.050781 104 294.050781 104.945312 294.050781 104.945312 C 294.050781 104.945312 294.824219 101.65625 300.777344 105.152344 C 302.8125 106.347656 305.777344 109.035156 307.050781 112.449219 L 307.050781 110.003906 C 309.542969 107.683594 306.46875 103.6875 306.46875 103.6875 " fill-opacity="1" fill-rule="nonzero"/></g></g><path fill="#1e8061" d="M 333.980469 98.953125 C 332.226562 97.941406 329.992188 98.042969 328.511719 99.351562 L 336.082031 110.902344 C 337.652344 110.667969 339.214844 108.742188 339.214844 107.207031 C 339.214844 104.316406 336.871094 100.621094 333.980469 98.953125 " fill-opacity="1" fill-rule="nonzero"/><path fill="#39bc92" d="M 332.585938 99.757812 C 329.691406 98.089844 327.351562 99.078125 327.351562 101.96875 C 327.351562 104.859375 329.691406 108.554688 332.585938 110.222656 C 335.476562 111.890625 337.820312 110.902344 337.820312 108.011719 C 337.820312 105.121094 335.476562 101.425781 332.585938 99.757812 " fill-opacity="1" fill-rule="nonzero"/><path fill="#38a784" d="M 335.199219 111.03125 C 334.875 111.03125 334.53125 110.988281 334.167969 110.890625 L 332.171875 107.988281 L 330.152344 103.164062 L 332.523438 105.820312 L 336.21875 105.703125 L 337.820312 107.980469 C 337.820312 107.992188 337.820312 108 337.820312 108.011719 C 337.820312 108.03125 337.820312 108.046875 337.820312 108.066406 C 337.800781 109.972656 336.75 111.03125 335.199219 111.03125 " fill-opacity="1" fill-rule="nonzero"/><path fill="#ffffff" d="M 332.171875 107.988281 L 329.265625 103.601562 L 330.152344 103.164062 L 332.078125 106.070312 L 335.242188 104.285156 L 336.21875 105.703125 L 332.171875 107.988281 " fill-opacity="1" fill-rule="nonzero"/><path fill="#fd7415" d="M 192.820312 98.527344 C 193.515625 97.867188 194.945312 97.128906 193.160156 96.058594 C 191.457031 95.03125 191.894531 93.164062 192.417969 91.257812 C 192.957031 89.253906 194.542969 87.949219 195.371094 87.285156 C 196.210938 86.621094 197.019531 85.328125 196.097656 84.199219 C 194.980469 82.832031 195.648438 81.023438 195.640625 81.023438 C 197.246094 74.960938 199.796875 71.390625 202.480469 69.714844 C 205.175781 68.070312 210.359375 68.03125 212.839844 68.984375 C 215.304688 69.972656 218.011719 72.1875 218.628906 77.957031 C 218.625 77.957031 219.023438 79.457031 218.214844 80.988281 C 217.398438 82.511719 217.71875 84.019531 218.472656 84.46875 C 219.203125 84.925781 219.902344 85.945312 220.117188 87.84375 C 220.328125 89.652344 219.179688 91.058594 217.992188 91.285156 C 215.894531 91.683594 217.765625 94.0625 219.257812 94.664062 C 220.519531 95.167969 222.199219 96.042969 222.433594 98.488281 C 222.703125 100.941406 219.109375 103.042969 219.089844 103.035156 C 214.40625 104.933594 209.628906 106.554688 204.773438 107.875 C 200.03125 107.835938 197.347656 109.828125 192.878906 109.152344 C 192.859375 109.164062 189.160156 104.003906 189.851562 101.425781 C 190.5 98.863281 191.59375 99.679688 192.820312 98.527344 " fill-opacity="1" fill-rule="nonzero"/><path fill="#1a1a1a" d="M 226.199219 210.882812 C 224.683594 212.011719 220.558594 213.753906 217.503906 211.460938 C 216.195312 210.480469 215.425781 207.359375 214.144531 204.953125 L 214.105469 208.027344 C 213.941406 208.761719 213.71875 209.367188 212.972656 209.238281 C 212.390625 209.136719 212.015625 208.417969 212.054688 207.824219 C 212.117188 206.890625 211.949219 204.707031 211.324219 203.914062 C 210.292969 202.609375 209.007812 198.375 211.917969 196.03125 L 222.019531 205.535156 L 226.246094 208.957031 C 226.871094 209.460938 226.839844 210.410156 226.199219 210.882812 " fill-opacity="1" fill-rule="nonzero"/><path fill="#ffcdbc" d="M 219.984375 162.695312 C 219.984375 162.695312 215.441406 194.855469 217.367188 198.011719 C 219.285156 201.171875 222.308594 205.425781 222.449219 206.660156 C 222.585938 207.894531 219.699219 208.992188 217.640625 206.660156 C 215.578125 204.328125 210.910156 199.386719 211.738281 196.777344 C 212.5625 194.167969 211.96875 188.449219 211.117188 184.5625 C 210.457031 181.539062 208.851562 166.117188 210.363281 161.203125 L 219.984375 162.695312 " fill-opacity="1" fill-rule="nonzero"/><path fill="#1a1a1a" d="M 214.640625 216.136719 C 213.121094 217.261719 208.996094 219.003906 205.945312 216.710938 C 204.636719 215.730469 203.867188 212.613281 202.585938 210.203125 L 202.546875 213.28125 C 202.378906 214.015625 202.15625 214.617188 201.414062 214.492188 C 200.828125 214.386719 200.457031 213.667969 200.496094 213.078125 C 200.558594 212.140625 200.390625 209.960938 199.765625 209.167969 C 198.734375 207.859375 197.453125 203.625 200.355469 201.28125 L 210.460938 210.785156 L 214.6875 214.210938 C 215.308594 214.710938 215.28125 215.660156 214.640625 216.136719 " fill-opacity="1" fill-rule="nonzero"/><path fill="#ffcdbc" d="M 208.425781 167.945312 C 208.425781 167.945312 203.882812 200.109375 205.804688 203.261719 C 207.730469 206.421875 210.75 210.675781 210.886719 211.910156 C 211.023438 213.148438 208.140625 214.246094 206.082031 211.910156 C 204.019531 209.578125 199.351562 204.636719 200.175781 202.03125 C 201 199.421875 200.40625 193.699219 199.558594 189.8125 C 198.894531 186.789062 197.292969 171.367188 198.800781 166.457031 L 208.425781 167.945312 " fill-opacity="1" fill-rule="nonzero"/><path fill="#ffcdbc" d="M 221.402344 116.683594 C 223.476562 118.777344 232.390625 125.898438 232.390625 125.898438 C 232.390625 125.898438 235.304688 136.558594 240.78125 132.398438 C 246.269531 128.230469 234.890625 123.441406 234.890625 123.441406 C 234.890625 123.441406 227.347656 114.722656 225.921875 113.277344 C 225.011719 112.355469 223.640625 104.125 220.714844 98.628906 C 219.046875 95.492188 216.492188 93.09375 214.191406 93.839844 C 211.964844 94.5625 211.136719 96.230469 212.320312 99.929688 C 214.292969 106.101562 220.109375 115.375 221.402344 116.683594 " fill-opacity="1" fill-rule="nonzero"/><path fill="#d3d6df" d="M 230.585938 126.625 C 230.585938 126.625 223.179688 119.921875 221.167969 118.230469 C 219.160156 116.542969 215.191406 108.871094 212.515625 103.183594 C 209.835938 97.5 211.367188 94.230469 214.039062 92.710938 C 216.710938 91.195312 220.648438 95.601562 221.433594 97.96875 C 222.097656 99.972656 224.398438 107.53125 225.058594 109.339844 C 225.722656 111.148438 235.042969 121.21875 235.042969 121.21875 C 235.042969 121.21875 234.148438 124.550781 230.585938 126.625 " fill-opacity="1" fill-rule="nonzero"/><path fill="#e75f84" d="M 200.441406 130.128906 C 200.441406 130.128906 194.964844 140.570312 196.5625 149.542969 C 198.15625 158.511719 196.921875 168.609375 196.921875 168.609375 C 196.921875 168.609375 212.394531 176.011719 220.996094 166.457031 C 220.996094 166.457031 223.777344 137.84375 218.542969 127.285156 L 200.441406 130.128906 " fill-opacity="1" fill-rule="nonzero"/><path fill="#ecedf4" d="M 195.679688 100.707031 C 195.679688 100.707031 199.59375 95.957031 205.109375 94.246094 C 210.625 92.527344 217.195312 91.773438 219.027344 94.246094 C 220.855469 96.714844 220.214844 102.660156 220.214844 104.398438 L 221.652344 107.730469 C 222.296875 109.234375 222.335938 110.925781 221.757812 112.457031 L 220.703125 114.9375 L 218.542969 127.285156 C 218.542969 127.285156 212.480469 136.957031 200.441406 130.128906 C 200.441406 130.128906 200.511719 125.65625 200.199219 121.601562 L 199.617188 121.117188 C 191.507812 106.1875 195.679688 100.707031 195.679688 100.707031 " fill-opacity="1" fill-rule="nonzero"/><path fill="#eeb8a7" d="M 208.972656 87.839844 L 211.519531 92.84375 L 212.195312 95.777344 L 205.878906 97.878906 L 203.097656 94.972656 C 203.097656 94.972656 204.914062 90.609375 203.65625 87.015625 L 208.972656 87.839844 " fill-opacity="1" fill-rule="nonzero"/><path fill="#e3e3e3" d="M 211.519531 92.84375 C 211.519531 92.84375 211.519531 97.097656 203.097656 94.972656 L 200.820312 96.277344 C 200.917969 98.8125 210.625 99.09375 213.015625 95.921875 C 215.40625 92.746094 213.765625 92.378906 211.519531 92.84375 " fill-opacity="1" fill-rule="nonzero"/><path fill="#ffcdbc" d="M 217.5625 79.503906 C 217.5625 79.503906 216.875 89.925781 213 92.953125 C 211.082031 94.445312 204.28125 90.082031 203.496094 86.710938 C 203.101562 85.039062 200.703125 73.601562 205.933594 72.683594 C 213.808594 71.300781 217.679688 75.65625 217.5625 79.503906 " fill-opacity="1" fill-rule="nonzero"/><path fill="#df6116" d="M 202.988281 84.019531 C 202.988281 84.019531 207.082031 81.335938 207.480469 76.21875 C 207.480469 76.21875 207.300781 79.058594 212.847656 79.59375 C 217.730469 80.0625 216.621094 81.660156 217.070312 83.378906 C 217.070312 83.378906 220.132812 72.089844 211.96875 70.597656 C 207.253906 69.734375 199.785156 71.039062 202.988281 84.019531 " fill-opacity="1" fill-rule="nonzero"/><path fill="#ffcdbc" d="M 203.445312 82.539062 C 203.542969 83.8125 204.484375 84.785156 205.546875 84.707031 C 206.609375 84.625 207.394531 83.523438 207.296875 82.246094 C 207.203125 80.96875 206.261719 80 205.199219 80.078125 C 204.136719 80.160156 203.351562 81.257812 203.445312 82.539062 " fill-opacity="1" fill-rule="nonzero"/><path fill="#b6bcca" d="M 208.246094 132.761719 C 214.742188 132.761719 218.769531 129.296875 219.246094 128.9375 L 218.75 126.097656 C 218.75 126.097656 216.4375 128.078125 213.273438 129.171875 C 209.199219 130.574219 204.285156 130.292969 200.578125 127.707031 L 200.175781 130.671875 C 202.765625 132.472656 205.734375 132.761719 208.246094 132.761719 " fill-opacity="1" fill-rule="nonzero"/><path fill="#5b79cc" d="M 228.886719 165.113281 C 224.6875 165.113281 221.289062 161.714844 221.289062 157.519531 L 221.289062 112.585938 C 221.289062 108.390625 224.6875 104.988281 228.886719 104.988281 C 233.082031 104.988281 236.484375 108.390625 236.484375 112.585938 L 236.484375 157.519531 C 236.484375 161.714844 233.082031 165.113281 228.886719 165.113281 " fill-opacity="1" fill-rule="nonzero"/><path fill="#ffffff" d="M 225.644531 122.683594 L 233.8125 122.683594 L 233.8125 123.761719 L 226.609375 123.761719 L 226.609375 127.785156 L 225.644531 127.785156 L 225.644531 122.683594 " fill-opacity="1" fill-rule="nonzero"/><path fill="#ffffff" d="M 228.605469 129.597656 C 227.847656 129.597656 227.28125 129.765625 226.902344 130.09375 C 226.523438 130.425781 226.335938 130.839844 226.335938 131.34375 C 226.335938 131.839844 226.527344 132.253906 226.90625 132.582031 C 227.285156 132.914062 227.863281 133.078125 228.640625 133.078125 C 229.371094 133.078125 229.925781 132.914062 230.304688 132.582031 C 230.679688 132.246094 230.867188 131.832031 230.867188 131.34375 C 230.867188 130.839844 230.679688 130.425781 230.304688 130.09375 C 229.929688 129.765625 229.363281 129.597656 228.605469 129.597656 Z M 228.605469 128.566406 C 229.703125 128.566406 230.515625 128.871094 231.039062 129.480469 C 231.480469 129.988281 231.699219 130.609375 231.699219 131.34375 C 231.699219 132.15625 231.429688 132.816406 230.894531 133.332031 C 230.363281 133.851562 229.628906 134.109375 228.6875 134.109375 C 227.925781 134.109375 227.328125 133.996094 226.890625 133.765625 C 226.453125 133.539062 226.117188 133.207031 225.875 132.769531 C 225.632812 132.332031 225.511719 131.859375 225.511719 131.34375 C 225.511719 130.511719 225.78125 129.84375 226.308594 129.335938 C 226.839844 128.824219 227.605469 128.566406 228.605469 128.566406 " fill-opacity="1" fill-rule="nonzero"/><path fill="#ffffff" d="M 228.710938 135.933594 C 227.933594 135.933594 227.371094 136.085938 227.011719 136.394531 C 226.65625 136.703125 226.476562 137.085938 226.476562 137.550781 C 226.476562 138.011719 226.652344 138.394531 227.007812 138.707031 C 227.363281 139.019531 227.921875 139.175781 228.679688 139.175781 C 229.402344 139.175781 229.945312 139.015625 230.316406 138.695312 C 230.683594 138.375 230.867188 137.984375 230.867188 137.535156 C 230.867188 137.085938 230.6875 136.707031 230.324219 136.398438 C 229.960938 136.085938 229.425781 135.933594 228.710938 135.933594 Z M 225.15625 135.101562 L 225.011719 136.074219 C 224.710938 136.117188 224.492188 136.226562 224.355469 136.414062 C 224.167969 136.664062 224.074219 137 224.074219 137.433594 C 224.074219 137.898438 224.167969 138.257812 224.355469 138.507812 C 224.539062 138.757812 224.800781 138.929688 225.132812 139.019531 C 225.339844 139.070312 225.765625 139.097656 226.421875 139.09375 C 225.902344 138.652344 225.644531 138.109375 225.644531 137.457031 C 225.644531 136.640625 225.9375 136.015625 226.527344 135.570312 C 227.113281 135.121094 227.820312 134.898438 228.640625 134.898438 C 229.203125 134.898438 229.722656 135.003906 230.203125 135.207031 C 230.679688 135.410156 231.050781 135.707031 231.308594 136.09375 C 231.566406 136.484375 231.699219 136.9375 231.699219 137.464844 C 231.699219 138.160156 231.414062 138.734375 230.851562 139.1875 L 231.566406 139.1875 L 231.566406 140.113281 L 226.449219 140.113281 C 225.527344 140.113281 224.875 140.015625 224.488281 139.832031 C 224.105469 139.644531 223.800781 139.34375 223.582031 138.941406 C 223.355469 138.53125 223.242188 138.035156 223.242188 137.4375 C 223.242188 136.734375 223.402344 136.164062 223.722656 135.730469 C 224.039062 135.296875 224.519531 135.085938 225.15625 135.101562 " fill-opacity="1" fill-rule="nonzero"/><path fill="#ffffff" d="M 225.644531 141.632812 L 231.566406 141.632812 L 231.566406 142.632812 L 225.644531 142.632812 Z M 232.660156 141.632812 L 233.8125 141.632812 L 233.8125 142.632812 L 232.660156 142.632812 L 232.660156 141.632812 " fill-opacity="1" fill-rule="nonzero"/><path fill="#ffffff" d="M 225.644531 144.160156 L 231.566406 144.160156 L 231.566406 145.0625 L 230.722656 145.0625 C 231.371094 145.496094 231.699219 146.125 231.699219 146.945312 C 231.699219 147.300781 231.636719 147.628906 231.503906 147.925781 C 231.378906 148.226562 231.207031 148.453125 231 148.597656 C 230.789062 148.746094 230.546875 148.851562 230.257812 148.910156 C 230.074219 148.949219 229.75 148.96875 229.285156 148.96875 L 225.644531 148.96875 L 225.644531 147.964844 L 229.246094 147.964844 C 229.652344 147.964844 229.960938 147.925781 230.164062 147.847656 C 230.363281 147.769531 230.527344 147.628906 230.648438 147.433594 C 230.769531 147.234375 230.828125 147 230.828125 146.730469 C 230.828125 146.304688 230.691406 145.9375 230.421875 145.628906 C 230.152344 145.320312 229.632812 145.164062 228.878906 145.164062 L 225.644531 145.164062 L 225.644531 144.160156 " fill-opacity="1" fill-rule="nonzero"/><path fill="#ffcdbc" d="M 218.019531 119.527344 C 218.019531 119.527344 209.101562 120.527344 205.628906 121.003906 L 207.828125 126.097656 C 212.132812 124.953125 218.632812 122.980469 218.632812 122.980469 C 218.632812 122.980469 229.078125 126.609375 228.742188 119.742188 C 228.410156 112.859375 218.019531 119.527344 218.019531 119.527344 " fill-opacity="1" fill-rule="nonzero"/><path fill="#d3d6df" d="M 195.015625 100.863281 C 200.335938 98.511719 201.855469 104.132812 202.234375 108.441406 C 202.613281 112.75 201.21875 120.300781 202.3125 120.550781 C 203.792969 120.878906 216.546875 118.585938 216.546875 118.585938 C 216.546875 118.585938 220.019531 122.28125 217 124.675781 C 217 124.675781 197.609375 130.425781 196.074219 127.511719 C 194.542969 124.601562 190.332031 102.941406 195.015625 100.863281 " fill-opacity="1" fill-rule="nonzero"/><path fill="#323232" d="M 259.238281 230.871094 L 270.703125 237.484375 L 225.316406 263.675781 L 213.851562 257.058594 L 259.238281 230.871094 " fill-opacity="1" fill-rule="nonzero"/><path fill="#ffffff" d="M 234.488281 254.519531 L 228.324219 250.964844 L 229.136719 250.492188 L 234.574219 253.628906 L 237.609375 251.878906 L 238.335938 252.296875 L 234.488281 254.519531 " fill-opacity="1" fill-rule="nonzero"/><path fill="#ffffff" d="M 237.476562 250.21875 C 238.046875 250.550781 238.597656 250.726562 239.132812 250.746094 C 239.667969 250.765625 240.121094 250.664062 240.5 250.449219 C 240.878906 250.230469 241.046875 249.96875 241.011719 249.660156 C 240.972656 249.351562 240.664062 249.027344 240.078125 248.6875 C 239.523438 248.371094 238.980469 248.199219 238.445312 248.179688 C 237.910156 248.164062 237.457031 248.261719 237.082031 248.476562 C 236.703125 248.695312 236.53125 248.957031 236.566406 249.265625 C 236.597656 249.570312 236.90625 249.886719 237.476562 250.21875 Z M 236.699219 250.667969 C 235.871094 250.191406 235.488281 249.707031 235.550781 249.210938 C 235.605469 248.800781 235.90625 248.433594 236.457031 248.113281 C 237.070312 247.761719 237.773438 247.585938 238.566406 247.59375 C 239.359375 247.601562 240.105469 247.808594 240.816406 248.21875 C 241.390625 248.550781 241.757812 248.859375 241.914062 249.148438 C 242.070312 249.4375 242.074219 249.730469 241.929688 250.023438 C 241.78125 250.320312 241.515625 250.582031 241.121094 250.804688 C 240.5 251.167969 239.792969 251.34375 239.007812 251.332031 C 238.21875 251.324219 237.449219 251.105469 236.699219 250.667969 " fill-opacity="1" fill-rule="nonzero"/><path fill="#ffffff" d="M 242.175781 247.414062 C 242.761719 247.753906 243.300781 247.933594 243.804688 247.957031 C 244.308594 247.972656 244.730469 247.886719 245.082031 247.679688 C 245.429688 247.480469 245.589844 247.234375 245.558594 246.945312 C 245.527344 246.65625 245.222656 246.34375 244.648438 246.015625 C 244.105469 245.699219 243.570312 245.53125 243.050781 245.511719 C 242.53125 245.492188 242.101562 245.582031 241.761719 245.777344 C 241.421875 245.972656 241.273438 246.21875 241.3125 246.511719 C 241.347656 246.804688 241.636719 247.105469 242.175781 247.414062 Z M 244.230469 249.324219 L 245.074219 248.960938 C 245.335938 249.078125 245.582031 249.121094 245.828125 249.101562 C 246.152344 249.074219 246.480469 248.964844 246.804688 248.78125 C 247.15625 248.578125 247.355469 248.378906 247.410156 248.1875 C 247.457031 248 247.390625 247.8125 247.203125 247.628906 C 247.09375 247.515625 246.785156 247.320312 246.289062 247.035156 C 246.347656 247.449219 246.128906 247.800781 245.636719 248.085938 C 245.023438 248.4375 244.328125 248.585938 243.546875 248.527344 C 242.769531 248.460938 242.070312 248.25 241.449219 247.898438 C 241.023438 247.648438 240.707031 247.378906 240.503906 247.082031 C 240.296875 246.785156 240.242188 246.496094 240.339844 246.214844 C 240.4375 245.929688 240.683594 245.675781 241.078125 245.449219 C 241.605469 245.144531 242.25 245.015625 243.019531 245.0625 L 242.480469 244.753906 L 243.179688 244.351562 L 247.039062 246.578125 C 247.734375 246.980469 248.152344 247.304688 248.304688 247.554688 C 248.453125 247.800781 248.457031 248.0625 248.320312 248.339844 C 248.179688 248.613281 247.886719 248.878906 247.4375 249.136719 C 246.90625 249.445312 246.355469 249.625 245.785156 249.675781 C 245.21875 249.726562 244.699219 249.609375 244.230469 249.324219 " fill-opacity="1" fill-rule="nonzero"/><path fill="#ffffff" d="M 248.789062 246.269531 L 244.328125 243.6875 L 245.082031 243.253906 L 249.546875 245.828125 Z M 243.5 243.210938 L 242.628906 242.710938 L 243.382812 242.273438 L 244.253906 242.773438 L 243.5 243.210938 " fill-opacity="1" fill-rule="nonzero"/><path fill="#ffffff" d="M 250.699219 245.167969 L 246.234375 242.589844 L 246.917969 242.195312 L 247.550781 242.5625 C 247.390625 242.089844 247.617188 241.675781 248.238281 241.316406 C 248.503906 241.164062 248.800781 241.050781 249.121094 240.972656 C 249.445312 240.898438 249.742188 240.875 250.011719 240.902344 C 250.277344 240.925781 250.542969 240.988281 250.804688 241.085938 C 250.972656 241.152344 251.230469 241.285156 251.582031 241.488281 L 254.328125 243.070312 L 253.570312 243.507812 L 250.855469 241.941406 C 250.546875 241.761719 250.289062 241.648438 250.074219 241.59375 C 249.859375 241.539062 249.636719 241.53125 249.394531 241.5625 C 249.152344 241.597656 248.933594 241.671875 248.730469 241.789062 C 248.410156 241.976562 248.234375 242.191406 248.203125 242.445312 C 248.175781 242.703125 248.445312 242.992188 249.015625 243.324219 L 251.453125 244.726562 L 250.699219 245.167969 " fill-opacity="1" fill-rule="nonzero"/><path fill="#ee6a4a" d="M 251.960938 235.070312 L 230.738281 260.546875 L 238.335938 256.164062 L 257.515625 232.289062 L 251.960938 235.070312 " fill-opacity="1" fill-rule="nonzero"/><path fill="#d5d9e5" d="M 320.027344 272.621094 L 285.175781 292.730469 L 249.828125 272.621094 L 249.828125 267.890625 L 284.652344 252.382812 L 320.027344 267.890625 L 320.027344 272.621094 " fill-opacity="1" fill-rule="nonzero"/><path fill="#ffffff" d="M 320.027344 267.890625 L 285.175781 288.003906 L 249.828125 267.890625 L 284.652344 247.652344 L 320.027344 267.890625 " fill-opacity="1" fill-rule="nonzero"/><g clip-path="url(#6d0fb9bc71)"><g clip-path="url(#9ca1696c83)"><path fill="#edab95" d="M 295.4375 283.914062 L 292.199219 281.261719 C 291.300781 280.527344 289.699219 280.285156 288.625 280.71875 C 287.554688 281.160156 287.414062 282.109375 288.3125 282.84375 L 292.027344 285.882812 L 295.4375 283.914062 " fill-opacity="1" fill-rule="nonzero"/></g></g><g clip-path="url(#aa78f63f53)"><g clip-path="url(#29a48cbfbc)"><path fill="#323232" d="M 288.242188 273.464844 C 280.9375 277.816406 285.839844 281.769531 287.257812 282.925781 L 289.652344 284.890625 L 295.300781 282.597656 L 291.691406 279.636719 C 290.410156 278.589844 288.242188 273.464844 288.242188 273.464844 " fill-opacity="1" fill-rule="nonzero"/></g></g><g clip-path="url(#76ec87ba80)"><g clip-path="url(#19e5f426c1)"><path fill="#edab95" d="M 312.695312 273.953125 L 316.109375 271.984375 L 310.84375 269.84375 C 309.570312 269.324219 307.921875 269.402344 307.164062 270.023438 C 306.410156 270.640625 306.832031 271.566406 308.101562 272.085938 L 312.695312 273.953125 " fill-opacity="1" fill-rule="nonzero"/></g></g><g clip-path="url(#c948e1a68b)"><g clip-path="url(#eaa5f92480)"><path fill="#323232" d="M 294.570312 269.804688 C 302.117188 265.589844 308.976562 268.417969 310.988281 269.230469 L 314.394531 270.617188 L 310.417969 273.875 L 305.289062 271.792969 C 303.472656 271.054688 294.570312 269.804688 294.570312 269.804688 " fill-opacity="1" fill-rule="nonzero"/></g></g><g clip-path="url(#4d74e9f90d)"><g clip-path="url(#6ebb42cc85)"><path fill="#323232" d="M 311.117188 274.863281 L 304.765625 271.195312 C 300.871094 268.949219 294.554688 268.949219 290.660156 271.195312 C 286.765625 273.445312 286.765625 277.085938 290.660156 279.335938 L 297.015625 283.003906 L 311.117188 274.863281 " fill-opacity="1" fill-rule="nonzero"/></g></g><g clip-path="url(#fa5d2796c8)"><g clip-path="url(#16131028ae)"><path fill="#f3b39d" d="M 278.253906 267.59375 C 279.179688 268.125 279.402344 268.867188 278.476562 269.402344 C 277.550781 269.933594 276.050781 269.933594 275.121094 269.402344 C 274.195312 268.867188 273.839844 268.203125 274.765625 267.667969 C 275.691406 267.136719 277.328125 267.058594 278.253906 267.59375 " fill-opacity="1" fill-rule="nonzero"/></g></g><g clip-path="url(#62b1eaf21c)"><g clip-path="url(#12ccb88f85)"><path fill="#e8a896" d="M 277.597656 267.972656 C 278.207031 268.324219 278.433594 268.769531 277.820312 269.125 C 277.207031 269.476562 276.214844 269.476562 275.601562 269.125 C 274.992188 268.769531 274.632812 268.402344 275.246094 268.050781 C 275.859375 267.695312 276.984375 267.617188 277.597656 267.972656 " fill-opacity="1" fill-rule="nonzero"/></g></g><g clip-path="url(#08ccdebaff)"><g clip-path="url(#2598c82675)"><path fill="#f3b39d" d="M 287.535156 262.234375 C 288.464844 262.769531 288.464844 263.636719 287.535156 264.171875 C 286.613281 264.707031 285.332031 264.578125 284.40625 264.042969 C 283.480469 263.507812 283.613281 262.5625 284.539062 262.027344 C 285.464844 261.496094 286.613281 261.703125 287.535156 262.234375 " fill-opacity="1" fill-rule="nonzero"/></g></g><g clip-path="url(#9c9f570400)"><g clip-path="url(#f34dc52c60)"><path fill="#e8a896" d="M 287.058594 262.511719 C 287.671875 262.867188 287.671875 263.441406 287.058594 263.792969 C 286.449219 264.148438 285.675781 264.015625 285.0625 263.664062 C 284.449219 263.308594 284.582031 262.660156 285.195312 262.304688 C 285.808594 261.953125 286.449219 262.160156 287.058594 262.511719 " fill-opacity="1" fill-rule="nonzero"/></g></g><g clip-path="url(#772019ae17)"><g clip-path="url(#bdafbe11da)"><path fill="#181818" d="M 271.832031 266.558594 L 273.792969 267.695312 C 275.515625 268.691406 276.941406 268.820312 277.683594 268.394531 L 273.167969 265.789062 L 271.832031 266.558594 " fill-opacity="1" fill-rule="nonzero"/></g></g><g clip-path="url(#79e39dbf0d)"><g clip-path="url(#517baf4245)"><path fill="#181818" d="M 281.28125 261.109375 L 285.792969 263.714844 C 286.535156 263.285156 286.097656 262.34375 284.582031 261.46875 L 282.617188 260.335938 L 281.28125 261.109375 " fill-opacity="1" fill-rule="nonzero"/></g></g><g clip-path="url(#2879fd84d0)"><g clip-path="url(#9a44d9d22b)"><path fill="#edab95" d="M 284.359375 269.945312 L 287.847656 271.957031 C 288.984375 272.617188 290.832031 272.617188 291.972656 271.957031 C 293.113281 271.300781 293.113281 270.234375 291.972656 269.574219 L 288.484375 267.5625 L 284.359375 269.945312 " fill-opacity="1" fill-rule="nonzero"/></g></g><g clip-path="url(#9c28026f60)"><g clip-path="url(#ed7aa5d6de)"><path fill="#de897c" d="M 284.359375 269.945312 L 286.828125 271.371094 C 287.753906 271.183594 288.621094 270.878906 289.363281 270.453125 C 290.097656 270.023438 290.628906 269.523438 290.953125 268.988281 L 288.484375 267.5625 L 284.359375 269.945312 " fill-opacity="1" fill-rule="nonzero"/></g></g><g clip-path="url(#2da55ec77c)"><g clip-path="url(#5b9aa5e992)"><path fill="#fbb89e" d="M 274.304688 261.761719 C 271.679688 263.277344 271.679688 265.730469 274.304688 267.246094 L 279.414062 270.195312 C 282.039062 271.710938 286.292969 271.710938 288.917969 270.195312 C 291.542969 268.683594 291.542969 266.226562 288.917969 264.710938 L 283.808594 261.761719 C 281.183594 260.25 276.929688 260.25 274.304688 261.761719 " fill-opacity="1" fill-rule="nonzero"/></g></g><g clip-path="url(#f1bce2a59c)"><g clip-path="url(#94419cba45)"><path fill="#282828" d="M 294.621094 269.816406 L 292.941406 272.515625 L 288.261719 273.488281 L 286.910156 272.007812 L 289.367188 271.363281 L 291.058594 271.433594 L 290.9375 270.453125 L 292.0625 269.039062 L 294.621094 269.816406 " fill-opacity="1" fill-rule="nonzero"/></g></g><g clip-path="url(#623604bd08)"><g clip-path="url(#327b9caaa4)"><path fill="#323232" d="M 276.960938 257.625 C 279.171875 258.761719 277.085938 259.445312 277.085938 259.445312 C 277.625 258.386719 274.753906 258.132812 274.753906 258.132812 C 268.390625 261.148438 269.09375 263.425781 270.023438 264.9375 C 270.3125 265.40625 270.964844 266.058594 271.832031 266.558594 C 272.859375 267.15625 273.648438 267.609375 273.648438 267.609375 C 273.648438 267.609375 271.1875 265.449219 276.175781 262.628906 C 277.882812 261.664062 281.152344 260.710938 284.4375 261.382812 L 282.40625 260.214844 C 281.351562 257.222656 276.960938 257.625 276.960938 257.625 " fill-opacity="1" fill-rule="nonzero"/></g></g><path fill="#ee6a4a" d="M 290.726562 251.125 L 279.878906 284.988281 L 283.5625 287.085938 L 294.246094 253.140625 L 290.726562 251.125 " fill-opacity="1" fill-rule="nonzero"/><path fill="#4168d4" d="M 153.453125 223.449219 C 151.441406 225.796875 151.710938 249.992188 149.445312 248.664062 C 138.652344 242.339844 142.695312 223.515625 142.769531 221.875 C 143.414062 207.46875 146.523438 205.03125 146.523438 205.03125 C 147.617188 204.628906 158.171875 210.222656 157.351562 212.484375 C 155.457031 217.691406 153.453125 223.449219 153.453125 223.449219 " fill-opacity="1" fill-rule="nonzero"/><path fill="#1d0f0f" d="M 152.933594 316.128906 C 153.921875 320.109375 157.210938 320.070312 160.835938 317.730469 C 164.460938 315.390625 167.296875 316.113281 170.066406 314.457031 C 176.402344 310.671875 172.445312 306.792969 172.445312 306.792969 L 154.316406 316.164062 L 152.933594 316.128906 " fill-opacity="1" fill-rule="nonzero"/><path fill="#ffffff" d="M 155.527344 318.367188 C 154.882812 318.363281 154.335938 318.128906 153.894531 317.65625 C 152.40625 316.070312 152.625 312.375 152.636719 312.21875 L 152.640625 312.164062 L 161.472656 305.691406 L 161.535156 305.710938 C 161.566406 305.722656 165.03125 306.699219 168.691406 306.699219 C 169.738281 306.699219 170.714844 306.617188 171.59375 306.457031 C 171.679688 306.441406 171.765625 306.433594 171.851562 306.433594 C 172.257812 306.433594 172.566406 306.636719 172.742188 307.011719 C 173.277344 308.15625 172.492188 310.710938 171.097656 312.375 C 169.628906 314.132812 166.285156 314.546875 163.839844 314.855469 C 162.988281 314.957031 162.257812 315.046875 161.78125 315.179688 C 161.078125 315.371094 160.742188 315.699219 160.3125 316.113281 C 159.667969 316.75 158.863281 317.539062 156.40625 318.230469 C 156.097656 318.320312 155.800781 318.367188 155.527344 318.367188 " fill-opacity="1" fill-rule="nonzero"/><path fill="#1d0f0f" d="M 161.453125 305.558594 L 161.351562 305.628906 L 152.613281 312.03125 L 152.523438 312.097656 L 152.511719 312.210938 C 152.503906 312.371094 152.28125 316.117188 153.804688 317.742188 C 154.269531 318.238281 154.847656 318.488281 155.527344 318.488281 C 155.8125 318.488281 156.117188 318.441406 156.441406 318.351562 C 158.925781 317.644531 159.742188 316.847656 160.398438 316.203125 C 160.8125 315.800781 161.140625 315.480469 161.816406 315.296875 C 162.28125 315.171875 163.007812 315.078125 163.855469 314.976562 C 166.320312 314.667969 169.691406 314.25 171.195312 312.457031 C 172.640625 310.726562 173.417969 308.160156 172.855469 306.960938 C 172.660156 306.539062 172.300781 306.3125 171.851562 306.3125 C 171.761719 306.3125 171.664062 306.320312 171.570312 306.335938 C 170.699219 306.496094 169.730469 306.574219 168.691406 306.574219 C 165.046875 306.574219 161.601562 305.601562 161.566406 305.589844 Z M 161.5 305.828125 C 161.5 305.828125 164.96875 306.820312 168.691406 306.820312 C 169.664062 306.820312 170.660156 306.753906 171.613281 306.582031 C 171.695312 306.566406 171.777344 306.558594 171.851562 306.558594 C 173.46875 306.558594 172.871094 310.066406 171.003906 312.296875 C 169.050781 314.632812 163.578125 314.5625 161.75 315.058594 C 159.925781 315.554688 160.433594 316.960938 156.371094 318.113281 C 156.0625 318.199219 155.785156 318.242188 155.527344 318.242188 C 152.371094 318.242188 152.761719 312.226562 152.761719 312.226562 L 161.5 305.828125 " fill-opacity="1" fill-rule="nonzero"/><path fill="#1d0f0f" d="M 169.105469 317.363281 C 169.566406 321.667969 173.3125 322.269531 177.753906 320.578125 C 182.195312 318.886719 185.25 320.183594 188.621094 319.039062 C 195.386719 316.75 192.535156 311.613281 192.535156 311.613281 L 170.710938 317.664062 L 169.105469 317.363281 " fill-opacity="1" fill-rule="nonzero"/><path fill="#ffffff" d="M 172.351562 320.222656 C 171.390625 320.222656 170.625 319.882812 170.070312 319.21875 C 168.449219 317.265625 169.195312 313.183594 169.226562 313.011719 L 169.242188 312.949219 L 180.15625 308.324219 L 180.203125 308.34375 C 180.265625 308.371094 186.460938 311.046875 191.640625 311.101562 C 192.390625 311.109375 192.691406 311.523438 192.808594 311.867188 C 193.242188 313.148438 191.953125 315.640625 190.101562 317.097656 C 189.03125 317.9375 187.316406 318.332031 184.703125 318.332031 C 183.613281 318.332031 182.535156 318.261719 181.578125 318.203125 C 180.828125 318.15625 180.175781 318.113281 179.660156 318.113281 C 179.5 318.113281 179.351562 318.121094 179.222656 318.128906 C 178.394531 318.183594 177.964844 318.457031 177.414062 318.804688 C 176.585938 319.328125 175.558594 319.980469 172.699219 320.207031 C 172.578125 320.21875 172.464844 320.222656 172.351562 320.222656 " fill-opacity="1" fill-rule="nonzero"/><path fill="#1d0f0f" d="M 180.15625 308.1875 L 180.058594 308.230469 L 169.253906 312.808594 L 169.132812 312.859375 L 169.105469 312.992188 C 169.074219 313.167969 168.320312 317.300781 169.976562 319.300781 C 170.554688 319.992188 171.351562 320.347656 172.351562 320.347656 C 172.46875 320.347656 172.589844 320.339844 172.710938 320.332031 C 175.601562 320.101562 176.640625 319.4375 177.484375 318.910156 C 178.015625 318.574219 178.433594 318.304688 179.230469 318.25 C 179.351562 318.246094 179.496094 318.238281 179.660156 318.238281 C 180.171875 318.238281 180.820312 318.28125 181.574219 318.328125 C 182.527344 318.386719 183.609375 318.453125 184.703125 318.453125 C 187.347656 318.453125 189.085938 318.054688 190.179688 317.195312 C 192.097656 315.683594 193.382812 313.175781 192.925781 311.824219 C 192.738281 311.289062 192.285156 310.984375 191.640625 310.980469 C 186.484375 310.921875 180.316406 308.257812 180.253906 308.230469 Z M 180.15625 308.457031 C 180.15625 308.457031 186.375 311.167969 191.636719 311.222656 C 193.832031 311.25 192.589844 314.980469 190.023438 317 C 188.789062 317.972656 186.738281 318.203125 184.703125 318.203125 C 182.769531 318.203125 180.847656 317.992188 179.660156 317.992188 C 179.496094 317.992188 179.347656 317.996094 179.210938 318.007812 C 177.085938 318.152344 177.429688 319.707031 172.691406 320.085938 C 172.574219 320.09375 172.457031 320.097656 172.351562 320.097656 C 168.019531 320.097656 169.347656 313.035156 169.347656 313.035156 L 180.15625 308.457031 " fill-opacity="1" fill-rule="nonzero"/><path fill="#2c3984" d="M 162.714844 306.125 C 162.714844 306.125 161.605469 300.589844 162.371094 295.023438 C 163.238281 288.757812 165.21875 281.550781 164.75 278.425781 C 163.90625 272.828125 163.457031 267.753906 163.457031 267.753906 C 163.457031 267.753906 167.859375 271.777344 168.402344 277.511719 C 168.945312 283.246094 168.964844 314.835938 168.964844 314.835938 C 168.964844 314.835938 178.847656 316.734375 180.4375 308.433594 C 180.4375 308.433594 178.507812 307.230469 178.507812 303.261719 C 178.507812 299.296875 181.9375 285.230469 181.214844 279.460938 C 180.492188 273.6875 177.242188 250.242188 177.242188 250.242188 L 150.015625 243.644531 C 150.015625 243.644531 149.261719 251.269531 150.015625 260.644531 C 150.472656 266.328125 152.757812 274.4375 152.449219 276.753906 C 151.621094 282.886719 151.480469 308.769531 152.640625 312.554688 C 152.640625 312.554688 159.417969 312.140625 162.714844 306.125 " fill-opacity="1" fill-rule="nonzero"/><path fill="#849ef7" d="M 151.011719 253.453125 C 149.785156 252.6875 149.042969 250.800781 149.050781 249.359375 C 149.070312 243.882812 148.726562 227.53125 144.84375 215.292969 C 143.257812 210.300781 145.730469 201.121094 150.636719 202.023438 C 157.390625 203.269531 164.03125 205.035156 169.761719 208.1875 C 172.128906 209.492188 174.601562 212.0625 176.445312 213.296875 C 179.339844 215.242188 178.832031 217.554688 178.726562 219.308594 C 177.867188 233.980469 177.949219 245.644531 178.234375 250.851562 C 178.398438 253.792969 176.6875 256.398438 173.863281 257.25 C 164.335938 260.125 154.988281 255.925781 151.011719 253.453125 " fill-opacity="1" fill-rule="nonzero"/><path fill="#4168d4" d="M 171.210938 225.820312 C 171.210938 225.820312 175.242188 237.296875 178.058594 245.117188 L 178.191406 231.496094 L 178.832031 226.519531 L 171.210938 225.820312 " fill-opacity="1" fill-rule="nonzero"/><path fill="#ffcdbc" d="M 181.792969 223.394531 C 181.792969 223.394531 183.550781 224.273438 187.417969 225.738281 C 193.253906 227.945312 193.929688 216.246094 194.527344 212.304688 C 193.972656 209.976562 198.160156 199.960938 201.492188 199.109375 C 204.820312 198.253906 203.09375 207.042969 199.265625 213.789062 C 199.265625 213.789062 198.4375 234.832031 187.589844 234.898438 C 180.9375 234.9375 178.265625 229.683594 178.265625 229.683594 L 181.792969 223.394531 " fill-opacity="1" fill-rule="nonzero"/><path fill="#ffffff" d="M 193.503906 215.351562 L 193.503906 213.316406 C 193.503906 213.316406 198.320312 213.332031 199.695312 215.378906 L 199.40625 218.042969 L 193.503906 215.351562 " fill-opacity="1" fill-rule="nonzero"/><path fill="#849ef7" d="M 199.835938 216.960938 C 199.835938 216.960938 199.910156 233.0625 191.941406 235.65625 C 183.96875 238.246094 177.847656 232.152344 177.847656 232.152344 L 181.753906 220.0625 C 181.753906 220.0625 186.414062 226.976562 189.859375 224.316406 C 192.902344 221.96875 192.855469 214.242188 192.855469 214.242188 C 192.855469 214.242188 198.007812 214.191406 199.835938 216.960938 " fill-opacity="1" fill-rule="nonzero"/><path fill="#849ef7" d="M 183.988281 223.097656 C 186.492188 226.738281 181.367188 234.625 178.566406 232.652344 C 175.183594 230.265625 170.839844 227.761719 170.292969 225.070312 C 169.070312 219.035156 173.960938 212.125 177.066406 213.765625 C 178.78125 214.671875 180.4375 218.402344 181.871094 220.210938 C 183.121094 221.785156 183.988281 223.097656 183.988281 223.097656 " fill-opacity="1" fill-rule="nonzero"/><path fill="#1a1b1d" d="M 177.207031 192.550781 L 174.183594 190.382812 L 174.09375 191.179688 L 176.460938 192.878906 C 176.460938 192.878906 176.613281 195.113281 175.457031 195.089844 C 174.300781 195.0625 173.679688 194.199219 173.679688 194.199219 L 173.476562 194.929688 C 173.476562 194.929688 175.234375 196.351562 176.058594 195.769531 C 176.882812 195.195312 177.289062 193.703125 177.207031 192.550781 " fill-opacity="1" fill-rule="nonzero"/><path fill="#fdcbba" d="M 165.996094 203.304688 L 167.6875 202.347656 L 158.777344 196.726562 C 158.832031 197.402344 158.917969 198.113281 158.851562 198.550781 C 158.359375 201.613281 155.6875 203.304688 155.6875 203.304688 C 153.058594 209.664062 165.921875 207.816406 165.921875 207.816406 C 163.746094 205.058594 165.996094 203.304688 165.996094 203.304688 " fill-opacity="1" fill-rule="nonzero"/><path fill="#fdcbba" d="M 158.777344 196.726562 C 159.144531 193.644531 156.8125 186.535156 160.851562 183.695312 C 168.269531 178.46875 176.722656 183.058594 175.789062 190.449219 C 174.855469 197.839844 173.519531 203.011719 171.417969 203.542969 C 169.34375 204.070312 165.90625 203.398438 165.90625 203.398438 C 162.429688 202.808594 158.394531 199.988281 158.777344 196.726562 " fill-opacity="1" fill-rule="nonzero"/><path fill="#1e1e1e" d="M 159.832031 198.683594 C 163.300781 200.609375 166.253906 200.125 167.894531 197.9375 C 169.539062 195.75 167.835938 191.5625 172.984375 190.800781 C 174.566406 190.566406 176.375 190.578125 177.203125 188.03125 C 177.589844 186.84375 177.65625 184.851562 176.558594 183.023438 C 175.304688 180.933594 172.515625 179.050781 166.925781 178.820312 C 154.390625 178.300781 154.96875 195.992188 159.832031 198.683594 " fill-opacity="1" fill-rule="nonzero"/><path fill="#1a1b1d" d="M 168.621094 194.183594 L 176.460938 192.878906 L 176.667969 193.546875 L 176.570312 194.042969 L 168.464844 194.984375 L 168.621094 194.183594 " fill-opacity="1" fill-rule="nonzero"/><path fill="#fdcbba" d="M 169.675781 195.820312 C 169.585938 197.285156 168.550781 198.902344 167.324219 198.824219 C 166.101562 198.746094 165.160156 197.003906 165.253906 195.535156 C 165.347656 194.066406 166.414062 192.941406 167.636719 193.019531 C 168.859375 193.097656 169.773438 194.351562 169.675781 195.820312 " fill-opacity="1" fill-rule="nonzero"/><path fill="#4168d4" d="M 153.171875 202.417969 C 153.171875 202.417969 150.355469 207.429688 158.84375 210.09375 C 166.183594 212.390625 167.382812 207.671875 167.382812 207.671875 L 159.097656 207.464844 L 153.171875 202.417969 " fill-opacity="1" fill-rule="nonzero"/><path fill="#ffffff" d="M 153.171875 202.417969 C 153.171875 202.417969 151.121094 205.867188 158.414062 208.722656 C 165.441406 211.46875 167.382812 207.671875 167.382812 207.671875 C 167.382812 207.671875 167.3125 205.121094 164.636719 206.121094 C 162.570312 206.886719 157.914062 205.476562 156.199219 202.238281 C 155.398438 200.730469 153.171875 202.417969 153.171875 202.417969 " fill-opacity="1" fill-rule="nonzero"/><path fill="#ffffff" d="M 191.113281 208.238281 L 198.207031 210.101562 C 198.574219 210.203125 198.980469 209.972656 199.09375 209.597656 L 203.726562 194.273438 C 203.839844 193.914062 203.636719 193.554688 203.277344 193.46875 L 196.003906 191.71875 C 195.636719 191.628906 195.242188 191.859375 195.132812 192.230469 L 190.675781 207.441406 C 190.570312 207.792969 190.765625 208.144531 191.113281 208.238281 " fill-opacity="1" fill-rule="nonzero"/><path fill="#202b76" d="M 191.476562 207.394531 L 198.402344 209.3125 L 202.929688 194.347656 L 195.800781 192.648438 L 191.476562 207.394531 " fill-opacity="1" fill-rule="nonzero"/><path fill="#ffcdbc" d="M 194.984375 211.285156 C 194.984375 211.285156 190.601562 207.316406 192.839844 206.792969 C 193.914062 206.539062 196.847656 209.746094 196.847656 209.746094 L 194.984375 211.285156 " fill-opacity="1" fill-rule="nonzero"/><path fill="#000000" d="M 152.226562 148.511719 C 151.203125 148.449219 150.484375 147.929688 150.074219 146.957031 C 149.664062 145.984375 149.457031 144.5625 149.457031 142.695312 L 149.457031 125.824219 L 153.890625 123.265625 L 153.890625 140.65625 C 153.890625 142.09375 154.0625 143.105469 154.402344 143.6875 C 154.738281 144.273438 155.433594 144.265625 156.476562 143.660156 C 157.546875 143.042969 158.25 142.25 158.589844 141.273438 C 158.929688 140.296875 159.097656 139.089844 159.097656 137.65625 L 159.097656 120.261719 L 163.503906 117.722656 L 163.503906 134.589844 C 163.503906 136.4375 163.296875 138.089844 162.886719 139.546875 C 162.476562 141.003906 161.757812 142.359375 160.730469 143.609375 C 159.703125 144.855469 158.289062 146.003906 156.476562 147.042969 C 154.671875 148.089844 153.257812 148.574219 152.226562 148.511719 " fill-opacity="1" fill-rule="nonzero"/><path fill="#000000" d="M 170.523438 125.367188 L 165.65625 116.476562 L 169.910156 114.023438 L 173.144531 119.914062 L 175.976562 110.523438 L 179.886719 108.265625 L 175.117188 123.582031 L 180.257812 132.988281 L 176.039062 135.421875 L 172.496094 129.058594 L 169.414062 139.242188 L 165.503906 141.5 L 170.523438 125.367188 " fill-opacity="1" fill-rule="nonzero"/><path fill="#e7e7e7" d="M 168.675781 150.636719 L 167.566406 150.636719 L 167.566406 148.96875 L 168.675781 148.96875 L 168.675781 150.636719 " fill-opacity="1" fill-rule="nonzero"/><path fill="#e7e7e7" d="M 168.675781 156.210938 L 167.566406 156.210938 L 167.566406 153.425781 L 168.675781 153.425781 Z M 168.675781 161.785156 L 167.566406 161.785156 L 167.566406 158.996094 L 168.675781 158.996094 L 168.675781 161.785156 " fill-opacity="1" fill-rule="nonzero"/><path fill="#e7e7e7" d="M 167.566406 167.195312 L 167.566406 164.570312 L 168.675781 164.570312 L 168.675781 165.285156 L 169.304688 164.9375 L 169.851562 165.90625 L 167.566406 167.195312 " fill-opacity="1" fill-rule="nonzero"/><path fill="#e7e7e7" d="M 215.21875 140.402344 L 214.675781 139.429688 L 217.695312 137.730469 L 218.242188 138.699219 Z M 209.167969 143.800781 L 208.625 142.832031 L 211.648438 141.132812 L 212.195312 142.097656 Z M 203.121094 147.203125 L 202.574219 146.230469 L 205.601562 144.527344 L 206.144531 145.503906 Z M 197.070312 150.605469 L 196.523438 149.632812 L 199.550781 147.933594 L 200.09375 148.902344 Z M 191.023438 154.003906 L 190.476562 153.035156 L 193.5 151.332031 L 194.046875 152.304688 Z M 184.976562 157.40625 L 184.425781 156.433594 L 187.449219 154.734375 L 188 155.707031 Z M 178.925781 160.804688 L 178.378906 159.835938 L 181.402344 158.132812 L 181.949219 159.105469 Z M 172.875 164.207031 L 172.332031 163.234375 L 175.355469 161.535156 L 175.898438 162.507812 L 172.875 164.207031 " fill-opacity="1" fill-rule="nonzero"/><path fill="#e7e7e7" d="M 221.269531 137 L 220.71875 136.027344 L 222.179688 135.207031 L 222.722656 136.179688 L 221.269531 137 " fill-opacity="1" fill-rule="nonzero"/><path fill="#ececec" d="M 171.101562 147.25 C 171.101562 148.890625 169.765625 150.996094 168.121094 151.945312 C 166.476562 152.894531 165.140625 152.328125 165.140625 150.6875 C 165.140625 149.039062 166.476562 146.9375 168.121094 145.988281 C 169.765625 145.039062 171.101562 145.601562 171.101562 147.25 " fill-opacity="1" fill-rule="nonzero"/><path fill="#ececec" d="M 201.554688 288.242188 C 201.554688 289.890625 202.886719 291.992188 204.535156 292.945312 C 206.175781 293.894531 207.511719 293.328125 207.511719 291.683594 C 207.511719 290.039062 206.175781 287.933594 204.535156 286.988281 C 202.886719 286.039062 201.554688 286.601562 201.554688 288.242188 " fill-opacity="1" fill-rule="nonzero"/><path fill="#ffffff" d="M 195.84375 210.691406 L 194.730469 210.691406 L 194.730469 207.351562 L 195.84375 207.351562 Z M 195.84375 217.375 L 194.730469 217.375 L 194.730469 214.03125 L 195.84375 214.03125 Z M 195.84375 224.058594 L 194.730469 224.058594 L 194.730469 220.714844 L 195.84375 220.714844 Z M 195.84375 230.742188 L 194.730469 230.742188 L 194.730469 227.398438 L 195.84375 227.398438 Z M 195.84375 237.425781 L 194.730469 237.425781 L 194.730469 234.082031 L 195.84375 234.082031 Z M 195.84375 244.109375 L 194.730469 244.109375 L 194.730469 240.765625 L 195.84375 240.765625 Z M 195.84375 250.789062 L 194.730469 250.789062 L 194.730469 247.449219 L 195.84375 247.449219 Z M 195.84375 257.476562 L 194.730469 257.476562 L 194.730469 254.132812 L 195.84375 254.132812 Z M 195.84375 264.15625 L 194.730469 264.15625 L 194.730469 260.816406 L 195.84375 260.816406 Z M 195.84375 270.839844 L 194.730469 270.839844 L 194.730469 267.5 L 195.84375 267.5 Z M 195.84375 277.523438 L 194.730469 277.523438 L 194.730469 274.183594 L 195.84375 274.183594 Z M 195.84375 284.207031 L 194.730469 284.207031 L 194.730469 280.863281 L 195.84375 280.863281 Z M 200.5625 288.226562 L 197.699219 286.5 L 198.277344 285.542969 L 201.140625 287.269531 Z M 204.246094 290.441406 L 203.429688 289.949219 L 204.003906 288.996094 L 204.820312 289.484375 L 204.246094 290.441406 " fill-opacity="1" fill-rule="nonzero"/><path fill="#1e8061" d="M 137.789062 61.046875 C 126.425781 67.605469 117.214844 82.125 117.214844 93.476562 C 117.214844 101.242188 124.796875 107.933594 131.152344 107.765625 C 134.089844 107.6875 134.195312 104.242188 137.789062 102.171875 C 149.152344 95.613281 158.359375 81.089844 158.359375 69.738281 C 158.359375 67.84375 161.3125 66.144531 160.714844 64.726562 C 157.992188 58.226562 147.253906 55.582031 137.789062 61.046875 " fill-opacity="1" fill-rule="nonzero"/><path fill="#39bc92" d="M 141.96875 63.457031 C 130.605469 70.015625 121.394531 84.535156 121.394531 95.890625 C 121.394531 107.246094 130.605469 111.136719 141.96875 104.582031 C 153.332031 98.023438 162.539062 83.503906 162.539062 72.148438 C 162.539062 60.792969 153.332031 56.902344 141.96875 63.457031 " fill-opacity="1" fill-rule="nonzero"/><path fill="#ffffff" d="M 140.339844 97.679688 L 128.921875 93.628906 L 132.398438 87.894531 L 139.96875 90.578125 L 152.410156 69.203125 L 156.246094 70.347656 L 140.339844 97.679688 " fill-opacity="1" fill-rule="nonzero"/><path fill="#d74f41" d="M 122.789062 135.925781 C 115.601562 140.074219 109.769531 149.261719 109.769531 156.445312 C 109.769531 161.386719 113.652344 165.203125 118.476562 165.546875 C 120.320312 165.679688 120.539062 163.246094 122.789062 161.949219 C 129.980469 157.800781 135.808594 148.609375 135.808594 141.425781 C 135.808594 140.238281 137.929688 139.429688 137.558594 138.535156 C 135.660156 134.003906 128.792969 132.460938 122.789062 135.925781 " fill-opacity="1" fill-rule="nonzero"/><path fill="#fc7660" d="M 125.574219 137.535156 C 118.386719 141.683594 112.558594 150.871094 112.558594 158.054688 C 112.558594 165.242188 118.386719 167.703125 125.574219 163.554688 C 132.765625 159.40625 138.59375 150.21875 138.59375 143.03125 C 138.59375 135.847656 132.765625 133.382812 125.574219 137.535156 " fill-opacity="1" fill-rule="nonzero"/><path fill="#ffffff" d="M 133.171875 140.851562 L 130.890625 139.886719 L 125.574219 148.265625 L 120.261719 146.019531 L 117.980469 149.617188 L 123.292969 151.863281 L 117.980469 160.238281 L 120.261719 161.199219 L 125.574219 152.824219 L 130.890625 155.066406 L 133.171875 151.46875 L 127.855469 149.226562 L 133.171875 140.851562 " fill-opacity="1" fill-rule="nonzero"/></svg>