<svg xmlns="http://www.w3.org/2000/svg" xmlns:xlink="http://www.w3.org/1999/xlink" width="500" zoomAndPan="magnify" viewBox="0 0 375 374.999991" height="500" preserveAspectRatio="xMidYMid meet" version="1.0"><defs><clipPath id="2bd745995d"><path d="M 0 0.703125 L 375 0.703125 L 375 374.203125 L 0 374.203125 Z M 0 0.703125 " clip-rule="nonzero"/></clipPath></defs><rect x="-37.5" width="450" fill="#ffffff" y="-37.499999" height="449.999989" fill-opacity="1"/><rect x="-37.5" width="450" fill="#ffffff" y="-37.499999" height="449.999989" fill-opacity="1"/><g clip-path="url(#2bd745995d)"><path fill="#3c67d3" d="M 187.5 0.824219 C 84.117188 0.824219 0 84.554688 0 187.464844 C 0 290.371094 84.117188 374.101562 187.5 374.101562 C 290.882812 374.101562 375 290.371094 375 187.464844 C 375 84.554688 290.882812 0.824219 187.5 0.824219 M 187.5 24.15625 C 220.617188 24.15625 251.410156 34.046875 277.214844 50.917969 C 268.238281 55.878906 259.917969 66.339844 259.917969 88.542969 C 259.917969 100.351562 268.003906 114.042969 277.355469 129.90625 C 288.585938 148.945312 302.503906 172.625 299.015625 189.722656 C 295.171875 201.039062 285.421875 226.730469 274.851562 254.140625 L 226.40625 115.5625 C 227.390625 115.304688 228.492188 115.140625 229.425781 114.835938 C 235.570312 112.808594 238.875 106.207031 236.835938 100.097656 C 234.769531 93.980469 228.164062 90.738281 222 92.722656 C 212.011719 96.035156 193.945312 95.964844 183.09375 95.9375 L 176.578125 95.9375 C 165.796875 95.964844 147.660156 96.035156 137.671875 92.722656 C 131.597656 90.667969 124.945312 93.984375 122.882812 100.097656 C 120.820312 106.207031 124.148438 112.808594 130.289062 114.835938 C 135.234375 116.492188 141.070312 117.382812 147.027344 118.03125 L 175.851562 192.640625 L 148.59375 261.089844 L 102.023438 116.070312 C 103.730469 115.679688 105.558594 115.375 107.132812 114.835938 C 113.273438 112.808594 116.597656 106.207031 114.535156 100.097656 C 112.476562 93.980469 105.867188 90.667969 99.726562 92.722656 C 89.761719 96.035156 71.648438 95.9375 60.796875 95.9375 L 57.585938 95.9375 C 55.472656 95.9375 53.738281 95.773438 51.960938 95.640625 C 81.511719 52.523438 131.226562 24.15625 187.5 24.15625 M 23.4375 187.464844 C 23.4375 169.125 26.625 151.535156 32.25 135.0625 L 104.15625 327.886719 C 55.941406 299.398438 23.4375 247.210938 23.4375 187.464844 M 140.835938 343.957031 L 188.273438 224.792969 L 234.304688 343.9375 C 219.46875 348.324219 203.765625 350.769531 187.5 350.769531 C 171.28125 350.769531 155.644531 348.324219 140.835938 343.957031 M 271.382812 327.535156 C 286.570312 288.785156 312.726562 221.664062 320.574219 198.964844 L 320.878906 199.058594 C 321.207031 198.125 321.558594 196.914062 321.792969 195.488281 C 324.441406 188.160156 326.695312 181.46875 328.5 175.824219 C 334.289062 157.597656 337.96875 141.570312 339.886719 127.386719 C 347.339844 146.003906 351.5625 166.234375 351.5625 187.460938 C 351.5625 246.976562 319.3125 299.003906 271.382812 327.535156 " fill-opacity="1" fill-rule="nonzero"/></g></svg>