<svg xmlns="http://www.w3.org/2000/svg" xmlns:xlink="http://www.w3.org/1999/xlink" width="500" zoomAndPan="magnify" viewBox="0 0 375 374.999991" height="500" preserveAspectRatio="xMidYMid meet" version="1.0"><defs><g/><clipPath id="67469ad9f1"><path d="M 97 193 L 119 193 L 119 230.511719 L 97 230.511719 Z M 97 193 " clip-rule="nonzero"/></clipPath><clipPath id="bc7b31a7c0"><path d="M 92 144.484375 L 113 144.484375 L 113 184 L 92 184 Z M 92 144.484375 " clip-rule="nonzero"/></clipPath><clipPath id="4389433492"><path d="M 108 175 L 147.894531 175 L 147.894531 196 L 108 196 Z M 108 175 " clip-rule="nonzero"/></clipPath><clipPath id="e69eb05c6d"><path d="M 61.644531 179 L 100 179 L 100 202 L 61.644531 202 Z M 61.644531 179 " clip-rule="nonzero"/></clipPath></defs><rect x="-37.5" width="450" fill="#ffffff" y="-37.499999" height="449.999989" fill-opacity="1"/><rect x="-37.5" width="450" fill="#ffffff" y="-37.499999" height="449.999989" fill-opacity="1"/><path fill="#1c4475" d="M 117.695312 160.417969 C 116.597656 160.417969 115.710938 161.304688 115.710938 162.398438 C 115.710938 163.496094 116.597656 164.382812 117.695312 164.382812 C 118.789062 164.382812 119.675781 163.496094 119.675781 162.398438 C 119.675781 161.304688 118.789062 160.417969 117.695312 160.417969 Z M 119.328125 166.320312 L 119.328125 188.394531 L 116.0625 188.394531 L 116.0625 166.320312 C 114.527344 165.679688 113.449219 164.164062 113.449219 162.398438 C 113.449219 160.054688 115.347656 158.15625 117.695312 158.15625 C 120.039062 158.15625 121.9375 160.054688 121.9375 162.398438 C 121.9375 164.164062 120.859375 165.679688 119.328125 166.320312 " fill-opacity="1" fill-rule="nonzero"/><g clip-path="url(#67469ad9f1)"><path fill="#1c4475" d="M 101.328125 224.507812 C 100.230469 224.507812 99.34375 225.394531 99.34375 226.492188 C 99.34375 227.585938 100.230469 228.472656 101.328125 228.472656 C 102.421875 228.472656 103.308594 227.585938 103.308594 226.492188 C 103.308594 225.394531 102.421875 224.507812 101.328125 224.507812 Z M 114.152344 193.757812 C 114.246094 193.703125 114.332031 193.640625 114.417969 193.578125 C 114.90625 193.667969 115.40625 193.714844 115.917969 193.714844 L 118.511719 193.714844 C 117.914062 194.859375 117.007812 195.839844 115.855469 196.542969 C 113.683594 197.871094 111.03125 197.96875 108.765625 196.808594 C 107.519531 196.167969 106.0625 196.222656 104.867188 196.953125 C 103.671875 197.683594 102.960938 198.953125 102.960938 200.355469 L 102.960938 222.570312 C 104.492188 223.210938 105.570312 224.726562 105.570312 226.492188 C 105.570312 228.835938 103.671875 230.734375 101.328125 230.734375 C 98.980469 230.734375 97.082031 228.835938 97.082031 226.492188 C 97.082031 224.726562 98.160156 223.210938 99.695312 222.570312 L 99.695312 200.355469 C 99.695312 197.808594 100.992188 195.492188 103.164062 194.167969 C 105.339844 192.839844 107.988281 192.738281 110.253906 193.902344 C 111.5 194.542969 112.957031 194.488281 114.152344 193.757812 " fill-opacity="1" fill-rule="nonzero"/></g><path fill="#1c4475" d="M 92.070312 214.582031 C 93.164062 214.582031 94.054688 213.695312 94.054688 212.601562 C 94.054688 211.503906 93.164062 210.617188 92.070312 210.617188 C 90.976562 210.617188 90.085938 211.503906 90.085938 212.601562 C 90.085938 213.695312 90.976562 214.582031 92.070312 214.582031 Z M 90.4375 208.679688 L 90.4375 186.601562 L 92.027344 186.601562 C 92.640625 186.601562 93.21875 186.789062 93.703125 187.121094 L 93.703125 208.679688 C 95.238281 209.320312 96.316406 210.832031 96.316406 212.601562 C 96.316406 214.945312 94.414062 216.84375 92.070312 216.84375 C 89.726562 216.84375 87.824219 214.945312 87.824219 212.601562 C 87.824219 210.832031 88.902344 209.320312 90.4375 208.679688 " fill-opacity="1" fill-rule="nonzero"/><g clip-path="url(#bc7b31a7c0)"><path fill="#1c4475" d="M 108.4375 146.527344 C 107.34375 146.527344 106.453125 147.414062 106.453125 148.507812 C 106.453125 149.605469 107.34375 150.492188 108.4375 150.492188 C 109.53125 150.492188 110.421875 149.605469 110.421875 148.507812 C 110.421875 147.414062 109.53125 146.527344 108.4375 146.527344 Z M 110.070312 152.429688 L 110.070312 176.464844 C 110.070312 179.011719 108.773438 181.324219 106.597656 182.652344 C 104.425781 183.980469 101.773438 184.078125 99.507812 182.914062 C 98.582031 182.441406 97.539062 182.351562 96.570312 182.632812 C 95.398438 181.863281 94.035156 181.398438 92.589844 181.304688 C 92.980469 180.917969 93.421875 180.570312 93.910156 180.273438 C 96.082031 178.945312 98.734375 178.847656 101 180.011719 C 102.246094 180.648438 103.703125 180.597656 104.894531 179.867188 C 106.089844 179.136719 106.804688 177.863281 106.804688 176.464844 L 106.804688 152.425781 C 105.269531 151.789062 104.191406 150.273438 104.191406 148.507812 C 104.191406 146.164062 106.09375 144.261719 108.4375 144.261719 C 110.78125 144.261719 112.683594 146.164062 112.683594 148.507812 C 112.683594 150.273438 111.605469 151.789062 110.070312 152.429688 " fill-opacity="1" fill-rule="nonzero"/></g><g clip-path="url(#4389433492)"><path fill="#009eed" d="M 143.875 189.074219 C 142.777344 189.074219 141.890625 189.960938 141.890625 191.054688 C 141.890625 192.152344 142.777344 193.039062 143.875 193.039062 C 144.96875 193.039062 145.855469 192.152344 145.855469 191.054688 C 145.855469 189.960938 144.96875 189.074219 143.875 189.074219 Z M 143.875 195.300781 C 142.109375 195.300781 140.59375 194.222656 139.953125 192.6875 L 115.917969 192.6875 C 113.371094 192.6875 111.058594 191.390625 109.730469 189.214844 C 108.402344 187.042969 108.300781 184.390625 109.464844 182.125 C 109.683594 181.703125 109.816406 181.257812 109.875 180.808594 C 110.664062 179.527344 111.097656 178.035156 111.097656 176.464844 L 111.097656 175.226562 C 111.476562 175.613281 111.816406 176.046875 112.105469 176.527344 C 113.433594 178.699219 113.535156 181.351562 112.371094 183.617188 C 111.730469 184.863281 111.785156 186.320312 112.515625 187.515625 C 113.246094 188.707031 114.515625 189.421875 115.917969 189.421875 L 139.953125 189.421875 C 140.59375 187.886719 142.109375 186.808594 143.875 186.808594 C 146.21875 186.808594 148.117188 188.710938 148.117188 191.054688 C 148.117188 193.398438 146.21875 195.300781 143.875 195.300781 " fill-opacity="1" fill-rule="nonzero"/></g><path fill="#009eed" d="M 79.78125 172.703125 C 78.6875 172.703125 77.800781 173.59375 77.800781 174.6875 C 77.800781 175.78125 78.6875 176.671875 79.78125 176.671875 C 80.878906 176.671875 81.765625 175.78125 81.765625 174.6875 C 81.765625 173.59375 80.878906 172.703125 79.78125 172.703125 Z M 105.777344 176.320312 L 83.703125 176.320312 C 83.0625 177.855469 81.546875 178.933594 79.78125 178.933594 C 77.4375 178.933594 75.535156 177.03125 75.535156 174.6875 C 75.535156 172.34375 77.4375 170.441406 79.78125 170.441406 C 81.546875 170.441406 83.0625 171.519531 83.703125 173.054688 L 105.777344 173.054688 L 105.777344 176.320312 " fill-opacity="1" fill-rule="nonzero"/><g clip-path="url(#e69eb05c6d)"><path fill="#009eed" d="M 65.890625 181.960938 C 64.796875 181.960938 63.90625 182.847656 63.90625 183.945312 C 63.90625 185.039062 64.796875 185.925781 65.890625 185.925781 C 66.984375 185.925781 67.875 185.039062 67.875 183.945312 C 67.875 182.847656 66.984375 181.960938 65.890625 181.960938 Z M 98.625 196.769531 C 98.785156 197.03125 98.96875 197.265625 99.175781 197.480469 C 98.84375 198.382812 98.667969 199.351562 98.667969 200.355469 L 98.667969 201.128906 C 97.523438 200.53125 96.542969 199.625 95.835938 198.472656 C 94.511719 196.300781 94.410156 193.648438 95.574219 191.382812 C 96.214844 190.136719 96.160156 188.679688 95.429688 187.484375 C 94.699219 186.289062 93.425781 185.578125 92.027344 185.578125 L 69.808594 185.578125 C 69.171875 187.109375 67.65625 188.1875 65.890625 188.1875 C 63.546875 188.1875 61.644531 186.289062 61.644531 183.945312 C 61.644531 181.597656 63.546875 179.699219 65.890625 179.699219 C 67.65625 179.699219 69.171875 180.777344 69.808594 182.3125 L 92.027344 182.3125 C 94.574219 182.3125 96.886719 183.609375 98.214844 185.78125 C 99.542969 187.957031 99.640625 190.605469 98.480469 192.875 C 97.839844 194.117188 97.894531 195.574219 98.625 196.769531 " fill-opacity="1" fill-rule="nonzero"/></g><path fill="#009eed" d="M 129.980469 198.328125 C 128.886719 198.328125 128 199.214844 128 200.3125 C 128 201.40625 128.886719 202.292969 129.980469 202.292969 C 131.078125 202.292969 131.964844 201.40625 131.964844 200.3125 C 131.964844 199.214844 131.078125 198.328125 129.980469 198.328125 Z M 129.980469 204.554688 C 128.214844 204.554688 126.703125 203.476562 126.0625 201.945312 L 103.984375 201.945312 L 103.984375 200.355469 C 103.984375 199.742188 104.171875 199.164062 104.503906 198.679688 L 126.0625 198.679688 C 126.703125 197.144531 128.214844 196.066406 129.980469 196.066406 C 132.328125 196.066406 134.226562 197.96875 134.226562 200.3125 C 134.226562 202.65625 132.328125 204.554688 129.980469 204.554688 " fill-opacity="1" fill-rule="nonzero"/><g fill="#1c4475" fill-opacity="1"><g transform="translate(154.619438, 192.639746)"><g><path d="M 4.234375 -5.640625 L 4.234375 -4.515625 L 2.953125 -4.515625 L 2.953125 -1.125 L 4.234375 -1.125 L 4.234375 0 L 0.40625 0 L 0.40625 -1.125 L 1.6875 -1.125 L 1.6875 -4.515625 L 0.40625 -4.515625 L 0.40625 -5.640625 Z M 4.234375 -5.640625 "/></g></g></g><g fill="#1c4475" fill-opacity="1"><g transform="translate(160.438526, 192.639746)"><g><path d="M 4.78125 -1.125 L 4.78125 -5.640625 L 6.0625 -5.640625 L 6.0625 0 L 3.546875 0 L 2.125 -4.515625 L 1.765625 -4.515625 L 1.765625 0 L 0.484375 0 L 0.484375 -5.640625 L 3 -5.640625 L 4.421875 -1.125 Z M 4.78125 -1.125 "/></g></g></g><g fill="#1c4475" fill-opacity="1"><g transform="translate(168.162382, 192.639746)"><g><path d="M 1.765625 0 L 0.484375 0 L 0.484375 -5.640625 L 4.5 -5.640625 L 4.5 -4.515625 L 1.765625 -4.515625 L 1.765625 -2.890625 L 4.3125 -3.0625 L 4.3125 -1.921875 L 1.765625 -1.765625 Z M 1.765625 0 "/></g></g></g><g fill="#1c4475" fill-opacity="1"><g transform="translate(174.165541, 192.639746)"><g><path d="M 0.40625 -2.828125 C 0.40625 -3.367188 0.519531 -3.859375 0.75 -4.296875 C 0.976562 -4.734375 1.304688 -5.078125 1.734375 -5.328125 C 2.171875 -5.585938 2.6875 -5.71875 3.28125 -5.71875 C 3.875 -5.71875 4.382812 -5.585938 4.8125 -5.328125 C 5.238281 -5.078125 5.566406 -4.734375 5.796875 -4.296875 C 6.035156 -3.859375 6.15625 -3.367188 6.15625 -2.828125 C 6.15625 -2.273438 6.035156 -1.78125 5.796875 -1.34375 C 5.566406 -0.90625 5.238281 -0.554688 4.8125 -0.296875 C 4.382812 -0.046875 3.875 0.078125 3.28125 0.078125 C 2.6875 0.078125 2.171875 -0.046875 1.734375 -0.296875 C 1.304688 -0.554688 0.976562 -0.90625 0.75 -1.34375 C 0.519531 -1.78125 0.40625 -2.273438 0.40625 -2.828125 Z M 1.6875 -2.828125 C 1.6875 -2.285156 1.816406 -1.851562 2.078125 -1.53125 C 2.347656 -1.207031 2.75 -1.046875 3.28125 -1.046875 C 3.8125 -1.046875 4.207031 -1.207031 4.46875 -1.53125 C 4.738281 -1.851562 4.875 -2.285156 4.875 -2.828125 C 4.875 -3.359375 4.738281 -3.785156 4.46875 -4.109375 C 4.207031 -4.429688 3.8125 -4.59375 3.28125 -4.59375 C 2.75 -4.59375 2.347656 -4.429688 2.078125 -4.109375 C 1.816406 -3.785156 1.6875 -3.359375 1.6875 -2.828125 Z M 1.6875 -2.828125 "/></g></g></g><g fill="#1c4475" fill-opacity="1"><g transform="translate(181.897404, 192.639746)"><g><path d="M 1.765625 0 L 0.484375 0 L 0.484375 -5.640625 L 2.65625 -5.640625 C 3 -5.640625 3.320312 -5.613281 3.625 -5.5625 C 3.925781 -5.519531 4.191406 -5.441406 4.421875 -5.328125 C 4.660156 -5.210938 4.84375 -5.050781 4.96875 -4.84375 C 5.101562 -4.632812 5.171875 -4.375 5.171875 -4.0625 C 5.171875 -3.75 5.097656 -3.503906 4.953125 -3.328125 C 4.816406 -3.160156 4.640625 -3.035156 4.421875 -2.953125 C 4.203125 -2.878906 3.976562 -2.828125 3.75 -2.796875 L 3.75 -2.484375 L 4.5625 -2.484375 C 5.019531 -2.484375 5.25 -2.253906 5.25 -1.796875 L 5.25 0 L 3.96875 0 L 3.96875 -1.984375 L 1.765625 -1.984375 Z M 1.765625 -4.515625 L 1.765625 -3.109375 L 2.65625 -3.109375 C 2.914062 -3.109375 3.132812 -3.113281 3.3125 -3.125 C 3.5 -3.144531 3.640625 -3.203125 3.734375 -3.296875 C 3.835938 -3.398438 3.890625 -3.570312 3.890625 -3.8125 C 3.890625 -4.050781 3.835938 -4.21875 3.734375 -4.3125 C 3.640625 -4.414062 3.5 -4.472656 3.3125 -4.484375 C 3.132812 -4.503906 2.914062 -4.515625 2.65625 -4.515625 Z M 1.765625 -4.515625 "/></g></g></g><g fill="#1c4475" fill-opacity="1"><g transform="translate(188.804936, 192.639746)"><g><path d="M 4.140625 -1.125 L 4.96875 -5.640625 L 7.484375 -5.640625 L 7.484375 0 L 6.203125 0 L 6.203125 -4.515625 L 6.015625 -4.515625 L 5.140625 0 L 2.828125 0 L 1.953125 -4.515625 L 1.765625 -4.515625 L 1.765625 0 L 0.484375 0 L 0.484375 -5.640625 L 3 -5.640625 L 3.828125 -1.125 Z M 4.140625 -1.125 "/></g></g></g><g fill="#1c4475" fill-opacity="1"><g transform="translate(197.953379, 192.639746)"><g><path d="M 6.0625 0 L 4.765625 0 L 4.296875 -1.40625 L 1.921875 -1.40625 L 1.453125 0 L 0.15625 0 L 2.0625 -5.640625 L 4.140625 -5.640625 Z M 2.9375 -4.515625 L 2.28125 -2.53125 L 3.921875 -2.53125 L 3.265625 -4.515625 Z M 2.9375 -4.515625 "/></g></g></g><g fill="#1c4475" fill-opacity="1"><g transform="translate(205.349107, 192.639746)"><g><path d="M 0.234375 -5.640625 L 5.203125 -5.640625 L 5.203125 -4.515625 L 3.375 -4.515625 L 3.375 0 L 2.09375 0 L 2.09375 -4.515625 L 0.234375 -4.515625 Z M 0.234375 -5.640625 "/></g></g></g><g fill="#1c4475" fill-opacity="1"><g transform="translate(211.976523, 192.639746)"><g><path d="M 4.234375 -5.640625 L 4.234375 -4.515625 L 2.953125 -4.515625 L 2.953125 -1.125 L 4.234375 -1.125 L 4.234375 0 L 0.40625 0 L 0.40625 -1.125 L 1.6875 -1.125 L 1.6875 -4.515625 L 0.40625 -4.515625 L 0.40625 -5.640625 Z M 4.234375 -5.640625 "/></g></g></g><g fill="#1c4475" fill-opacity="1"><g transform="translate(217.795612, 192.639746)"><g><path d="M 0.40625 -2.828125 C 0.40625 -3.367188 0.519531 -3.859375 0.75 -4.296875 C 0.976562 -4.734375 1.304688 -5.078125 1.734375 -5.328125 C 2.171875 -5.585938 2.6875 -5.71875 3.28125 -5.71875 C 3.875 -5.71875 4.382812 -5.585938 4.8125 -5.328125 C 5.238281 -5.078125 5.566406 -4.734375 5.796875 -4.296875 C 6.035156 -3.859375 6.15625 -3.367188 6.15625 -2.828125 C 6.15625 -2.273438 6.035156 -1.78125 5.796875 -1.34375 C 5.566406 -0.90625 5.238281 -0.554688 4.8125 -0.296875 C 4.382812 -0.046875 3.875 0.078125 3.28125 0.078125 C 2.6875 0.078125 2.171875 -0.046875 1.734375 -0.296875 C 1.304688 -0.554688 0.976562 -0.90625 0.75 -1.34375 C 0.519531 -1.78125 0.40625 -2.273438 0.40625 -2.828125 Z M 1.6875 -2.828125 C 1.6875 -2.285156 1.816406 -1.851562 2.078125 -1.53125 C 2.347656 -1.207031 2.75 -1.046875 3.28125 -1.046875 C 3.8125 -1.046875 4.207031 -1.207031 4.46875 -1.53125 C 4.738281 -1.851562 4.875 -2.285156 4.875 -2.828125 C 4.875 -3.359375 4.738281 -3.785156 4.46875 -4.109375 C 4.207031 -4.429688 3.8125 -4.59375 3.28125 -4.59375 C 2.75 -4.59375 2.347656 -4.429688 2.078125 -4.109375 C 1.816406 -3.785156 1.6875 -3.359375 1.6875 -2.828125 Z M 1.6875 -2.828125 "/></g></g></g><g fill="#1c4475" fill-opacity="1"><g transform="translate(225.527475, 192.639746)"><g><path d="M 4.78125 -1.125 L 4.78125 -5.640625 L 6.0625 -5.640625 L 6.0625 0 L 3.546875 0 L 2.125 -4.515625 L 1.765625 -4.515625 L 1.765625 0 L 0.484375 0 L 0.484375 -5.640625 L 3 -5.640625 L 4.421875 -1.125 Z M 4.78125 -1.125 "/></g></g></g><g fill="#1c4475" fill-opacity="1"><g transform="translate(233.25133, 192.639746)"><g/></g></g><g fill="#1c4475" fill-opacity="1"><g transform="translate(236.669437, 192.639746)"><g><path d="M 0.234375 -5.640625 L 5.203125 -5.640625 L 5.203125 -4.515625 L 3.375 -4.515625 L 3.375 0 L 2.09375 0 L 2.09375 -4.515625 L 0.234375 -4.515625 Z M 0.234375 -5.640625 "/></g></g></g><g fill="#1c4475" fill-opacity="1"><g transform="translate(243.296853, 192.639746)"><g><path d="M 4.5 0 L 0.484375 0 L 0.484375 -5.640625 L 4.5 -5.640625 L 4.5 -4.515625 L 1.765625 -4.515625 L 1.765625 -3.390625 L 4.109375 -3.390625 L 4.109375 -2.265625 L 1.765625 -2.265625 L 1.765625 -1.125 L 4.5 -1.125 Z M 4.5 0 "/></g></g></g><g fill="#1c4475" fill-opacity="1"><g transform="translate(249.300013, 192.639746)"><g><path d="M 0.40625 -2.828125 C 0.40625 -3.367188 0.519531 -3.859375 0.75 -4.296875 C 0.988281 -4.734375 1.320312 -5.078125 1.75 -5.328125 C 2.1875 -5.585938 2.703125 -5.71875 3.296875 -5.71875 C 3.828125 -5.71875 4.285156 -5.625 4.671875 -5.4375 C 5.066406 -5.257812 5.382812 -5 5.625 -4.65625 C 5.875 -4.320312 6.023438 -3.925781 6.078125 -3.46875 L 4.796875 -3.46875 C 4.734375 -3.84375 4.566406 -4.125 4.296875 -4.3125 C 4.023438 -4.5 3.695312 -4.59375 3.3125 -4.59375 C 2.820312 -4.59375 2.425781 -4.441406 2.125 -4.140625 C 1.832031 -3.847656 1.6875 -3.410156 1.6875 -2.828125 C 1.6875 -2.242188 1.832031 -1.800781 2.125 -1.5 C 2.425781 -1.195312 2.820312 -1.046875 3.3125 -1.046875 C 3.695312 -1.046875 4.023438 -1.140625 4.296875 -1.328125 C 4.566406 -1.523438 4.734375 -1.8125 4.796875 -2.1875 L 6.078125 -2.1875 C 6.023438 -1.71875 5.875 -1.3125 5.625 -0.96875 C 5.382812 -0.632812 5.066406 -0.375 4.671875 -0.1875 C 4.285156 -0.0078125 3.828125 0.078125 3.296875 0.078125 C 2.703125 0.078125 2.1875 -0.046875 1.75 -0.296875 C 1.320312 -0.554688 0.988281 -0.90625 0.75 -1.34375 C 0.519531 -1.78125 0.40625 -2.273438 0.40625 -2.828125 Z M 0.40625 -2.828125 "/></g></g></g><g fill="#1c4475" fill-opacity="1"><g transform="translate(256.959842, 192.639746)"><g><path d="M 4.59375 -3.296875 L 4.59375 -5.640625 L 5.875 -5.640625 L 5.875 0 L 4.59375 0 L 4.59375 -2.1875 L 1.765625 -2.1875 L 1.765625 0 L 0.484375 0 L 0.484375 -5.640625 L 1.765625 -5.640625 L 1.765625 -3.296875 Z M 4.59375 -3.296875 "/></g></g></g><g fill="#1c4475" fill-opacity="1"><g transform="translate(264.49162, 192.639746)"><g><path d="M 4.78125 -1.125 L 4.78125 -5.640625 L 6.0625 -5.640625 L 6.0625 0 L 3.546875 0 L 2.125 -4.515625 L 1.765625 -4.515625 L 1.765625 0 L 0.484375 0 L 0.484375 -5.640625 L 3 -5.640625 L 4.421875 -1.125 Z M 4.78125 -1.125 "/></g></g></g><g fill="#1c4475" fill-opacity="1"><g transform="translate(272.215476, 192.639746)"><g><path d="M 0.40625 -2.828125 C 0.40625 -3.367188 0.519531 -3.859375 0.75 -4.296875 C 0.976562 -4.734375 1.304688 -5.078125 1.734375 -5.328125 C 2.171875 -5.585938 2.6875 -5.71875 3.28125 -5.71875 C 3.875 -5.71875 4.382812 -5.585938 4.8125 -5.328125 C 5.238281 -5.078125 5.566406 -4.734375 5.796875 -4.296875 C 6.035156 -3.859375 6.15625 -3.367188 6.15625 -2.828125 C 6.15625 -2.273438 6.035156 -1.78125 5.796875 -1.34375 C 5.566406 -0.90625 5.238281 -0.554688 4.8125 -0.296875 C 4.382812 -0.046875 3.875 0.078125 3.28125 0.078125 C 2.6875 0.078125 2.171875 -0.046875 1.734375 -0.296875 C 1.304688 -0.554688 0.976562 -0.90625 0.75 -1.34375 C 0.519531 -1.78125 0.40625 -2.273438 0.40625 -2.828125 Z M 1.6875 -2.828125 C 1.6875 -2.285156 1.816406 -1.851562 2.078125 -1.53125 C 2.347656 -1.207031 2.75 -1.046875 3.28125 -1.046875 C 3.8125 -1.046875 4.207031 -1.207031 4.46875 -1.53125 C 4.738281 -1.851562 4.875 -2.285156 4.875 -2.828125 C 4.875 -3.359375 4.738281 -3.785156 4.46875 -4.109375 C 4.207031 -4.429688 3.8125 -4.59375 3.28125 -4.59375 C 2.75 -4.59375 2.347656 -4.429688 2.078125 -4.109375 C 1.816406 -3.785156 1.6875 -3.359375 1.6875 -2.828125 Z M 1.6875 -2.828125 "/></g></g></g><g fill="#1c4475" fill-opacity="1"><g transform="translate(279.947339, 192.639746)"><g><path d="M 4.5 0 L 1.171875 0.078125 C 0.953125 0.0859375 0.78125 0.0351562 0.65625 -0.078125 C 0.539062 -0.203125 0.484375 -0.375 0.484375 -0.59375 L 0.484375 -5.640625 L 1.765625 -5.640625 L 1.765625 -1.046875 L 4.5 -1.125 Z M 4.5 0 "/></g></g></g><g fill="#1c4475" fill-opacity="1"><g transform="translate(285.790428, 192.639746)"><g><path d="M 0.40625 -2.828125 C 0.40625 -3.367188 0.519531 -3.859375 0.75 -4.296875 C 0.976562 -4.734375 1.304688 -5.078125 1.734375 -5.328125 C 2.171875 -5.585938 2.6875 -5.71875 3.28125 -5.71875 C 3.875 -5.71875 4.382812 -5.585938 4.8125 -5.328125 C 5.238281 -5.078125 5.566406 -4.734375 5.796875 -4.296875 C 6.035156 -3.859375 6.15625 -3.367188 6.15625 -2.828125 C 6.15625 -2.273438 6.035156 -1.78125 5.796875 -1.34375 C 5.566406 -0.90625 5.238281 -0.554688 4.8125 -0.296875 C 4.382812 -0.046875 3.875 0.078125 3.28125 0.078125 C 2.6875 0.078125 2.171875 -0.046875 1.734375 -0.296875 C 1.304688 -0.554688 0.976562 -0.90625 0.75 -1.34375 C 0.519531 -1.78125 0.40625 -2.273438 0.40625 -2.828125 Z M 1.6875 -2.828125 C 1.6875 -2.285156 1.816406 -1.851562 2.078125 -1.53125 C 2.347656 -1.207031 2.75 -1.046875 3.28125 -1.046875 C 3.8125 -1.046875 4.207031 -1.207031 4.46875 -1.53125 C 4.738281 -1.851562 4.875 -2.285156 4.875 -2.828125 C 4.875 -3.359375 4.738281 -3.785156 4.46875 -4.109375 C 4.207031 -4.429688 3.8125 -4.59375 3.28125 -4.59375 C 2.75 -4.59375 2.347656 -4.429688 2.078125 -4.109375 C 1.816406 -3.785156 1.6875 -3.359375 1.6875 -2.828125 Z M 1.6875 -2.828125 "/></g></g></g><g fill="#1c4475" fill-opacity="1"><g transform="translate(293.522291, 192.639746)"><g><path d="M 0.40625 -2.828125 C 0.40625 -3.398438 0.523438 -3.898438 0.765625 -4.328125 C 1.015625 -4.765625 1.351562 -5.101562 1.78125 -5.34375 C 2.207031 -5.59375 2.691406 -5.71875 3.234375 -5.71875 C 3.710938 -5.71875 4.144531 -5.628906 4.53125 -5.453125 C 4.914062 -5.273438 5.226562 -5.023438 5.46875 -4.703125 C 5.71875 -4.390625 5.867188 -4.03125 5.921875 -3.625 L 4.640625 -3.625 C 4.578125 -3.957031 4.429688 -4.203125 4.203125 -4.359375 C 3.984375 -4.515625 3.660156 -4.59375 3.234375 -4.59375 C 2.742188 -4.59375 2.363281 -4.453125 2.09375 -4.171875 C 1.820312 -3.890625 1.6875 -3.441406 1.6875 -2.828125 C 1.6875 -2.203125 1.800781 -1.75 2.03125 -1.46875 C 2.257812 -1.1875 2.601562 -1.046875 3.0625 -1.046875 C 3.445312 -1.046875 3.75 -1.140625 3.96875 -1.328125 C 4.195312 -1.515625 4.3125 -1.800781 4.3125 -2.1875 L 3.015625 -2.1875 L 3.015625 -3.140625 L 5.953125 -3.140625 C 6.398438 -3.140625 6.625 -2.914062 6.625 -2.46875 L 6.625 0 L 5.359375 0 L 5.359375 -1.9375 L 5.59375 -2.828125 L 5.265625 -2.828125 C 5.265625 -2.234375 5.179688 -1.71875 5.015625 -1.28125 C 4.859375 -0.84375 4.613281 -0.503906 4.28125 -0.265625 C 3.957031 -0.0351562 3.535156 0.078125 3.015625 0.078125 C 2.453125 0.078125 1.976562 -0.0390625 1.59375 -0.28125 C 1.207031 -0.53125 0.910156 -0.867188 0.703125 -1.296875 C 0.503906 -1.734375 0.40625 -2.242188 0.40625 -2.828125 Z M 0.40625 -2.828125 "/></g></g></g><g fill="#1c4475" fill-opacity="1"><g transform="translate(301.814384, 192.639746)"><g><path d="M 3.046875 -3.28125 L 4.25 -5.640625 L 5.625 -5.640625 L 3.53125 -1.8125 L 3.53125 0 L 2.25 0 L 2.25 -1.8125 L 0.15625 -5.640625 L 1.53125 -5.640625 L 2.734375 -3.28125 L 2.734375 -2.5625 L 3.046875 -2.5625 Z M 3.046875 -3.28125 "/></g></g></g><g fill="#1c4475" fill-opacity="1"><g transform="translate(127.892017, 181.420288)"><g><path d="M 16.859375 -4.796875 C 16.859375 -3.804688 16.601562 -2.929688 16.09375 -2.171875 C 15.59375 -1.421875 14.796875 -0.828125 13.703125 -0.390625 C 12.617188 0.0351562 11.175781 0.25 9.375 0.25 C 7.28125 0.25 5.601562 -0.0234375 4.34375 -0.578125 C 3.082031 -1.128906 2.164062 -1.925781 1.59375 -2.96875 C 1.03125 -4.007812 0.75 -5.265625 0.75 -6.734375 L 4.703125 -6.734375 C 4.703125 -5.398438 5.066406 -4.476562 5.796875 -3.96875 C 6.535156 -3.46875 7.769531 -3.21875 9.5 -3.21875 C 10.769531 -3.21875 11.648438 -3.359375 12.140625 -3.640625 C 12.640625 -3.921875 12.890625 -4.289062 12.890625 -4.75 C 12.890625 -5.175781 12.675781 -5.535156 12.25 -5.828125 C 11.820312 -6.117188 11.253906 -6.390625 10.546875 -6.640625 C 9.847656 -6.898438 9.070312 -7.171875 8.21875 -7.453125 C 7.289062 -7.765625 6.421875 -8.070312 5.609375 -8.375 C 4.804688 -8.675781 4.097656 -9.035156 3.484375 -9.453125 C 2.878906 -9.867188 2.398438 -10.363281 2.046875 -10.9375 C 1.703125 -11.519531 1.53125 -12.238281 1.53125 -13.09375 C 1.53125 -14.570312 2.113281 -15.707031 3.28125 -16.5 C 4.445312 -17.300781 6.148438 -17.703125 8.390625 -17.703125 C 10.171875 -17.703125 11.632812 -17.421875 12.78125 -16.859375 C 13.925781 -16.304688 14.769531 -15.5625 15.3125 -14.625 C 15.863281 -13.695312 16.140625 -12.660156 16.140625 -11.515625 L 12.171875 -11.515625 C 12.171875 -12.222656 12.003906 -12.773438 11.671875 -13.171875 C 11.347656 -13.566406 10.898438 -13.84375 10.328125 -14 C 9.765625 -14.15625 9.117188 -14.234375 8.390625 -14.234375 C 7.492188 -14.234375 6.785156 -14.128906 6.265625 -13.921875 C 5.753906 -13.710938 5.5 -13.382812 5.5 -12.9375 C 5.5 -12.675781 5.570312 -12.453125 5.71875 -12.265625 C 5.863281 -12.085938 6.164062 -11.894531 6.625 -11.6875 C 7.09375 -11.488281 7.789062 -11.234375 8.71875 -10.921875 C 9.351562 -10.703125 10.035156 -10.460938 10.765625 -10.203125 C 11.503906 -9.953125 12.234375 -9.664062 12.953125 -9.34375 C 13.671875 -9.019531 14.320312 -8.644531 14.90625 -8.21875 C 15.5 -7.789062 15.972656 -7.296875 16.328125 -6.734375 C 16.679688 -6.171875 16.859375 -5.523438 16.859375 -4.796875 Z M 16.859375 -4.796875 "/></g></g></g><g fill="#1c4475" fill-opacity="1"><g transform="translate(145.986018, 181.420288)"><g><path d="M 0.984375 -3.421875 C 0.984375 -4.492188 1.351562 -5.347656 2.09375 -5.984375 C 2.84375 -6.628906 4.140625 -7.082031 5.984375 -7.34375 L 9.921875 -7.890625 C 9.921875 -8.398438 9.71875 -8.800781 9.3125 -9.09375 C 8.914062 -9.382812 8.285156 -9.53125 7.421875 -9.53125 C 6.628906 -9.53125 6.019531 -9.375 5.59375 -9.0625 C 5.164062 -8.75 4.953125 -8.300781 4.953125 -7.71875 L 1.234375 -7.71875 C 1.234375 -8.78125 1.503906 -9.6875 2.046875 -10.4375 C 2.597656 -11.1875 3.34375 -11.757812 4.28125 -12.15625 C 5.21875 -12.550781 6.265625 -12.75 7.421875 -12.75 C 8.578125 -12.75 9.640625 -12.550781 10.609375 -12.15625 C 11.585938 -11.769531 12.378906 -11.148438 12.984375 -10.296875 C 13.585938 -9.453125 13.890625 -8.347656 13.890625 -6.984375 L 13.890625 -3.46875 L 15.6875 -3.46875 L 15.6875 0 L 12.9375 0 C 12.34375 0 11.882812 -0.160156 11.5625 -0.484375 C 11.25 -0.804688 11.09375 -1.265625 11.09375 -1.859375 L 11.09375 -2.109375 L 11.703125 -3.59375 L 10.71875 -3.59375 C 10.570312 -2.894531 10.3125 -2.253906 9.9375 -1.671875 C 9.5625 -1.097656 9.023438 -0.632812 8.328125 -0.28125 C 7.640625 0.0703125 6.710938 0.25 5.546875 0.25 C 4.566406 0.25 3.773438 0.125 3.171875 -0.125 C 2.578125 -0.382812 2.125 -0.707031 1.8125 -1.09375 C 1.5 -1.488281 1.28125 -1.894531 1.15625 -2.3125 C 1.039062 -2.726562 0.984375 -3.097656 0.984375 -3.421875 Z M 4.953125 -4.15625 C 4.953125 -3.789062 5.09375 -3.539062 5.375 -3.40625 C 5.664062 -3.28125 5.976562 -3.21875 6.3125 -3.21875 C 7.394531 -3.21875 8.265625 -3.4375 8.921875 -3.875 C 9.585938 -4.3125 9.921875 -4.910156 9.921875 -5.671875 L 6.734375 -5.21875 C 6.140625 -5.132812 5.691406 -5.023438 5.390625 -4.890625 C 5.097656 -4.765625 4.953125 -4.519531 4.953125 -4.15625 Z M 4.953125 -4.15625 "/></g></g></g><g fill="#1c4475" fill-opacity="1"><g transform="translate(162.421616, 181.420288)"><g><path d="M 11.625 0 L 0.75 0 L 0.75 -3.46875 L 4.203125 -3.46875 L 4.203125 -14.875 L 1.234375 -14.71875 L 1.234375 -18.1875 L 6.015625 -18.359375 C 6.703125 -18.390625 7.234375 -18.222656 7.609375 -17.859375 C 7.984375 -17.503906 8.171875 -16.976562 8.171875 -16.28125 L 8.171875 -3.46875 L 11.625 -3.46875 Z M 11.625 0 "/></g></g></g><g fill="#1c4475" fill-opacity="1"><g transform="translate(175.045373, 181.420288)"><g><path d="M 11.390625 -14.71875 L 8.765625 -14.71875 C 8.179688 -14.71875 7.753906 -14.570312 7.484375 -14.28125 C 7.210938 -14 7.078125 -13.515625 7.078125 -12.828125 L 7.078125 -12.5 L 10.6875 -12.5 L 10.6875 -9.03125 L 7.078125 -9.03125 L 7.078125 -3.46875 L 10.6875 -3.46875 L 10.6875 0 L 0.75 0 L 0.75 -3.46875 L 3.125 -3.46875 L 3.125 -9.03125 L 0.75 -9.03125 L 0.75 -12.5 L 3.125 -12.5 L 3.125 -12.9375 C 3.125 -14.625 3.617188 -15.921875 4.609375 -16.828125 C 5.609375 -17.734375 7.15625 -18.1875 9.25 -18.1875 L 11.390625 -18.1875 Z M 11.390625 -14.71875 "/></g></g></g><g fill="#1c4475" fill-opacity="1"><g transform="translate(187.174084, 181.420288)"><g><path d="M 0.984375 -6.265625 C 0.984375 -7.710938 1.296875 -8.914062 1.921875 -9.875 C 2.554688 -10.832031 3.410156 -11.550781 4.484375 -12.03125 C 5.554688 -12.507812 6.742188 -12.75 8.046875 -12.75 C 9.347656 -12.75 10.53125 -12.507812 11.59375 -12.03125 C 12.65625 -11.550781 13.5 -10.832031 14.125 -9.875 C 14.757812 -8.914062 15.078125 -7.710938 15.078125 -6.265625 C 15.078125 -4.804688 14.757812 -3.59375 14.125 -2.625 C 13.5 -1.664062 12.65625 -0.945312 11.59375 -0.46875 C 10.53125 0.0078125 9.347656 0.25 8.046875 0.25 C 6.742188 0.25 5.554688 0.0078125 4.484375 -0.46875 C 3.410156 -0.945312 2.554688 -1.664062 1.921875 -2.625 C 1.296875 -3.59375 0.984375 -4.804688 0.984375 -6.265625 Z M 4.953125 -6.265625 C 4.953125 -5.203125 5.234375 -4.425781 5.796875 -3.9375 C 6.359375 -3.457031 7.109375 -3.21875 8.046875 -3.21875 C 8.972656 -3.21875 9.710938 -3.457031 10.265625 -3.9375 C 10.828125 -4.425781 11.109375 -5.203125 11.109375 -6.265625 C 11.109375 -7.304688 10.828125 -8.066406 10.265625 -8.546875 C 9.710938 -9.035156 8.972656 -9.28125 8.046875 -9.28125 C 7.109375 -9.28125 6.359375 -9.035156 5.796875 -8.546875 C 5.234375 -8.066406 4.953125 -7.304688 4.953125 -6.265625 Z M 4.953125 -6.265625 "/></g></g></g><g fill="#1c4475" fill-opacity="1"><g transform="translate(203.733444, 181.420288)"><g><path d="M 5.4375 0 L 1.484375 0 L 1.484375 -10.625 C 1.484375 -11.289062 1.664062 -11.804688 2.03125 -12.171875 C 2.40625 -12.535156 2.929688 -12.710938 3.609375 -12.703125 L 11.8125 -12.5 L 11.8125 -9.03125 L 5.4375 -9.1875 Z M 5.4375 0 "/></g></g></g><g fill="#1c4475" fill-opacity="1"><g transform="translate(216.282942, 181.420288)"><g><path d="M 15.546875 -18.1875 L 15.546875 0 L 11.578125 0 L 11.578125 -0.765625 L 12.328125 -3 L 11.328125 -3 C 11.117188 -2.445312 10.828125 -1.921875 10.453125 -1.421875 C 10.085938 -0.929688 9.582031 -0.53125 8.9375 -0.21875 C 8.289062 0.09375 7.445312 0.25 6.40625 0.25 C 5.207031 0.25 4.207031 -0.046875 3.40625 -0.640625 C 2.601562 -1.234375 2 -2.023438 1.59375 -3.015625 C 1.1875 -4.003906 0.984375 -5.085938 0.984375 -6.265625 C 0.984375 -7.453125 1.1875 -8.535156 1.59375 -9.515625 C 2 -10.492188 2.601562 -11.273438 3.40625 -11.859375 C 4.207031 -12.453125 5.207031 -12.75 6.40625 -12.75 C 7.445312 -12.75 8.289062 -12.59375 8.9375 -12.28125 C 9.582031 -11.96875 10.085938 -11.566406 10.453125 -11.078125 C 10.828125 -10.585938 11.117188 -10.0625 11.328125 -9.5 L 12.328125 -9.5 L 11.578125 -11.734375 L 11.578125 -18.1875 Z M 11.578125 -6.265625 C 11.578125 -7.316406 11.289062 -8.082031 10.71875 -8.5625 C 10.15625 -9.039062 9.335938 -9.28125 8.265625 -9.28125 C 7.210938 -9.28125 6.394531 -9.039062 5.8125 -8.5625 C 5.238281 -8.082031 4.953125 -7.316406 4.953125 -6.265625 C 4.953125 -5.203125 5.238281 -4.425781 5.8125 -3.9375 C 6.394531 -3.457031 7.210938 -3.21875 8.265625 -3.21875 C 9.335938 -3.21875 10.15625 -3.457031 10.71875 -3.9375 C 11.289062 -4.425781 11.578125 -5.203125 11.578125 -6.265625 Z M 11.578125 -6.265625 "/></g></g></g><g fill="#1c4475" fill-opacity="1"><g transform="translate(233.807648, 181.420288)"><g/></g></g><g fill="#1c4475" fill-opacity="1"><g transform="translate(241.233431, 181.420288)"><g><path d="M 19.875 -3.734375 L 23.296875 0.34375 L 20.171875 2.46875 L 17.15625 -1.390625 C 15.351562 -0.296875 13.207031 0.25 10.71875 0.25 C 8.914062 0.25 7.335938 0 5.984375 -0.5 C 4.628906 -1.007812 3.582031 -1.757812 2.84375 -2.75 C 2.101562 -3.738281 1.734375 -4.96875 1.734375 -6.4375 C 1.734375 -7.5625 1.972656 -8.472656 2.453125 -9.171875 C 2.929688 -9.867188 3.53125 -10.382812 4.25 -10.71875 C 4.976562 -11.050781 5.707031 -11.21875 6.4375 -11.21875 C 7.226562 -11.21875 7.894531 -11.066406 8.4375 -10.765625 C 8.976562 -10.472656 9.445312 -10.109375 9.84375 -9.671875 L 9.84375 -10.671875 L 5.890625 -15.734375 L 5.890625 -17.453125 L 19.40625 -17.453125 L 19.40625 -13.984375 L 11.328125 -13.984375 L 17.34375 -6.75 C 18.101562 -8.132812 18.484375 -9.800781 18.484375 -11.75 L 22.453125 -11.75 C 22.453125 -10.15625 22.226562 -8.675781 21.78125 -7.3125 C 21.332031 -5.945312 20.695312 -4.753906 19.875 -3.734375 Z M 10.71875 -3.21875 C 12.363281 -3.21875 13.765625 -3.554688 14.921875 -4.234375 L 13.4375 -6.140625 C 12.675781 -7.109375 11.941406 -7.796875 11.234375 -8.203125 C 10.523438 -8.617188 9.71875 -8.828125 8.8125 -8.828125 C 7.957031 -8.828125 7.222656 -8.613281 6.609375 -8.1875 C 5.992188 -7.757812 5.6875 -7.125 5.6875 -6.28125 C 5.6875 -5.226562 6.109375 -4.453125 6.953125 -3.953125 C 7.804688 -3.460938 9.0625 -3.21875 10.71875 -3.21875 Z M 10.71875 -3.21875 "/></g></g></g><g fill="#1c4475" fill-opacity="1"><g transform="translate(266.753104, 181.420288)"><g/></g></g><g fill="#1c4475" fill-opacity="1"><g transform="translate(274.178886, 181.420288)"><g><path d="M 1.234375 -8.734375 C 1.234375 -10.429688 1.597656 -11.953125 2.328125 -13.296875 C 3.054688 -14.640625 4.085938 -15.707031 5.421875 -16.5 C 6.753906 -17.300781 8.347656 -17.703125 10.203125 -17.703125 C 11.828125 -17.703125 13.25 -17.421875 14.46875 -16.859375 C 15.695312 -16.296875 16.6875 -15.488281 17.4375 -14.4375 C 18.1875 -13.394531 18.644531 -12.15625 18.8125 -10.71875 L 14.84375 -10.71875 C 14.644531 -11.875 14.125 -12.75 13.28125 -13.34375 C 12.445312 -13.9375 11.4375 -14.234375 10.25 -14.234375 C 8.726562 -14.234375 7.503906 -13.765625 6.578125 -12.828125 C 5.660156 -11.898438 5.203125 -10.535156 5.203125 -8.734375 C 5.203125 -6.929688 5.660156 -5.5625 6.578125 -4.625 C 7.503906 -3.6875 8.726562 -3.21875 10.25 -3.21875 C 11.4375 -3.21875 12.445312 -3.519531 13.28125 -4.125 C 14.125 -4.726562 14.644531 -5.601562 14.84375 -6.75 L 18.8125 -6.75 C 18.644531 -5.320312 18.1875 -4.082031 17.4375 -3.03125 C 16.6875 -1.976562 15.695312 -1.164062 14.46875 -0.59375 C 13.25 -0.03125 11.828125 0.25 10.203125 0.25 C 8.347656 0.25 6.753906 -0.144531 5.421875 -0.9375 C 4.085938 -1.726562 3.054688 -2.800781 2.328125 -4.15625 C 1.597656 -5.507812 1.234375 -7.035156 1.234375 -8.734375 Z M 1.234375 -8.734375 "/></g></g></g><g fill="#1c4475" fill-opacity="1"><g transform="translate(294.723362, 181.420288)"><g><path d="M 0.984375 -6.265625 C 0.984375 -7.710938 1.296875 -8.914062 1.921875 -9.875 C 2.554688 -10.832031 3.410156 -11.550781 4.484375 -12.03125 C 5.554688 -12.507812 6.742188 -12.75 8.046875 -12.75 C 9.347656 -12.75 10.53125 -12.507812 11.59375 -12.03125 C 12.65625 -11.550781 13.5 -10.832031 14.125 -9.875 C 14.757812 -8.914062 15.078125 -7.710938 15.078125 -6.265625 C 15.078125 -4.804688 14.757812 -3.59375 14.125 -2.625 C 13.5 -1.664062 12.65625 -0.945312 11.59375 -0.46875 C 10.53125 0.0078125 9.347656 0.25 8.046875 0.25 C 6.742188 0.25 5.554688 0.0078125 4.484375 -0.46875 C 3.410156 -0.945312 2.554688 -1.664062 1.921875 -2.625 C 1.296875 -3.59375 0.984375 -4.804688 0.984375 -6.265625 Z M 4.953125 -6.265625 C 4.953125 -5.203125 5.234375 -4.425781 5.796875 -3.9375 C 6.359375 -3.457031 7.109375 -3.21875 8.046875 -3.21875 C 8.972656 -3.21875 9.710938 -3.457031 10.265625 -3.9375 C 10.828125 -4.425781 11.109375 -5.203125 11.109375 -6.265625 C 11.109375 -7.304688 10.828125 -8.066406 10.265625 -8.546875 C 9.710938 -9.035156 8.972656 -9.28125 8.046875 -9.28125 C 7.109375 -9.28125 6.359375 -9.035156 5.796875 -8.546875 C 5.234375 -8.066406 4.953125 -7.304688 4.953125 -6.265625 Z M 4.953125 -6.265625 "/></g></g></g></svg>