<svg xmlns="http://www.w3.org/2000/svg" xmlns:xlink="http://www.w3.org/1999/xlink" width="500" zoomAndPan="magnify" viewBox="0 0 375 374.999991" height="500" preserveAspectRatio="xMidYMid meet" version="1.0"><defs><g/><clipPath id="9322e2bf26"><path d="M 66.082031 208 L 124.582031 208 L 124.582031 219.695312 L 66.082031 219.695312 Z M 66.082031 208 " clip-rule="nonzero"/></clipPath><clipPath id="0611ab82ca"><path d="M 71 155.195312 L 124.582031 155.195312 L 124.582031 213 L 71 213 Z M 71 155.195312 " clip-rule="nonzero"/></clipPath></defs><rect x="-37.5" width="450" fill="#ffffff" y="-37.499999" height="449.999989" fill-opacity="1"/><rect x="-37.5" width="450" fill="#ffffff" y="-37.499999" height="449.999989" fill-opacity="1"/><g clip-path="url(#9322e2bf26)"><path fill="#004aad" d="M 158.976562 208.355469 L 68.195312 208.355469 C 67.007812 208.355469 66.21875 209.144531 66.21875 210.328125 C 66.21875 215.65625 70.5625 219.800781 75.691406 219.800781 L 151.476562 219.800781 C 156.804688 219.800781 160.949219 215.460938 160.949219 210.328125 C 160.949219 209.34375 160.160156 208.355469 158.976562 208.355469 Z M 158.976562 208.355469 " fill-opacity="1" fill-rule="nonzero"/></g><path fill="#004aad" d="M 119.703125 187.4375 L 114.570312 187.832031 L 116.9375 193.160156 L 114.964844 194.144531 L 112.597656 188.621094 L 108.847656 191.976562 L 108.847656 177.175781 Z M 119.703125 187.4375 " fill-opacity="1" fill-rule="nonzero"/><g clip-path="url(#0611ab82ca)"><path fill="#004aad" d="M 147.726562 155.269531 L 79.441406 155.269531 C 75.097656 155.269531 71.746094 158.625 71.746094 162.964844 L 71.746094 204.605469 C 71.746094 208.949219 75.101562 212.300781 79.441406 212.300781 L 147.726562 212.300781 C 152.070312 212.300781 155.421875 208.945312 155.421875 204.605469 L 155.421875 162.964844 C 155.421875 158.621094 152.066406 155.269531 147.726562 155.269531 Z M 147.726562 202.832031 C 147.726562 204.015625 146.9375 204.804688 145.753906 204.804688 L 81.414062 204.804688 C 80.230469 204.804688 79.441406 204.015625 79.441406 202.832031 L 79.441406 164.9375 C 79.441406 163.753906 80.230469 162.964844 81.414062 162.964844 L 145.753906 162.964844 C 146.9375 162.964844 147.726562 163.753906 147.726562 164.9375 Z M 147.726562 202.832031 " fill-opacity="1" fill-rule="nonzero"/></g><g fill="#004aad" fill-opacity="1"><g transform="translate(139.622046, 193.210065)"><g><path d="M 22.5 -5.015625 L 22.5 0 L 1.234375 0 L 1.234375 -5.25 L 13.703125 -21.15625 L 1.609375 -21.15625 L 1.609375 -26.21875 L 22.125 -26.21875 L 22.125 -20.9375 L 9.84375 -5.015625 Z M 22.5 -5.015625 "/></g></g></g><g fill="#004aad" fill-opacity="1"><g transform="translate(163.310056, 193.210065)"><g><path d="M 12.09375 0.59375 C 8.414062 0.59375 5.664062 -0.269531 3.84375 -2 C 2.019531 -3.726562 1.109375 -6.46875 1.109375 -10.21875 C 1.109375 -12.269531 1.296875 -14.066406 1.671875 -15.609375 C 2.054688 -17.160156 2.523438 -18.242188 3.078125 -18.859375 C 3.785156 -19.660156 5.082031 -20.320312 6.96875 -20.84375 C 8.851562 -21.363281 10.625 -21.625 12.28125 -21.625 C 16.238281 -21.625 19.0625 -20.78125 20.75 -19.09375 C 22.4375 -17.40625 23.28125 -14.707031 23.28125 -11 C 23.28125 -7.007812 22.375 -4.078125 20.5625 -2.203125 C 18.75 -0.335938 15.925781 0.59375 12.09375 0.59375 Z M 12.234375 -4.78125 C 13.429688 -4.78125 14.210938 -5.203125 14.578125 -6.046875 C 14.953125 -6.890625 15.140625 -8.382812 15.140625 -10.53125 C 15.140625 -12.03125 15.0625 -13.1875 14.90625 -14 C 14.75 -14.8125 14.460938 -15.410156 14.046875 -15.796875 C 13.640625 -16.179688 13.003906 -16.375 12.140625 -16.375 C 10.910156 -16.375 10.207031 -16.265625 10.03125 -16.046875 C 9.78125 -15.835938 9.578125 -15.164062 9.421875 -14.03125 C 9.273438 -12.894531 9.203125 -11.710938 9.203125 -10.484375 C 9.203125 -8.398438 9.40625 -6.925781 9.8125 -6.0625 C 10.226562 -5.207031 11.035156 -4.78125 12.234375 -4.78125 Z M 12.234375 -4.78125 "/></g></g></g><g fill="#004aad" fill-opacity="1"><g transform="translate(187.688007, 193.210065)"><g><path d="M 2.03125 -27.59375 L 9.890625 -27.921875 L 9.890625 0 L 2.03125 0 Z M 2.03125 -27.59375 "/></g></g></g><g fill="#004aad" fill-opacity="1"><g transform="translate(199.601008, 193.210065)"><g><path d="M 14.484375 0 L 13.75 -2.890625 C 12.34375 -0.597656 10.378906 0.546875 7.859375 0.546875 C 5.804688 0.546875 4.128906 -0.0234375 2.828125 -1.171875 C 1.523438 -2.316406 0.875 -3.9375 0.875 -6.03125 C 0.875 -7.3125 1.25 -8.4375 2 -9.40625 C 2.75 -10.375 3.785156 -11.054688 5.109375 -11.453125 C 6.828125 -11.941406 9.476562 -12.21875 13.0625 -12.28125 C 13.0625 -14.300781 12.96875 -15.375 12.78125 -15.5 C 12.632812 -15.625 12.144531 -15.6875 11.3125 -15.6875 C 10.789062 -15.6875 10.070312 -15.65625 9.15625 -15.59375 C 7.6875 -15.53125 5.691406 -15.363281 3.171875 -15.09375 C 2.929688 -16.75 2.75 -18.523438 2.625 -20.421875 C 4.25 -20.765625 5.945312 -21.050781 7.71875 -21.28125 C 9.5 -21.507812 11.097656 -21.625 12.515625 -21.625 C 14.960938 -21.625 16.800781 -21.21875 18.03125 -20.40625 C 19.257812 -19.59375 20.054688 -18.523438 20.421875 -17.203125 C 20.785156 -15.878906 20.957031 -14.207031 20.9375 -12.1875 L 20.890625 -5.421875 L 21.015625 0 Z M 10.53125 -4.59375 C 11.332031 -4.59375 12.175781 -4.75 13.0625 -5.0625 L 13.0625 -8.46875 L 12.703125 -8.46875 C 10.429688 -8.46875 9.171875 -8.34375 8.921875 -8.09375 C 8.765625 -7.9375 8.648438 -7.707031 8.578125 -7.40625 C 8.503906 -7.101562 8.46875 -6.8125 8.46875 -6.53125 C 8.46875 -5.789062 8.632812 -5.28125 8.96875 -5 C 9.300781 -4.726562 9.820312 -4.59375 10.53125 -4.59375 Z M 10.53125 -4.59375 "/></g></g></g><g fill="#004aad" fill-opacity="1"><g transform="translate(222.18511, 193.210065)"><g><path d="M 11.640625 -8.6875 C 11.640625 -8.132812 11.65625 -7.5625 11.6875 -6.96875 C 11.71875 -6.375 11.804688 -6 11.953125 -5.84375 C 12.171875 -5.625 12.925781 -5.515625 14.21875 -5.515625 L 15.78125 -5.5625 C 16.050781 -4.09375 16.1875 -2.390625 16.1875 -0.453125 C 15.601562 -0.242188 14.75 -0.0507812 13.625 0.125 C 12.507812 0.3125 11.445312 0.40625 10.4375 0.40625 C 8.320312 0.40625 6.6875 -0.0546875 5.53125 -0.984375 C 4.382812 -1.921875 3.8125 -3.375 3.8125 -5.34375 L 3.8125 -16.65625 L 0.375 -16.65625 L 0.375 -20.84375 L 3.8125 -21.15625 L 5.890625 -26.21875 L 11.640625 -26.546875 L 11.640625 -21.15625 L 16.515625 -21.15625 L 16.515625 -16.65625 L 11.640625 -16.65625 Z M 11.640625 -8.6875 "/></g></g></g><g fill="#004aad" fill-opacity="1"><g transform="translate(239.157681, 193.210065)"><g><path d="M 14.71875 -5.515625 C 15.488281 -5.515625 16.914062 -5.59375 19 -5.75 C 19.269531 -5.75 19.773438 -5.78125 20.515625 -5.84375 L 21.203125 -1.109375 C 18.835938 -0.00390625 15.769531 0.546875 12 0.546875 C 8.476562 0.546875 5.773438 -0.335938 3.890625 -2.109375 C 2.003906 -3.890625 1.0625 -6.578125 1.0625 -10.171875 C 1.0625 -12.003906 1.296875 -13.78125 1.765625 -15.5 C 2.242188 -17.21875 2.789062 -18.414062 3.40625 -19.09375 C 4.050781 -19.769531 5.242188 -20.351562 6.984375 -20.84375 C 8.734375 -21.332031 10.46875 -21.578125 12.1875 -21.578125 C 14.945312 -21.578125 17.015625 -21.082031 18.390625 -20.09375 C 19.773438 -19.113281 20.679688 -17.757812 21.109375 -16.03125 C 21.546875 -14.300781 21.765625 -11.976562 21.765625 -9.0625 C 19.671875 -8.9375 17.628906 -8.875 15.640625 -8.875 L 9.109375 -8.875 C 9.109375 -7.894531 9.3125 -7.160156 9.71875 -6.671875 C 10.132812 -6.179688 10.726562 -5.863281 11.5 -5.71875 C 12.269531 -5.582031 13.34375 -5.515625 14.71875 -5.515625 Z M 9.5625 -16.09375 C 9.382812 -16.007812 9.25 -15.613281 9.15625 -14.90625 C 9.0625 -14.195312 9 -13.398438 8.96875 -12.515625 L 11.359375 -12.515625 C 12.804688 -12.515625 13.847656 -12.53125 14.484375 -12.5625 C 14.484375 -14.03125 14.273438 -15.070312 13.859375 -15.6875 C 13.453125 -16.300781 12.742188 -16.609375 11.734375 -16.609375 C 10.898438 -16.609375 10.175781 -16.4375 9.5625 -16.09375 Z M 9.5625 -16.09375 "/></g></g></g><g fill="#004aad" fill-opacity="1"><g transform="translate(261.787776, 193.210065)"><g><path d="M 19.6875 -0.640625 C 17.207031 0.179688 14.429688 0.59375 11.359375 0.59375 C 7.921875 0.59375 5.351562 -0.269531 3.65625 -2 C 1.957031 -3.726562 1.109375 -6.4375 1.109375 -10.125 C 1.109375 -11.925781 1.351562 -13.707031 1.84375 -15.46875 C 2.332031 -17.238281 2.851562 -18.429688 3.40625 -19.046875 C 4.050781 -19.753906 5.316406 -20.351562 7.203125 -20.84375 C 9.085938 -21.332031 11.039062 -21.578125 13.0625 -21.578125 C 15.175781 -21.578125 17.304688 -21.390625 19.453125 -21.015625 C 19.390625 -20.253906 19.289062 -19.359375 19.15625 -18.328125 C 19.019531 -17.304688 18.875 -16.394531 18.71875 -15.59375 C 16.820312 -15.71875 15.03125 -15.78125 13.34375 -15.78125 C 11.6875 -15.78125 10.628906 -15.6875 10.171875 -15.5 C 9.921875 -15.40625 9.695312 -14.773438 9.5 -13.609375 C 9.300781 -12.453125 9.203125 -11.363281 9.203125 -10.34375 C 9.203125 -9 9.390625 -7.960938 9.765625 -7.234375 C 10.148438 -6.515625 10.753906 -6.019531 11.578125 -5.75 C 12.410156 -5.476562 13.535156 -5.34375 14.953125 -5.34375 C 15.566406 -5.34375 16.914062 -5.398438 19 -5.515625 Z M 19.6875 -0.640625 "/></g></g></g><g fill="#004aad" fill-opacity="1"><g transform="translate(282.210054, 193.210065)"><g><path d="M 22.359375 -19.828125 C 22.628906 -19.484375 22.832031 -18.632812 22.96875 -17.28125 C 23.113281 -15.9375 23.1875 -13.882812 23.1875 -11.125 L 23.1875 0 L 15.3125 0 L 15.3125 -11.046875 C 15.3125 -11.160156 15.3125 -11.757812 15.3125 -12.84375 C 15.3125 -13.9375 15.238281 -14.609375 15.09375 -14.859375 C 15 -14.984375 14.773438 -15.070312 14.421875 -15.125 C 14.066406 -15.1875 13.660156 -15.21875 13.203125 -15.21875 L 12.421875 -15.1875 C 11.554688 -15.15625 10.664062 -14.953125 9.75 -14.578125 L 9.75 0 L 1.890625 0 L 1.890625 -27.59375 L 9.75 -27.921875 L 9.75 -22.546875 C 9.75 -20.335938 9.671875 -18.863281 9.515625 -18.125 L 9.5625 -18.078125 C 11.65625 -20.441406 14.15625 -21.625 17.0625 -21.625 C 18.164062 -21.625 19.203125 -21.46875 20.171875 -21.15625 C 21.140625 -20.851562 21.867188 -20.410156 22.359375 -19.828125 Z M 22.359375 -19.828125 "/></g></g></g><g fill="#000000" fill-opacity="1"><g transform="translate(150.05437, 212.949946)"><g><path d="M 4.21875 -7.34375 L 4.21875 0 L 3.109375 0 L 3.109375 -7.34375 L 0.265625 -7.34375 L 0.265625 -8.25 L 7.0625 -8.25 L 7.0625 -7.34375 Z M 4.21875 -7.34375 "/></g></g></g><g fill="#000000" fill-opacity="1"><g transform="translate(164.344446, 212.949946)"><g><path d="M 0.984375 0 L 0.984375 -8.25 L 7.25 -8.25 L 7.25 -7.34375 L 2.109375 -7.34375 L 2.109375 -4.6875 L 6.890625 -4.6875 L 6.890625 -3.796875 L 2.109375 -3.796875 L 2.109375 -0.921875 L 7.484375 -0.921875 L 7.484375 0 Z M 0.984375 0 "/></g></g></g><g fill="#000000" fill-opacity="1"><g transform="translate(179.30835, 212.949946)"><g><path d="M 4.640625 -7.46875 C 3.722656 -7.46875 3.007812 -7.171875 2.5 -6.578125 C 2 -5.992188 1.75 -5.191406 1.75 -4.171875 C 1.75 -3.160156 2.007812 -2.34375 2.53125 -1.71875 C 3.0625 -1.101562 3.78125 -0.796875 4.6875 -0.796875 C 5.84375 -0.796875 6.710938 -1.367188 7.296875 -2.515625 L 8.203125 -2.0625 C 7.867188 -1.351562 7.394531 -0.8125 6.78125 -0.4375 C 6.164062 -0.0625 5.453125 0.125 4.640625 0.125 C 3.804688 0.125 3.082031 -0.046875 2.46875 -0.390625 C 1.863281 -0.742188 1.398438 -1.238281 1.078125 -1.875 C 0.765625 -2.519531 0.609375 -3.285156 0.609375 -4.171875 C 0.609375 -5.484375 0.960938 -6.507812 1.671875 -7.25 C 2.390625 -8 3.375 -8.375 4.625 -8.375 C 5.507812 -8.375 6.242188 -8.203125 6.828125 -7.859375 C 7.421875 -7.515625 7.859375 -7.003906 8.140625 -6.328125 L 7.078125 -5.984375 C 6.878906 -6.460938 6.566406 -6.828125 6.140625 -7.078125 C 5.722656 -7.335938 5.222656 -7.46875 4.640625 -7.46875 Z M 4.640625 -7.46875 "/></g></g></g><g fill="#000000" fill-opacity="1"><g transform="translate(194.934364, 212.949946)"><g><path d="M 6.5625 0 L 6.5625 -3.828125 L 2.109375 -3.828125 L 2.109375 0 L 0.984375 0 L 0.984375 -8.25 L 2.109375 -8.25 L 2.109375 -4.765625 L 6.5625 -4.765625 L 6.5625 -8.25 L 7.6875 -8.25 L 7.6875 0 Z M 6.5625 0 "/></g></g></g><g fill="#000000" fill-opacity="1"><g transform="translate(210.560377, 212.949946)"><g><path d="M 6.34375 0 L 1.921875 -7.03125 L 1.953125 -6.46875 L 1.984375 -5.484375 L 1.984375 0 L 0.984375 0 L 0.984375 -8.25 L 2.28125 -8.25 L 6.75 -1.171875 C 6.707031 -1.941406 6.6875 -2.5 6.6875 -2.84375 L 6.6875 -8.25 L 7.6875 -8.25 L 7.6875 0 Z M 6.34375 0 "/></g></g></g><g fill="#000000" fill-opacity="1"><g transform="translate(226.186391, 212.949946)"><g><path d="M 8.765625 -4.171875 C 8.765625 -3.304688 8.597656 -2.546875 8.265625 -1.890625 C 7.929688 -1.242188 7.457031 -0.742188 6.84375 -0.390625 C 6.226562 -0.046875 5.5 0.125 4.65625 0.125 C 3.8125 0.125 3.082031 -0.046875 2.46875 -0.390625 C 1.851562 -0.742188 1.378906 -1.242188 1.046875 -1.890625 C 0.722656 -2.535156 0.5625 -3.296875 0.5625 -4.171875 C 0.5625 -5.484375 0.921875 -6.507812 1.640625 -7.25 C 2.367188 -8 3.378906 -8.375 4.671875 -8.375 C 5.515625 -8.375 6.242188 -8.207031 6.859375 -7.875 C 7.472656 -7.539062 7.941406 -7.054688 8.265625 -6.421875 C 8.597656 -5.785156 8.765625 -5.035156 8.765625 -4.171875 Z M 7.625 -4.171875 C 7.625 -5.191406 7.363281 -5.992188 6.84375 -6.578125 C 6.332031 -7.171875 5.609375 -7.46875 4.671875 -7.46875 C 3.722656 -7.46875 2.988281 -7.175781 2.46875 -6.59375 C 1.957031 -6.019531 1.703125 -5.210938 1.703125 -4.171875 C 1.703125 -3.128906 1.960938 -2.304688 2.484375 -1.703125 C 3.003906 -1.097656 3.726562 -0.796875 4.65625 -0.796875 C 5.613281 -0.796875 6.347656 -1.085938 6.859375 -1.671875 C 7.367188 -2.265625 7.625 -3.097656 7.625 -4.171875 Z M 7.625 -4.171875 "/></g></g></g><g fill="#000000" fill-opacity="1"><g transform="translate(242.480373, 212.949946)"><g><path d="M 0.984375 0 L 0.984375 -8.25 L 2.109375 -8.25 L 2.109375 -0.921875 L 6.28125 -0.921875 L 6.28125 0 Z M 0.984375 0 "/></g></g></g><g fill="#000000" fill-opacity="1"><g transform="translate(256.114199, 212.949946)"><g><path d="M 8.765625 -4.171875 C 8.765625 -3.304688 8.597656 -2.546875 8.265625 -1.890625 C 7.929688 -1.242188 7.457031 -0.742188 6.84375 -0.390625 C 6.226562 -0.046875 5.5 0.125 4.65625 0.125 C 3.8125 0.125 3.082031 -0.046875 2.46875 -0.390625 C 1.851562 -0.742188 1.378906 -1.242188 1.046875 -1.890625 C 0.722656 -2.535156 0.5625 -3.296875 0.5625 -4.171875 C 0.5625 -5.484375 0.921875 -6.507812 1.640625 -7.25 C 2.367188 -8 3.378906 -8.375 4.671875 -8.375 C 5.515625 -8.375 6.242188 -8.207031 6.859375 -7.875 C 7.472656 -7.539062 7.941406 -7.054688 8.265625 -6.421875 C 8.597656 -5.785156 8.765625 -5.035156 8.765625 -4.171875 Z M 7.625 -4.171875 C 7.625 -5.191406 7.363281 -5.992188 6.84375 -6.578125 C 6.332031 -7.171875 5.609375 -7.46875 4.671875 -7.46875 C 3.722656 -7.46875 2.988281 -7.175781 2.46875 -6.59375 C 1.957031 -6.019531 1.703125 -5.210938 1.703125 -4.171875 C 1.703125 -3.128906 1.960938 -2.304688 2.484375 -1.703125 C 3.003906 -1.097656 3.726562 -0.796875 4.65625 -0.796875 C 5.613281 -0.796875 6.347656 -1.085938 6.859375 -1.671875 C 7.367188 -2.265625 7.625 -3.097656 7.625 -4.171875 Z M 7.625 -4.171875 "/></g></g></g><g fill="#000000" fill-opacity="1"><g transform="translate(272.408181, 212.949946)"><g><path d="M 0.609375 -4.171875 C 0.609375 -5.503906 0.96875 -6.535156 1.6875 -7.265625 C 2.40625 -8.003906 3.414062 -8.375 4.71875 -8.375 C 5.625 -8.375 6.363281 -8.21875 6.9375 -7.90625 C 7.507812 -7.601562 7.945312 -7.113281 8.25 -6.4375 L 7.1875 -6.125 C 6.957031 -6.59375 6.632812 -6.929688 6.21875 -7.140625 C 5.8125 -7.359375 5.300781 -7.46875 4.6875 -7.46875 C 3.726562 -7.46875 2.992188 -7.175781 2.484375 -6.59375 C 1.984375 -6.019531 1.734375 -5.210938 1.734375 -4.171875 C 1.734375 -3.128906 2 -2.304688 2.53125 -1.703125 C 3.070312 -1.097656 3.816406 -0.796875 4.765625 -0.796875 C 5.304688 -0.796875 5.804688 -0.875 6.265625 -1.03125 C 6.734375 -1.195312 7.113281 -1.421875 7.40625 -1.703125 L 7.40625 -3.1875 L 4.9375 -3.1875 L 4.9375 -4.125 L 8.4375 -4.125 L 8.4375 -1.28125 C 8 -0.832031 7.460938 -0.484375 6.828125 -0.234375 C 6.191406 0.00390625 5.503906 0.125 4.765625 0.125 C 3.898438 0.125 3.15625 -0.046875 2.53125 -0.390625 C 1.90625 -0.742188 1.425781 -1.242188 1.09375 -1.890625 C 0.769531 -2.535156 0.609375 -3.296875 0.609375 -4.171875 Z M 0.609375 -4.171875 "/></g></g></g><g fill="#000000" fill-opacity="1"><g transform="translate(288.702163, 212.949946)"><g><path d="M 4.546875 -3.421875 L 4.546875 0 L 3.4375 0 L 3.4375 -3.421875 L 0.265625 -8.25 L 1.5 -8.25 L 4.015625 -4.328125 L 6.515625 -8.25 L 7.734375 -8.25 Z M 4.546875 -3.421875 "/></g></g></g></svg>